<?xml version="1.0" encoding="UTF-8" standalone="no"?>
<!-- Generator: Adobe Illustrator 20.1.0, SVG Export Plug-In . SVG Version: 6.00 Build 0)  -->

<svg
   xmlns:dc="http://purl.org/dc/elements/1.1/"
   xmlns:cc="http://creativecommons.org/ns#"
   xmlns:rdf="http://www.w3.org/1999/02/22-rdf-syntax-ns#"
   xmlns:svg="http://www.w3.org/2000/svg"
   xmlns="http://www.w3.org/2000/svg"
   xmlns:sodipodi="http://sodipodi.sourceforge.net/DTD/sodipodi-0.dtd"
   xmlns:inkscape="http://www.inkscape.org/namespaces/inkscape"
   version="1.1"
   x="0px"
   y="0px"
   viewBox="60 70 179 179"
   xml:space="preserve"
   id="svg2"
   inkscape:version="0.91 r13725"
   sodipodi:docname="ithaca.svg"
   width="179"
   height="179"><metadata
     id="metadata62"><rdf:RDF><cc:Work
         rdf:about=""><dc:format>image/svg+xml</dc:format><dc:type
           rdf:resource="http://purl.org/dc/dcmitype/StillImage" /><dc:title></dc:title></cc:Work></rdf:RDF></metadata><defs
     id="defs60" /><sodipodi:namedview
     pagecolor="#ffffff"
     bordercolor="#666666"
     borderopacity="1"
     objecttolerance="10"
     gridtolerance="10"
     guidetolerance="10"
     inkscape:pageopacity="0"
     inkscape:pageshadow="2"
     inkscape:window-width="1132"
     inkscape:window-height="731"
     id="namedview58"
     showgrid="false"
     fit-margin-top="0"
     fit-margin-left="0"
     fit-margin-right="0"
     fit-margin-bottom="0"
     inkscape:zoom="2.116"
     inkscape:cx="79.728557"
     inkscape:cy="77.041684"
     inkscape:window-x="0"
     inkscape:window-y="0"
     inkscape:window-maximized="0"
     inkscape:current-layer="svg2" /><style
     type="text/css"
     id="style4">
	.st0{display:none;}
	.st1{display:inline;fill:#00467F;}
	.st2{fill:#6f6f6f;}
	.st3{fill-rule:evenodd;clip-rule:evenodd;fill:#6f6f6f;}
</style><g
     id="locked"
     class="st0"
     style="display:none"
     transform="translate(-7.5,105)"><path
       class="st1"
       d="m 3.1,211.2 c -1.9,0 -3.9,-0.1 -6,-0.3 -2.1,-0.2 -4.4,-0.5 -6.9,-0.9 -1.6,-0.3 -3.3,-1 -5.4,-2 -2,-1.1 -4.2,-2.7 -6.7,-5.2 -2.5,-2.4 -5.1,-5.9 -8,-10.5 -2.9,-4.6 -6,-10.6 -9.3,-18.1 -3.2,-7.3 -6.9,-16.1 -11.4,-26.2 C -55,137.8 -59.7,126.7 -64.7,114.8 -69.8,103 -75,90.8 -80.3,78.3 -85.7,65.8 -90.8,53.7 -95.8,41.9 c -5,-11.8 -9.7,-22.7 -13.9,-32.7 -4.2,-10 -7.9,-18.4 -10.8,-25.4 -3,-6.9 -5.1,-11.7 -6.3,-14.5 -1.1,-2.5 -2.1,-4.5 -3.1,-6.1 -0.9,-1.6 -1.9,-2.7 -3,-3.4 -1.1,-0.8 -2.4,-1.1 -4.1,-1.1 -1.7,-0.1 -3.4,1 -5,3.1 -1.6,2.1 -3.3,5.5 -5.2,10.2 l -90,209.3 c -2.3,5.6 -4.6,10.5 -7,14.5 -2.4,4.1 -5.3,7.4 -8.7,9.9 -3.4,2.5 -7.6,4.6 -12.8,4.9 -2.8,0.2 -3.3,0.2 -5.1,0.3 -1.8,0.1 -3.5,0.1 -5.1,0.1 -1.4,0 -2.3,0.4 -3,1 -0.6,0.6 -0.9,1.5 -0.9,2.5 0,1.4 0.5,2.3 1.5,2.8 1.1,0.5 2.6,0.7 4.8,0.7 6.1,0 11.9,-0.1 17.5,-0.3 5.7,-0.2 10.4,-0.3 14.5,-0.5 4,-0.2 6.6,-0.3 7.9,-0.3 3.7,0 7.8,0.1 12.3,0.3 4.4,0.2 8.9,0.3 13.5,0.5 4.5,0.2 8.7,0.3 12.5,0.3 1.8,0 3.1,-0.2 4,-0.7 1,-0.5 1.4,-1.4 1.4,-2.8 0.1,-1 -0.3,-1.8 -0.9,-2.5 -0.7,-0.6 -2.1,-1 -4.2,-1 l -5.1,0 c -5.2,0 -8.8,-0.8 -10.8,-2.5 -2,-1.6 -2.9,-4 -2.9,-6.9 0,-2 0.4,-4.9 1.2,-8.5 0.8,-3.7 2.1,-7.6 3.8,-11.8 l 18.4,-44.6 c 0.3,-1 0.7,-1.6 1.1,-1.9 0.4,-0.3 1.1,-0.4 2,-0.4 l 81,0 c 0.8,0 1.5,0.1 2.1,0.4 0.6,0.3 1,0.9 1.4,1.9 l 26.6,66.9 c 0.7,2 0.7,3.7 -0.1,5 -0.8,1.4 -1.8,2.2 -3.1,2.4 -1.7,0.2 -2.9,0.6 -3.5,1.2 -0.6,0.6 -0.9,1.4 -0.8,2.4 0.1,1.1 1,1.8 2.7,2.1 1.8,0.3 4.3,0.5 7.4,0.7 9.7,0.3 18.8,0.5 27.3,0.5 8.5,0.1 16,0.2 22.7,0.2 6.6,0.1 12,0.1 16.1,0.1 4.2,0 7.4,-0.1 9.6,-0.3 2.1,-0.2 3.6,-0.5 4.3,-1.1 0.7,-0.5 1.1,-1.2 1,-2.1 0.4,-2.3 -1.2,-3.5 -4.3,-3.5 z M -112,115.6 c -0.2,0.3 -0.7,0.5 -1.5,0.5 l -66.5,0 c -0.6,0 -1,-0.2 -1.3,-0.6 -0.3,-0.4 -0.3,-1 0.1,-1.8 l 33.3,-84.1 c 0.2,-0.7 0.4,-1.3 0.7,-2 0.3,-0.6 0.6,-1 1.2,-1.1 0.4,0.1 0.7,0.5 0.9,1.1 0.3,0.7 0.5,1.4 0.7,2 l 32.5,84.5 c 0.1,0.7 0.1,1.2 -0.1,1.5 z"
       id="path7"
       inkscape:connector-curvature="0"
       style="display:inline;fill:#00467f" /></g><g
     id="Layer_1"
     transform="matrix(0.41042114,0,0,0.41042114,32.679219,112.52511)"><g
       id="g10"><path
         class="st2"
         d="m 252.1,123.8 c 0,0 0,-0.1 0,0 0,-0.1 0,-0.1 0,0 0,-0.1 0,-0.1 0,0 0,-0.1 0,-0.1 0,0 0,-0.1 0,-0.1 0,-0.1 l 0,0 0,0 c 0,0 0,-0.1 -0.1,-0.1 -0.1,-0.1 -0.2,-0.1 -0.3,-0.1 -0.2,0 -0.4,0 -0.6,0 -0.1,0 -0.2,0 -0.3,0 -0.1,0 -0.2,0 -0.3,0 -0.6,0 -1,-0.3 -1.4,-0.5 -0.4,-0.3 -0.7,-0.6 -1,-1.1 -0.1,-0.1 -0.2,-0.3 -0.3,-0.5 0,0 0,0 0,0 -0.2,-0.3 -0.4,-0.7 -0.5,-1.2 l -10,-23.3 c -0.2,-0.4 -0.3,-0.7 -0.4,-0.9 0,0 -0.3,-0.5 -0.8,-0.5 l 0,0 0,0 c -0.3,0 -0.6,0.4 -0.7,0.5 -0.1,0.2 -0.3,0.6 -0.5,1 l -10,23.3 c -0.2,0.4 -0.3,0.8 -0.5,1.2 0,0.1 -0.1,0.1 -0.1,0.2 l 0,0 c 0,0 0,0 0,0 l 0,0 c 0,0.1 -0.1,0.1 -0.1,0.2 -0.3,0.5 -0.6,0.8 -1,1.1 -0.4,0.3 -0.8,0.5 -1.4,0.5 -0.3,0 -0.4,0 -0.6,0 -0.2,0 -0.4,0 -0.6,0 -0.2,0 -0.3,0 -0.3,0.1 0,0 0,0 0,0 0,0 0,0 0,0 0,0 0,0 0,0 0,0 0,0 0,0 0,0 0,0 0,0 0,0 0,0 0,0 0,0 0,0 0,0 0,0 0,0 0,0 0,0 0,0 0,0.1 0,0.2 0.1,0.3 0.2,0.3 0.1,0.1 0.3,0.1 0.5,0.1 0.2,0 0.4,0 0.6,0 0,0 0,0 0,0 0,0 0,0 0,0 0.2,0 0.4,0 0.6,0 0,0 0.1,0 0.1,0 0.1,0 0.2,0 0.3,0 0.1,0 0.2,0 0.3,0 0.6,0 1.2,0 1.6,-0.1 0.4,0 0.7,0 0.9,0 0.4,0 0.9,0 1.4,0 0.3,0 0.7,0 1,0 0,0 0,0 0,0 0.2,0 0.3,0 0.5,0 0.5,0 1,0 1.4,0 0.2,0 0.3,0 0.4,-0.1 0.1,0 0.1,-0.1 0.1,-0.1 0,0 0,0 0,0 0,0 0,0 0,0 0,0 0,0 0,0 0,0 0,0 0,-0.1 0,0 0,-0.1 0,-0.1 0,-0.1 0,-0.2 -0.1,-0.3 -0.1,-0.1 -0.2,-0.1 -0.5,-0.1 l -0.6,0 c -0.6,0 -1,-0.1 -1.2,-0.3 -0.2,-0.2 -0.3,-0.4 -0.3,-0.8 0,-0.2 0,-0.5 0.1,-1 0.1,-0.4 0.2,-0.8 0.4,-1.3 l 2,-5 c 0,-0.1 0.1,-0.2 0.1,-0.2 0,0 0.1,0 0.2,0 l 9,0 c 0.1,0 0.2,0 0.2,0 0.1,0 0.1,0.1 0.2,0.2 l 3,7.4 c 0.1,0.2 0.1,0.4 0,0.6 -0.1,0.1 -0.2,0.2 -0.3,0.3 l 0,0 -0.2,0 c -0.1,0 -0.2,0.1 -0.3,0.2 0,0 0,0.1 0,0.1 0,0.1 0,0.1 0,0.2 0,0 0.1,0.1 0.1,0.1 0.1,0.1 0.4,0.1 0.6,0.1 0.4,0 0.9,0 1.4,0 0.1,0 0.3,0 0.4,0 l 0,0 c 0.4,0 0.7,0 1.1,0 0.5,0 1,0 1.4,0 0.1,0 0.4,0 0.9,0 0.4,0 1,0 1.6,0.1 0.4,0 0.9,0 1.4,0 l 0,0 c 0.2,0 0.4,0 0.6,0 0.2,0 0.4,0 0.5,-0.1 0.1,0 0.1,-0.1 0.2,-0.2 0,0 0,0 0,-0.1 0,0.4 0,0.4 0,0.3 0,0 0,0 0,0 0,0 0,0 0,0 z m -13.3,-11 c 0,0 -0.1,0.1 -0.2,0.1 l -7.4,0 c -0.1,0 -0.1,0 -0.1,-0.1 0,0 0,-0.1 0,-0.2 l 3.7,-9.3 c 0,0 0.1,-0.2 0.1,-0.3 0,0 0,0 0,-0.1 0,0 0,0 0.1,0 0,0 0,0 0,0 0,0 0,0 0,0.1 0,0.1 0.1,0.3 0.1,0.3 l 3.6,9.4 c 0.1,0 0.1,0.1 0.1,0.1 z m 9.1,8.5 c 0,0 0,0 0,0 0,0 0,0 0,0 l 0,0 c 0,0 0,0 0,0 z"
         id="path12"
         inkscape:connector-curvature="0"
         style="fill:#6f6f6f" /><path
         class="st3"
         d="m 71.9,90.6 c 11.4,-5.3 28.6,-10 46,-10 l 0,35.2 c 0,11.6 -12.4,19.8 -23,23.5 -10.6,-3.7 -23,-11.9 -23,-23.5 l 0,-25.2 z m 21.6,52.9 c -11.9,-4.2 -26,-13.6 -26,-27.7 l 0,-28 2.6,-1.2 C 84.4,80 102.2,76.2 117.9,76.2 l 4.4,0 0,39.6 c 0,14.1 -14,23.5 -26,27.7 l -1.5,0.5 -1.3,-0.5 z"
         id="path14"
         inkscape:connector-curvature="0"
         style="clip-rule:evenodd;fill:#6f6f6f;fill-rule:evenodd" /><path
         class="st2"
         d="m 98.6,89.2 c 0,0 0,0 0,0 0,0 0,0 0,0 z"
         id="path16"
         inkscape:connector-curvature="0"
         style="fill:#6f6f6f" /><path
         class="st2"
         d="m 98.7,89.1 c 0,0 -0.1,0 -0.1,0 0.1,0.1 0.1,0 0.1,0 z"
         id="path18"
         inkscape:connector-curvature="0"
         style="fill:#6f6f6f" /><path
         class="st2"
         d="m 98.6,89.2 c 0,0 0,0 0,0 0,0 0,0 0,0 z"
         id="path20"
         inkscape:connector-curvature="0"
         style="fill:#6f6f6f" /><path
         class="st2"
         d="m 102,129.8 c -0.1,-0.1 -0.3,-0.1 -0.5,-0.1 -0.2,0 -0.4,0 -0.7,0 -0.2,0 -0.5,0 -0.7,0 -0.2,0 -0.5,0 -0.7,-0.1 -0.4,-0.1 -0.7,-0.2 -0.9,-0.3 -0.2,-0.2 -0.4,-0.4 -0.5,-0.6 -0.1,-0.3 -0.2,-0.6 -0.2,-0.9 -0.1,-0.6 -0.1,-1.3 -0.1,-2.1 0,-0.9 0,-1.8 0,-2.9 0,-1.1 0,-2.3 0,-3.5 l 0,-22 c -0.3,0 -0.7,0 -1,0 -1.3,0 -2.7,0.1 -4,0.4 -0.1,0 -0.3,0.1 -0.4,0.1 l 0,21.4 c 0,1.3 0,2.4 0,3.5 0,1.1 0,2.1 0,2.9 0,0.9 -0.1,1.5 -0.1,2.1 -0.1,0.6 -0.2,1 -0.3,1.3 -0.2,0.3 -0.5,0.5 -0.9,0.6 -0.2,0 -0.4,0.1 -0.6,0.1 -0.2,0 -0.5,0 -0.8,0 -0.2,0 -0.4,0.1 -0.5,0.1 -0.1,0.1 -0.1,0.2 -0.1,0.3 0,0.1 0.1,0.2 0.2,0.3 0.1,0.1 0.3,0.1 0.6,0.1 0.4,0 0.9,0 1.4,0 0.5,0 1,0 1.5,0 0.5,0 1,0 1.4,0 0.4,0 0.8,0 1,0 0.4,0 0.9,0 1.6,0 0.7,0 1.5,0 2.3,0.1 0.9,0 1.7,0 2.6,0 0.2,0 0.4,0 0.6,-0.1 0.1,-0.1 0.2,-0.2 0.2,-0.3 -0.2,-0.3 -0.3,-0.4 -0.4,-0.4 z"
         id="path22"
         inkscape:connector-curvature="0"
         style="fill:#6f6f6f" /><path
         class="st2"
         d="m 107.4,117.1 c -0.1,-0.1 -0.2,-0.2 -0.3,-0.2 -0.1,0 -0.2,0 -0.3,0.1 -0.1,0.1 -0.1,0.2 -0.1,0.4 0,0.3 -0.1,0.6 -0.3,1 -0.1,0.4 -0.3,0.8 -0.5,1.2 -0.2,0.4 -0.5,0.8 -0.8,1.1 -0.5,0.5 -1.1,0.9 -1.8,1.2 -0.6,0.3 -1.4,0.4 -2.2,0.5 -0.5,0.1 -1.1,0.1 -1.8,0.1 0,0.6 0,1.3 0,1.9 0.5,0 1,0 1.4,-0.1 0.9,-0.1 1.8,-0.1 2.6,-0.3 0.8,-0.1 1.5,-0.3 2.1,-0.5 0.2,-0.1 0.4,-0.2 0.5,-0.3 0.1,-0.1 0.2,-0.2 0.3,-0.3 0.1,-0.1 0.1,-0.3 0.2,-0.6 0.1,-0.3 0.2,-0.6 0.3,-1 0.1,-0.4 0.2,-0.8 0.3,-1.3 0.1,-0.4 0.2,-0.9 0.2,-1.3 0.1,-0.4 0.1,-0.7 0.2,-1 0,-0.3 0.1,-0.4 0.1,-0.5 0,0.2 0,0 -0.1,-0.1 z"
         id="path24"
         inkscape:connector-curvature="0"
         style="fill:#6f6f6f" /><path
         class="st2"
         d="m 107.3,95 c -0.1,-0.1 -0.2,-0.1 -0.4,-0.1 -0.7,0 -1.3,-0.1 -2,-0.2 -0.6,-0.1 -1.1,-0.2 -1.7,-0.3 -0.1,0 -0.3,0 -0.4,-0.1 -0.7,-0.1 -1.4,-0.2 -2.1,-0.3 -0.2,0 -0.4,0 -0.5,0 -0.5,0 -1,-0.1 -1.5,-0.1 -0.7,0 -1.3,0 -1.8,0 -2.1,0 -3.9,0.2 -5.4,0.6 -1.6,0.4 -2.9,0.9 -4,1.5 -1.1,0.6 -2.1,1.3 -2.9,2.1 -0.9,0.9 -1.6,1.8 -2.2,2.8 -0.6,1 -1.1,1.9 -1.4,2.9 -0.3,1 -0.6,1.9 -0.7,2.7 -0.3,2.1 -0.2,4 0.2,6.2 0.3,1.4 0.8,2.7 1.5,4 0.7,1.3 1.7,2.6 3,3.7 1.1,0.9 2.2,1.7 3.5,2.3 0.6,0.3 1.3,0.6 2.1,0.8 0,-0.3 0,-0.6 0,-0.9 0,-0.7 0,-1.5 0,-2.2 -0.3,-0.2 -0.6,-0.4 -0.9,-0.6 -1.2,-0.9 -2.2,-1.9 -3.1,-3.1 -0.9,-1.2 -1.5,-2.5 -2,-3.9 -0.8,-2.6 -0.8,-5.5 -0.4,-8.2 0.2,-1.2 0.6,-2.4 1.1,-3.4 0.5,-1.1 1.3,-2.1 2.3,-3 0.5,-0.5 1.1,-0.9 1.8,-1.3 0.8,-0.4 1.7,-0.8 2.9,-1 1.2,-0.3 2.6,-0.4 4.4,-0.4 1.2,0 2.3,0.1 3.3,0.3 1,0.2 1.9,0.5 2.7,0.8 0.8,0.3 1.4,0.7 1.9,1.1 0.2,0.1 0.3,0.3 0.4,0.4 0.1,0.1 0.1,0.2 0.2,0.3 0.2,0.3 0.4,0.7 0.6,1.2 0.2,0.4 0.3,0.9 0.3,1.3 0.1,0.4 0.1,0.7 0.1,0.9 0,0 0,0.1 0,0.1 0,0.1 0,0.2 0,0.2 0,0 0,0 0,0 l 0,0 c 0,0 0,0 0,0.1 0,0 0,0.1 0,0.1 0,0 0,0 0,0 0,0.1 0.1,0.1 0.2,0.1 0,0 0,0 0,0 0.1,0 0.2,-0.1 0.3,-0.2 0.1,-0.1 0.1,-0.3 0.2,-0.6 0,0 0,-0.1 0,-0.1 0,-0.1 0,-0.3 0,-0.5 0,-0.3 0,-0.7 0,-1.1 0,-0.4 0,-0.8 0,-1.2 0,-0.4 0,-0.8 0,-1.1 0,-0.5 0.1,-0.9 0.1,-1.1 0,-0.3 0,-0.5 0.1,-0.7 0,-0.2 0,-0.3 0,-0.4 0.3,-0.2 0.2,-0.3 0.2,-0.4 z"
         id="path26"
         inkscape:connector-curvature="0"
         style="fill:#6f6f6f" /><path
         class="st2"
         d="m 100.8,88.2 c -0.2,0 -0.4,-0.1 -0.7,-0.1 -0.4,0 -0.8,0 -1.2,0 -0.5,0 -1,0 -1.5,0 -0.5,0 -0.9,0 -1.4,0 -0.4,0 -0.8,0 -1,0 -0.1,0 -0.1,0 -0.2,0 -0.1,0 -0.1,0 -0.2,0 -0.3,0 -0.6,0 -1,0 -0.4,0 -0.9,0 -1.4,0 -0.5,0 -1,0 -1.5,0 -0.4,0 -0.8,0 -1.2,0 -0.3,0 -0.5,0 -0.7,0.1 -0.2,0 -0.2,0.1 -0.2,0.2 0,0.2 0.1,0.3 0.2,0.4 0,0 0,0 0,0 0.1,0.1 0.3,0.1 0.4,0.1 0.3,0 0.5,0 0.7,0 0.3,0 0.5,0.1 0.7,0.1 0.3,0.1 0.5,0.2 0.7,0.4 0.2,0.2 0.3,0.4 0.4,0.6 0.1,0.3 0.2,0.6 0.2,1.1 0,0.2 0,0.6 0,1 0,0.1 0,0.2 0,0.3 l 0,0.1 c 0.9,-0.2 1.8,-0.2 2.7,-0.3 0.6,0 1.3,-0.1 1.9,-0.1 0.3,0 0.5,0 0.8,0 0,0 0.1,0 0.1,0 0,-0.2 0,-0.8 0,-1 0,-0.7 0.2,-1.2 0.4,-1.5 0.1,-0.2 0.3,-0.3 0.4,-0.4 0,0 0,0 0,0 0,0 0,0 0.1,0 0,0 0.1,0 0.1,0 0.1,0 0.2,-0.1 0.2,-0.1 0.2,-0.1 0.5,-0.1 0.7,-0.1 0.2,0 0.5,0 0.7,0 0.2,0 0.3,0 0.4,-0.1 0,0 0,0 0,0 0.1,-0.1 0.2,-0.2 0.2,-0.4 0.4,-0.2 0.3,-0.3 0.2,-0.3 z"
         id="path28"
         inkscape:connector-curvature="0"
         style="fill:#6f6f6f" /><path
         class="st2"
         d="m 276.8,117.2 c -0.1,0 -0.3,0 -0.3,0.2 -0.1,0.1 -0.1,0.3 -0.2,0.6 0,0.2 -0.1,0.5 -0.3,0.8 -0.1,0.3 -0.3,0.6 -0.4,0.9 -0.2,0.3 -0.4,0.6 -0.6,0.8 -0.5,0.6 -1.1,1 -1.7,1.3 -0.6,0.3 -1.3,0.5 -2.2,0.6 -0.8,0.1 -1.8,0.1 -2.9,0.1 -1,0 -2.1,-0.2 -3.2,-0.5 -1.1,-0.3 -2.2,-0.8 -3.2,-1.5 -1,-0.7 -2,-1.5 -2.8,-2.6 -0.8,-1 -1.5,-2.2 -2,-3.6 -0.5,-1.4 -0.7,-3 -0.7,-4.7 0,-1.2 0.1,-2.4 0.3,-3.6 0.2,-1.2 0.6,-2.3 1.1,-3.3 0.5,-1 1.2,-2 2.2,-2.8 0.6,-0.5 1.2,-0.9 1.9,-1.2 0.7,-0.3 1.5,-0.5 2.3,-0.7 0.9,-0.1 1.9,-0.2 3,-0.2 1.8,0 3.3,0.2 4.5,0.6 1.3,0.4 2.2,0.9 2.9,1.6 0.5,0.5 0.8,1 1.1,1.6 0.2,0.6 0.4,1.2 0.4,1.8 0,0.2 0,0.4 0.1,0.6 0.1,0.1 0.2,0.2 0.3,0.2 0.2,0 0.3,-0.1 0.4,-0.3 0.1,-0.2 0.1,-0.4 0.1,-0.7 0,-0.2 0,-0.4 0,-0.8 0,-0.3 0,-0.7 0,-1 0,-0.4 0,-0.8 0,-1.1 0,-0.4 0,-0.7 0.1,-1 0,-0.4 0.1,-0.8 0.1,-1 0,-0.3 0,-0.5 0.1,-0.6 0,-0.2 0,-0.3 0,-0.4 0,-0.1 0,-0.2 -0.1,-0.3 -0.1,-0.1 -0.2,-0.1 -0.4,-0.2 -0.6,-0.1 -1.2,-0.2 -1.8,-0.3 -0.6,-0.1 -1.3,-0.2 -2,-0.3 -0.6,-0.1 -1.1,-0.1 -1.7,-0.2 -0.6,-0.1 -1.1,-0.1 -1.8,-0.1 -0.6,0 -1.3,-0.1 -2.1,-0.1 -1.9,0 -3.6,0.2 -5.1,0.5 -1.5,0.3 -2.8,0.8 -4,1.3 -1.2,0.6 -2.2,1.3 -3.1,2.1 -0.9,0.8 -1.7,1.7 -2.2,2.6 -0.6,0.9 -1,1.8 -1.4,2.7 -0.3,0.9 -0.6,1.8 -0.7,2.6 -0.1,0.8 -0.2,1.5 -0.2,2.2 0,1.2 0.1,2.4 0.4,3.7 0.3,1.3 0.8,2.5 1.5,3.8 0.7,1.2 1.7,2.4 2.9,3.4 1.2,1 2.4,1.7 3.8,2.3 1.4,0.6 2.8,1 4.4,1.3 1.6,0.3 3.2,0.4 4.9,0.4 0.8,0 1.7,0 2.6,-0.1 0.9,0 1.7,-0.1 2.4,-0.3 0.8,-0.1 1.4,-0.3 1.9,-0.5 0.3,-0.1 0.5,-0.3 0.7,-0.4 0.1,-0.1 0.2,-0.4 0.3,-0.7 0.1,-0.3 0.2,-0.6 0.2,-1 0.1,-0.4 0.2,-0.8 0.2,-1.2 0.1,-0.4 0.1,-0.8 0.2,-1.2 0.1,-0.4 0.1,-0.7 0.1,-1 0,-0.3 0,-0.5 0,-0.6 0,-0.2 0,-0.3 -0.1,-0.4 0,0 -0.1,0 -0.2,-0.1 z"
         id="path30"
         inkscape:connector-curvature="0"
         style="fill:#6f6f6f" /><path
         class="st2"
         d="m 479.4,110.4 c -0.1,0 -0.3,-0.1 -0.5,-0.1 -0.3,0 -0.7,0 -1,0 -0.4,0 -0.8,0 -1.2,0 -0.4,0 -0.7,0 -1,0 -0.3,0 -0.4,0 -0.5,0 -0.1,0 -0.2,0 -0.6,0 -0.3,0 -0.7,0 -1.1,0 -0.5,0 -0.9,0 -1.4,0 -0.5,0 -1,0 -1.4,0 -0.2,0 -0.4,0 -0.5,0.1 -0.1,0 -0.1,0.1 -0.1,0.3 0,0.1 0,0.1 0.1,0.2 0.1,0.1 0.1,0.1 0.2,0.1 0.1,0 0.3,0 0.4,0 0.2,0 0.3,0 0.5,0 0.2,0 0.3,0 0.4,0 0.4,0.1 0.7,0.2 0.9,0.3 0.2,0.1 0.4,0.3 0.5,0.6 0.1,0.3 0.2,0.6 0.2,1.1 0,0.5 0,1.1 0,1.8 l 0,6.4 c 0,0.2 0,0.4 -0.1,0.5 -0.1,0.1 -0.2,0.2 -0.3,0.3 -0.1,0.1 -0.3,0.2 -0.4,0.3 -0.3,0.2 -0.7,0.3 -1.2,0.4 -0.5,0.1 -1,0.2 -1.5,0.2 -0.5,0 -1,0 -1.4,0 -1.2,0 -2.3,-0.1 -3.4,-0.4 -1.1,-0.3 -2.2,-0.7 -3.2,-1.2 -1.1,-0.6 -2.1,-1.3 -3.1,-2.3 -0.3,-0.3 -0.7,-0.8 -1.2,-1.4 -0.5,-0.6 -0.9,-1.4 -1.3,-2.2 -0.4,-0.9 -0.8,-1.9 -1.1,-3 -0.3,-1.1 -0.4,-2.3 -0.4,-3.6 0,-1.4 0.2,-2.8 0.5,-3.9 0.3,-1.2 0.8,-2.2 1.3,-3.1 0.6,-0.9 1.2,-1.6 2,-2.2 1,-0.7 1.9,-1.3 2.9,-1.6 0.9,-0.3 1.8,-0.6 2.7,-0.7 0.9,-0.1 1.7,-0.1 2.4,-0.1 1.7,0 3.1,0.2 4.3,0.4 1.2,0.3 2.2,0.6 2.9,1.1 0.8,0.4 1.3,0.9 1.6,1.4 0.2,0.3 0.4,0.6 0.5,0.9 0.1,0.3 0.2,0.6 0.3,0.9 0.1,0.3 0.1,0.5 0.1,0.7 0,0.2 0,0.3 0.1,0.4 0,0.1 0.1,0.2 0.2,0.2 0.1,0 0.2,-0.1 0.3,-0.2 0.1,-0.1 0.1,-0.3 0.1,-0.6 0,-0.9 0,-1.7 0,-2.3 0,-0.6 0,-1.1 0.1,-1.5 0,-0.4 0,-0.7 0.1,-0.9 0,-0.2 0,-0.4 0,-0.5 0,-0.1 0,-0.2 -0.1,-0.2 -0.1,-0.1 -0.2,-0.1 -0.4,-0.1 -0.3,0 -0.7,0 -1.1,-0.1 -0.4,0 -0.7,-0.1 -1.1,-0.1 -0.4,-0.1 -0.7,-0.1 -0.9,-0.2 -0.2,0 -0.5,-0.1 -0.9,-0.2 -0.4,-0.1 -0.9,-0.1 -1.4,-0.2 -0.5,-0.1 -1.1,-0.1 -1.7,-0.2 -0.6,-0.1 -1.2,-0.1 -1.8,-0.1 -1,0 -2,0 -3.2,0.1 -1.1,0.1 -2.3,0.3 -3.5,0.7 -1.2,0.3 -2.4,0.8 -3.5,1.5 -0.9,0.5 -1.7,1.2 -2.4,1.9 -0.8,0.8 -1.4,1.7 -2,2.7 -0.6,1 -1.1,2.2 -1.4,3.4 -0.3,1.3 -0.5,2.6 -0.5,4.1 0,1.2 0.1,2.3 0.4,3.3 0.2,1.1 0.6,2 1,2.9 0.4,0.9 0.9,1.7 1.5,2.5 0.5,0.7 1.1,1.3 1.7,1.8 1.1,0.9 2.2,1.6 3.4,2.1 1.2,0.5 2.3,0.9 3.5,1.2 1.1,0.3 2.2,0.4 3.2,0.5 1,0.1 1.9,0.1 2.6,0.1 0.6,0 1.2,0 1.9,-0.1 0.7,-0.1 1.4,-0.1 2.1,-0.3 0.7,-0.1 1.4,-0.3 2.2,-0.5 0.7,-0.2 1.4,-0.5 2,-0.8 0.2,-0.1 0.3,-0.2 0.3,-0.3 0.1,-0.1 0.1,-0.3 0.1,-0.5 0,-0.3 0,-0.7 0,-1.2 l 0,-4.1 c 0,-0.8 0,-1.5 0,-2.1 0,-0.6 0,-1.2 0,-1.8 0,-0.6 0.2,-1.1 0.4,-1.4 0.2,-0.3 0.6,-0.5 1.1,-0.6 0.2,0 0.4,-0.1 0.5,-0.1 0.2,0 0.3,0 0.4,0 0.1,0 0.1,0 0.2,-0.1 0.1,-0.1 0.1,-0.1 0.1,-0.2 -0.3,0.1 -0.3,0 -0.4,-0.1 z"
         id="path32"
         inkscape:connector-curvature="0"
         style="fill:#6f6f6f" /><path
         class="st2"
         d="m 447.6,119.2 c -0.1,0 -0.2,0 -0.2,0.1 -0.1,0.1 -0.1,0.2 -0.1,0.5 -0.1,0.5 -0.2,0.9 -0.3,1.2 -0.1,0.3 -0.3,0.6 -0.6,0.8 -0.2,0.2 -0.5,0.4 -0.8,0.5 -0.3,0.1 -0.7,0.2 -1.2,0.3 -0.5,0.1 -0.9,0.1 -1.4,0.1 -0.5,0 -0.9,0 -1.2,0 -0.9,0 -1.7,0 -2.3,-0.1 -0.6,-0.1 -1.1,-0.2 -1.4,-0.4 -0.3,-0.2 -0.6,-0.5 -0.7,-0.9 -0.1,-0.4 -0.2,-0.9 -0.2,-1.5 0,-0.2 0,-0.4 0,-0.8 0,-0.4 0,-0.8 0,-1.4 0,-0.5 0,-1 0,-1.6 0,-0.5 0,-1 0,-1.5 0,-0.4 0,-0.8 0,-1.1 l 0,-3.1 c 0,-0.1 0,-0.1 0.1,-0.2 0,-0.1 0.1,-0.1 0.2,-0.1 0.1,0 0.4,0 0.8,0 0.4,0 0.8,0 1.3,0 0.5,0 1,0 1.5,0 0.5,0 0.9,0 1.4,0 0.4,0 0.7,0 0.9,0.1 0.5,0.1 0.9,0.1 1.1,0.3 0.3,0.1 0.5,0.2 0.6,0.4 0.1,0.1 0.2,0.3 0.2,0.5 0.1,0.2 0.1,0.5 0.2,0.7 0,0.2 0,0.4 0,0.6 0,0.1 0,0.2 0.1,0.3 0,0.1 0.1,0.1 0.2,0.1 0.1,0 0.2,-0.1 0.3,-0.2 0.1,-0.1 0.1,-0.3 0.1,-0.5 0,-0.1 0,-0.3 0,-0.6 0,-0.3 0,-0.6 0.1,-0.9 0,-0.3 0.1,-0.6 0.1,-0.9 0,-0.6 0.1,-1.1 0.2,-1.4 0.1,-0.3 0.1,-0.5 0.1,-0.6 0,-0.1 0,-0.2 -0.1,-0.2 0,-0.1 -0.1,-0.1 -0.2,-0.1 -0.1,0 -0.1,0.1 -0.2,0.1 -0.1,0.1 -0.2,0.2 -0.3,0.3 -0.2,0.2 -0.4,0.3 -0.7,0.4 -0.3,0.1 -0.7,0.1 -1.1,0.1 -0.2,0 -0.5,0 -0.9,0 -0.4,0 -1,0 -1.5,0 -0.6,0 -1.1,0 -1.7,0 -0.6,0 -1,0 -1.4,0 -0.4,0 -0.7,0 -0.8,0 -0.1,0 -0.2,0 -0.2,-0.1 0,-0.1 0,-0.2 0,-0.3 l 0,-10 c 0,-0.1 0,-0.2 0,-0.3 0,-0.1 0.1,-0.1 0.2,-0.1 0.1,0 0.3,0 0.7,0 0.4,0 0.8,0 1.3,0 0.5,0 1,0 1.5,0 0.5,0 0.9,0 1.3,0 0.4,0 0.6,0 0.8,0.1 0.7,0.1 1.2,0.2 1.6,0.3 0.4,0.1 0.6,0.2 0.8,0.3 0.2,0.1 0.3,0.3 0.4,0.5 0.1,0.2 0.1,0.5 0.2,0.7 0,0.2 0,0.4 0,0.6 0,0.2 0,0.3 0.1,0.4 0,0.1 0.1,0.1 0.2,0.1 0.1,0 0.2,-0.1 0.2,-0.1 0.1,-0.1 0.1,-0.2 0.1,-0.3 0,-0.1 0,-0.3 0.1,-0.5 0,-0.2 0,-0.5 0.1,-0.7 0,-0.3 0,-0.5 0,-0.7 0,-0.2 0,-0.4 0,-0.5 0,-0.5 0.1,-0.9 0.2,-1.2 0.1,-0.3 0.1,-0.4 0.1,-0.6 0,-0.1 0,-0.2 0,-0.2 0,-0.1 -0.1,-0.1 -0.1,-0.1 -0.1,0 -0.2,0 -0.3,0.1 -0.1,0 -0.1,0.1 -0.3,0.1 -0.2,0 -0.4,0.1 -0.7,0.1 -0.3,0 -0.7,0.1 -1,0.1 -0.2,0 -0.5,0 -1,0 -0.5,0 -1.1,0 -1.7,0 -0.7,0 -1.4,0 -2.1,0 -0.7,0 -1.4,0 -2.1,0 -0.6,0 -1.2,0 -1.6,0 -0.4,0 -0.7,0 -0.7,0 -0.1,0 -0.2,0 -0.5,0 -0.3,0 -0.7,0 -1.1,0 -0.4,0 -0.9,0 -1.4,0 -0.5,0 -1,0 -1.4,0 -0.2,0 -0.4,0 -0.5,0.1 -0.1,0 -0.1,0.1 -0.1,0.2 0,0.1 0,0.1 0.1,0.2 0.1,0.1 0.1,0.1 0.2,0.1 0.1,0 0.3,0 0.4,0 0.2,0 0.3,0 0.5,0 0.2,0 0.3,0 0.4,0 0.4,0.1 0.7,0.2 1,0.3 0.2,0.2 0.4,0.4 0.4,0.7 0.1,0.3 0.1,0.6 0.2,1.1 0,0.2 0,0.5 0,0.7 0,0.3 0,0.6 0,0.9 0,0.4 0,0.8 0,1.4 0,0.5 0,1.2 0,2 0,0.8 0,1.8 0,2.9 l 0,6.5 c 0,1.2 0,2.3 0,3.3 0,1 0,1.9 -0.1,2.7 0,0.8 -0.1,1.4 -0.2,2 -0.1,0.4 -0.1,0.7 -0.2,1 -0.1,0.3 -0.2,0.5 -0.3,0.7 -0.1,0.2 -0.3,0.3 -0.6,0.3 -0.2,0 -0.4,0.1 -0.6,0.1 -0.2,0 -0.4,0.1 -0.6,0.1 -0.1,0 -0.2,0 -0.2,0.1 0,0.1 -0.1,0.1 -0.1,0.2 0,0.1 0.1,0.2 0.2,0.2 0.1,0.1 0.3,0.1 0.4,0.1 0.3,0 0.7,0 1.1,0 0.4,0 0.8,0 1.2,-0.1 0.4,0 0.8,0 1.1,0 0.3,0 0.5,0 0.6,0 0.3,0 0.7,0 1.2,0 0.5,0 1.2,0 2,0.1 0.8,0 1.7,0.1 2.8,0.1 1.1,0 2.4,0.1 3.8,0.1 0.5,0 0.9,0 1.2,0 0.3,0 0.5,-0.1 0.6,-0.2 0.1,-0.1 0.3,-0.4 0.3,-0.7 0.1,-0.2 0.1,-0.5 0.2,-0.8 0.1,-0.4 0.1,-0.7 0.2,-1.1 0.1,-0.4 0.1,-0.7 0.1,-1 0,-0.3 0,-0.5 0,-0.6 0,-0.1 0,-0.3 0,-0.4 -0.5,-0.2 -0.5,-0.2 -0.6,-0.3 z"
         id="path34"
         inkscape:connector-curvature="0"
         style="fill:#6f6f6f" /><path
         class="st2"
         d="m 499.2,119.2 c -0.1,0 -0.2,0 -0.2,0.1 -0.1,0.1 -0.1,0.2 -0.1,0.5 -0.1,0.5 -0.2,0.9 -0.3,1.2 -0.1,0.3 -0.3,0.6 -0.6,0.8 -0.2,0.2 -0.5,0.4 -0.8,0.5 -0.3,0.1 -0.7,0.2 -1.2,0.3 -0.5,0.1 -0.9,0.1 -1.4,0.1 -0.5,0 -0.9,0 -1.2,0 -0.9,0 -1.7,0 -2.3,-0.1 -0.6,-0.1 -1.1,-0.2 -1.4,-0.4 -0.3,-0.2 -0.6,-0.5 -0.7,-0.9 -0.1,-0.4 -0.2,-0.9 -0.2,-1.5 0,-0.2 0,-0.4 0,-0.8 0,-0.4 0,-0.8 0,-1.4 0,-0.5 0,-1 0,-1.6 0,-0.5 0,-1 0,-1.5 0,-0.4 0,-0.8 0,-1.1 l 0,-3.1 c 0,-0.1 0,-0.1 0.1,-0.2 0,-0.1 0.1,-0.1 0.2,-0.1 0.1,0 0.4,0 0.8,0 0.4,0 0.8,0 1.3,0 0.5,0 1,0 1.5,0 0.5,0 0.9,0 1.4,0 0.4,0 0.7,0 0.9,0.1 0.5,0.1 0.9,0.1 1.1,0.3 0.3,0.1 0.5,0.2 0.6,0.4 0.1,0.1 0.2,0.3 0.2,0.5 0.1,0.2 0.1,0.5 0.2,0.7 0,0.2 0,0.4 0,0.6 0,0.1 0,0.2 0.1,0.3 0,0.1 0.1,0.1 0.2,0.1 0.1,0 0.2,-0.1 0.3,-0.2 0.1,-0.1 0.1,-0.3 0.1,-0.5 0,-0.1 0,-0.3 0,-0.6 0,-0.3 0,-0.6 0.1,-0.9 0,-0.3 0.1,-0.6 0.1,-0.9 0,-0.6 0.1,-1.1 0.2,-1.4 0.1,-0.3 0.1,-0.5 0.1,-0.6 0,-0.1 0,-0.2 -0.1,-0.2 0,-0.1 -0.1,-0.1 -0.2,-0.1 -0.1,0 -0.1,0.1 -0.2,0.1 -0.1,0.1 -0.2,0.2 -0.3,0.3 -0.2,0.2 -0.4,0.3 -0.7,0.4 -0.3,0.1 -0.7,0.1 -1.1,0.1 -0.2,0 -0.5,0 -0.9,0 -0.4,0 -1,0 -1.5,0 -0.6,0 -1.1,0 -1.7,0 -0.6,0 -1,0 -1.4,0 -0.4,0 -0.7,0 -0.8,0 -0.1,0 -0.2,0 -0.2,-0.1 0,-0.1 0,-0.2 0,-0.3 l 0,-10 c 0,-0.1 0,-0.2 0,-0.3 0,-0.1 0.1,-0.1 0.2,-0.1 0.1,0 0.3,0 0.7,0 0.4,0 0.8,0 1.3,0 0.5,0 1,0 1.5,0 0.5,0 0.9,0 1.3,0 0.4,0 0.6,0 0.8,0.1 0.7,0.1 1.2,0.2 1.6,0.3 0.4,0.1 0.6,0.2 0.8,0.3 0.2,0.1 0.3,0.3 0.4,0.5 0.1,0.2 0.1,0.5 0.2,0.7 0,0.2 0,0.4 0,0.6 0,0.2 0,0.3 0.1,0.4 0,0.1 0.1,0.1 0.2,0.1 0.1,0 0.2,-0.1 0.2,-0.1 0.1,-0.1 0.1,-0.2 0.1,-0.3 0,-0.1 0,-0.3 0.1,-0.5 0,-0.2 0,-0.5 0.1,-0.7 0,-0.3 0,-0.5 0,-0.7 0,-0.2 0,-0.4 0,-0.5 0,-0.5 0.1,-0.9 0.2,-1.2 0.1,-0.3 0.1,-0.4 0.1,-0.6 0,-0.1 0,-0.2 0,-0.2 0,-0.1 -0.1,-0.1 -0.1,-0.1 -0.1,0 -0.2,0 -0.3,0.1 -0.1,0.1 -0.1,0.1 -0.3,0.1 -0.2,0 -0.4,0.1 -0.7,0.1 -0.3,0 -0.7,0.1 -1,0.1 -0.2,0 -0.5,0 -1,0 -0.5,0 -1.1,0 -1.7,0 -0.7,0 -1.4,0 -2.1,0 -0.7,0 -1.4,0 -2.1,0 -0.6,0 -1.2,0 -1.6,0 -0.4,0 -0.7,0 -0.7,0 -0.1,0 -0.2,0 -0.5,0 -0.3,0 -0.7,0 -1.1,0 -0.4,0 -0.9,0 -1.4,0 -0.5,0 -1,0 -1.4,0 -0.2,0 -0.4,0 -0.5,0.1 -0.1,0 -0.1,0.1 -0.1,0.2 0,0.1 0,0.1 0.1,0.2 0.1,0.1 0.1,0.1 0.2,0.1 0.1,0 0.3,0 0.4,0 0.2,0 0.3,0 0.5,0 0.2,0 0.3,0 0.4,0 0.4,0.1 0.7,0.2 1,0.3 0.2,0.2 0.4,0.4 0.4,0.7 0.1,0.3 0.1,0.6 0.2,1.1 0,0.2 0,0.5 0,0.7 0,0.3 0,0.6 0,0.9 0,0.4 0,0.8 0,1.4 0,0.5 0,1.2 0,2 0,0.8 0,1.8 0,2.9 l 0,6.5 c 0,1.2 0,2.3 0,3.3 0,1 0,1.9 -0.1,2.7 0,0.8 -0.1,1.4 -0.2,2 -0.1,0.4 -0.1,0.7 -0.2,1 -0.1,0.3 -0.2,0.5 -0.3,0.7 -0.1,0.2 -0.3,0.3 -0.6,0.3 -0.2,0 -0.4,0.1 -0.6,0.1 -0.2,0 -0.4,0.1 -0.6,0.1 -0.1,0 -0.2,0 -0.2,0.1 0,0.1 -0.1,0.1 -0.1,0.2 0,0.1 0.1,0.2 0.2,0.2 0.1,0.1 0.3,0.1 0.4,0.1 0.3,0 0.7,0 1.1,0 0.4,0 0.8,0 1.2,-0.1 0.4,0 0.8,0 1.1,0 0.3,0 0.5,0 0.6,0 0.3,0 0.7,0 1.2,0 0.5,0 1.2,0 2,0.1 0.8,0 1.7,0.1 2.8,0.1 1.1,0 2.4,0.1 3.8,0.1 0.5,0 0.9,0 1.2,0 0.3,0 0.5,-0.1 0.6,-0.2 0.1,-0.1 0.3,-0.4 0.3,-0.7 0.1,-0.2 0.1,-0.5 0.2,-0.8 0.1,-0.4 0.1,-0.7 0.2,-1.1 0.1,-0.4 0.1,-0.7 0.1,-1 0,-0.3 0,-0.5 0,-0.6 0,-0.1 0,-0.3 0,-0.4 -0.4,-0.2 -0.4,-0.2 -0.6,-0.3 z"
         id="path36"
         inkscape:connector-curvature="0"
         style="fill:#6f6f6f" /><path
         class="st2"
         d="m 378.3,99.5 c -1.4,-1.2 -3,-2.1 -4.8,-2.7 -1.8,-0.6 -3.8,-1 -6,-1 -1.8,0 -3.4,0.2 -4.8,0.7 -1.4,0.4 -2.7,1 -3.8,1.8 -1.1,0.7 -2.1,1.6 -2.9,2.6 -0.8,1 -1.5,2 -2,3.1 -0.5,1.1 -0.9,2.2 -1.2,3.3 -0.3,1.1 -0.4,2.1 -0.4,3.1 0,1.1 0.1,2.2 0.4,3.4 0.3,1.1 0.6,2.3 1.2,3.3 0.5,1.1 1.2,2.1 2,3 0.8,0.9 1.8,1.8 2.9,2.5 1.1,0.7 2.4,1.3 3.8,1.7 1.4,0.4 3,0.6 4.7,0.6 1.8,0 3.6,-0.3 5.1,-0.8 1.6,-0.5 3,-1.2 4.2,-2.2 1.3,-0.9 2.3,-2 3.2,-3.3 0.9,-1.3 1.6,-2.6 2,-4.1 0.5,-1.5 0.7,-3.1 0.7,-4.7 0,-2.2 -0.4,-4.1 -1.2,-5.8 -0.7,-1.9 -1.7,-3.3 -3.1,-4.5 z m -0.1,15.8 c -0.3,1.3 -0.8,2.4 -1.4,3.4 -0.6,0.9 -1.2,1.7 -2,2.3 -0.7,0.6 -1.5,1.1 -2.3,1.4 -0.8,0.3 -1.5,0.6 -2.3,0.7 -0.7,0.1 -1.4,0.2 -2,0.2 -1.7,0 -3.3,-0.3 -4.8,-1 -1.5,-0.6 -2.7,-1.6 -3.8,-2.8 -1.1,-1.2 -1.9,-2.7 -2.5,-4.4 -0.6,-1.7 -0.9,-3.7 -0.9,-5.8 0,-2 0.3,-3.8 0.8,-5.3 0.5,-1.5 1.3,-2.8 2.3,-3.8 1,-1 2.1,-1.8 3.5,-2.3 1.3,-0.5 2.8,-0.7 4.4,-0.7 1.2,0 2.4,0.2 3.5,0.6 1.1,0.4 2.2,0.9 3.1,1.7 1,0.7 1.8,1.6 2.5,2.7 0.7,1.1 1.3,2.3 1.7,3.8 0.4,1.4 0.6,3 0.6,4.8 0.1,1.7 -0.1,3.2 -0.4,4.5 z"
         id="path38"
         inkscape:connector-curvature="0"
         style="fill:#6f6f6f" /><path
         class="st2"
         d="m 348.3,117.5 c -0.1,0 -0.2,0 -0.3,0.1 -0.1,0.1 -0.1,0.2 -0.1,0.4 0,0.2 -0.1,0.5 -0.2,0.9 -0.1,0.4 -0.3,0.8 -0.5,1.1 -0.2,0.4 -0.4,0.7 -0.7,1 -0.5,0.5 -1.1,0.9 -1.7,1.1 -0.6,0.2 -1.3,0.4 -2.1,0.5 -0.8,0.1 -1.6,0.1 -2.6,0.1 -1.6,0 -3.2,-0.2 -4.6,-0.7 -1.4,-0.5 -2.7,-1.1 -3.8,-2 -1.1,-0.8 -2.1,-1.8 -2.9,-2.9 -0.8,-1.1 -1.4,-2.3 -1.9,-3.7 -0.4,-1.3 -0.6,-2.7 -0.6,-4.1 0,-1.2 0.1,-2.4 0.3,-3.6 0.2,-1.1 0.5,-2.2 1,-3.2 0.5,-1 1.2,-2 2.1,-2.8 0.4,-0.4 1,-0.8 1.7,-1.2 0.7,-0.4 1.6,-0.7 2.8,-1 1.1,-0.2 2.5,-0.4 4.1,-0.4 1.1,0 2.2,0.1 3.2,0.3 1,0.2 1.8,0.4 2.6,0.7 0.7,0.3 1.3,0.7 1.8,1 0.3,0.3 0.6,0.6 0.9,1 0.2,0.4 0.4,0.8 0.6,1.3 0.1,0.5 0.2,0.9 0.2,1.4 0,0.3 0,0.5 0.1,0.6 0,0.1 0.1,0.2 0.2,0.2 0.1,0 0.2,-0.1 0.3,-0.2 0.1,-0.1 0.1,-0.3 0.2,-0.6 0,-0.1 0,-0.3 0,-0.6 0,-0.3 0,-0.6 0,-1 0,-0.4 0,-0.7 0,-1.1 0,-0.4 0,-0.7 0,-1 0,-0.4 0.1,-0.8 0.1,-1.1 0,-0.3 0,-0.5 0.1,-0.6 0,-0.2 0,-0.3 0,-0.4 0,-0.1 0,-0.2 -0.1,-0.3 -0.1,-0.1 -0.2,-0.1 -0.4,-0.1 -0.6,0 -1.3,-0.1 -1.9,-0.2 -0.6,-0.1 -1.3,-0.2 -2,-0.4 -0.6,-0.1 -1.3,-0.2 -1.9,-0.2 -0.7,-0.1 -1.3,-0.1 -1.9,-0.1 -0.6,0 -1.2,0 -1.7,0 -2,0 -3.7,0.2 -5.1,0.5 -1.5,0.3 -2.7,0.8 -3.8,1.4 -1.1,0.6 -2,1.3 -2.7,2 -0.8,0.8 -1.5,1.7 -2.1,2.6 -0.6,0.9 -1,1.8 -1.3,2.7 -0.3,0.9 -0.5,1.8 -0.7,2.6 -0.1,0.8 -0.2,1.5 -0.2,2.2 0,1.2 0.1,2.4 0.4,3.7 0.3,1.3 0.7,2.5 1.4,3.8 0.7,1.2 1.6,2.4 2.9,3.5 1,0.9 2.1,1.6 3.3,2.2 1.2,0.6 2.6,1 4.1,1.3 1.5,0.3 3.2,0.5 5.2,0.5 0.8,0 1.7,0 2.5,-0.1 0.9,0 1.7,-0.1 2.4,-0.3 0.8,-0.1 1.4,-0.3 1.9,-0.5 0.2,-0.1 0.4,-0.2 0.5,-0.2 0.1,-0.1 0.2,-0.2 0.3,-0.3 0.1,-0.1 0.1,-0.3 0.2,-0.5 0.1,-0.3 0.2,-0.6 0.2,-1 0.1,-0.4 0.2,-0.8 0.2,-1.2 0.1,-0.4 0.2,-0.8 0.2,-1.2 0.1,-0.4 0.1,-0.7 0.2,-1 0,-0.3 0.1,-0.4 0.1,-0.5 0,-0.1 0,-0.3 -0.1,-0.4 -0.2,0.1 -0.3,0.1 -0.4,0 z"
         id="path40"
         inkscape:connector-curvature="0"
         style="fill:#6f6f6f" /><path
         class="st2"
         d="m 390,124.1 c 0.1,0 0.2,0 0.2,0 -0.1,0 -0.1,0 -0.2,0 0,0 0,0 0,0 z"
         id="path42"
         inkscape:connector-curvature="0"
         style="fill:#6f6f6f" /><path
         class="st2"
         d="m 389.8,124.1 c 0.1,0 0.2,0 0.2,0 0,0 0,0 0,0 -0.1,0 -0.1,0 -0.2,0 z"
         id="path44"
         inkscape:connector-curvature="0"
         style="fill:#6f6f6f" /><path
         class="st2"
         d="m 152.6,96.9 c 0.1,-0.1 0.1,-0.2 0.1,-0.3 0,0 0,-0.1 0,-0.1 0,0 0,0 0,-0.1 0,0 -0.1,-0.1 -0.2,-0.1 -0.1,0 -0.4,-0.1 -0.7,-0.1 l 0,0 0,0 c -0.1,0 -0.3,0 -0.4,0 -0.2,0 -0.5,0 -0.8,0 -0.4,0 -0.7,0 -1.1,0 -0.1,0 -0.2,0 -0.3,0 -0.5,0 -0.9,0 -1.3,0 -0.2,0 -0.4,0 -0.5,0 -0.2,0 -0.3,0 -0.4,0 0,0 -0.1,0 -0.1,0 0,0 -0.1,0 -0.1,0 l 0,0 c 0,0 -0.1,0 -0.1,0 0,0 -0.1,0 -0.1,0 -0.1,0 -0.3,0 -0.4,0 -0.2,0 -0.3,0 -0.5,0 -0.4,0 -0.8,0 -1.3,0 -0.1,0 -0.2,0 -0.3,0 -0.4,0 -0.7,0 -1.1,0 -0.3,0 -0.5,0 -0.8,0 -0.1,0 -0.3,0 -0.4,0 l 0,0 0,0 c -0.3,0 -0.5,0 -0.7,0.1 -0.1,0 -0.1,0.1 -0.2,0.1 0,0 0,0 0,0.1 0,0 0,0.1 0,0.1 0,0 0,0 0,0 0,0 0,0 0,0 0,0.1 0,0.1 0,0.2 0,0 0,0 0,0 0,0 0,0 0,0 0,0 0,0 0,0 l 0,0 c 0,0 0,0 0,0 0,0 0,0 0.1,0 0,0 0,0 0,0 0.1,0 0.2,0.1 0.3,0.1 0,0 0,0 0.1,0 0,0 0,0 0,0 0,0 0,0 0,0 0,0 0,0 0,0 0.1,0 0.2,0 0.3,0 0.1,0 0.1,0 0.2,0 0.1,0 0.2,0 0.3,0 0.2,0 0.5,0.1 0.7,0.1 0.1,0 0.1,0 0.2,0.1 0,0 0,0 0,0 0,0 0,0 0.1,0 0,0 0,0 0.1,0 0,0 0,0 0,0 0,0 0,0 0.1,0 0,0 0,0 0,0 0.1,0.1 0.2,0.1 0.3,0.2 0.2,0.1 0.3,0.3 0.4,0.6 0.1,0.3 0.2,0.6 0.2,1 0,0.2 0,0.5 0,0.7 0,0.1 0,0.2 0,0.4 0,0.1 0,0.2 0,0.3 0,0.1 0,0.1 0,0.2 0,0.4 0,0.8 0,1.3 l 0,11.4 c 0,1.2 0,2.3 0,3.3 0,1 0,1.9 0,2.7 0,0.8 -0.1,1.5 -0.1,2 -0.1,0.5 -0.2,1 -0.3,1.2 -0.2,0.3 -0.4,0.5 -0.8,0.5 -0.2,0 -0.4,0.1 -0.6,0.1 -0.2,0 -0.5,0 -0.8,0 -0.2,0 -0.4,0.1 -0.5,0.1 -0.1,0.1 -0.1,0.2 -0.1,0.3 0,0.1 0.1,0.2 0.2,0.3 0.1,0.1 0.3,0.1 0.6,0.1 0.4,0 0.8,0 1.3,0 0.5,0 1,0 1.4,0 0.5,0 0.9,0 1.3,0 0.4,0 0.7,0 0.9,0 0.4,0 0.9,0 1.5,0 0.6,0 1.4,0 2.2,0.1 0.8,0 1.6,0 2.5,0 0.2,0 0.4,0 0.5,-0.1 0.1,-0.1 0.2,-0.2 0.2,-0.3 0,-0.1 0,-0.2 -0.1,-0.3 -0.1,-0.1 -0.2,-0.1 -0.5,-0.1 -0.2,0 -0.4,0 -0.6,0 -0.2,0 -0.5,0 -0.7,0 -0.2,0 -0.4,0 -0.6,-0.1 -0.4,-0.1 -0.7,-0.2 -0.9,-0.3 -0.2,-0.1 -0.4,-0.3 -0.4,-0.6 -0.1,-0.2 -0.2,-0.5 -0.2,-0.9 -0.1,-0.5 -0.1,-1.2 -0.1,-2 0,-0.8 0,-1.7 0,-2.8 0,-1 0,-2.1 0,-3.3 l 0,-9.4 c 0,-0.8 0,-1.4 0,-2 0,-0.5 0,-1 0,-1.3 0,-0.2 0,-0.4 0,-0.6 0,0 0,-0.1 0,-0.1 0,0 0,0 0,0 0,-0.1 0,-0.1 0,-0.2 0,-0.1 0,-0.2 0,-0.3 0,0 0,-0.1 0,-0.1 0,-0.1 0,-0.3 0,-0.3 0,-0.6 0.1,-1.1 0.4,-1.4 0.1,-0.2 0.2,-0.3 0.4,-0.4 0,0 0,0 0,0 0,0 0,0 0.1,0 0,0 0,0 0,0 0,0 0,0 0.1,0 0,0 0,0 0.1,0 0,0 0,0 0,0 0.1,0 0.1,0 0.2,-0.1 0.2,-0.1 0.4,-0.1 0.7,-0.1 0.1,0 0.2,0 0.3,0 0.1,0 0.1,0 0.2,0 0.1,0 0.2,0 0.3,0 0,0 0,0 0,0 0,0 0,0 0,0 0,0 0,0 0,0 0,0 0.1,0 0.1,0 -0.2,0.2 -0.1,0.2 0.1,0.1 -0.1,0 0,0 0,0"
         id="path46"
         inkscape:connector-curvature="0"
         style="fill:#6f6f6f" /><path
         class="st2"
         d="m 182.2,100.3 c -0.1,-0.3 -0.1,-0.7 -0.2,-1.1 0,-0.3 -0.1,-0.5 -0.1,-0.8 0,-0.1 -0.1,-0.3 -0.1,-0.4 -0.1,-0.4 -0.1,-0.7 -0.2,-1 -0.1,-0.3 -0.1,-0.5 -0.1,-0.5 0,-0.2 -0.1,-0.3 -0.1,-0.4 0,0 0,-0.1 -0.1,-0.1 -0.1,-0.1 -0.2,-0.2 -0.3,-0.2 -0.1,0 -0.3,0.1 -0.6,0.2 -0.2,0.1 -0.6,0.2 -1.1,0.3 -0.6,0.1 -1.2,0.1 -1.9,0.1 -0.7,0 -1.3,0 -2,0 l -13.1,0 c -0.6,0 -1.3,0 -2,0 -0.7,0 -1.3,-0.1 -1.9,-0.1 -0.5,-0.1 -0.8,-0.2 -1.1,-0.3 -0.2,-0.1 -0.4,-0.2 -0.6,-0.2 -0.1,0 -0.2,0.1 -0.3,0.2 0,0 0,0.1 -0.1,0.1 0,0.1 -0.1,0.2 -0.1,0.4 0,0.1 -0.1,0.2 -0.1,0.5 -0.1,0.3 -0.1,0.6 -0.2,1 0,0.1 -0.1,0.3 -0.1,0.4 -0.1,0.3 -0.1,0.5 -0.1,0.8 -0.1,0.4 -0.1,0.8 -0.2,1.1 -0.1,0.3 -0.1,0.5 -0.1,0.7 0,0.2 0,0.3 0.1,0.5 0.1,0.1 0.1,0.2 0.3,0.2 0.1,0 0.1,0 0.2,0 0,0 0.1,-0.1 0.1,-0.1 0.1,-0.1 0.1,-0.2 0.2,-0.4 0,-0.1 0.1,-0.3 0.2,-0.5 0.1,-0.2 0.2,-0.5 0.4,-0.7 0.2,-0.3 0.4,-0.5 0.7,-0.7 0.3,-0.2 0.7,-0.3 1.2,-0.3 0.4,-0.1 0.9,-0.1 1.5,-0.1 0.1,0 0.2,0 0.3,0 l 5.5,-0.1 0.2,0 0,15 c 0,1.1 0,2.2 0,3.2 0,1 0,1.9 0,2.7 0,0.8 -0.1,1.5 -0.1,2 -0.1,0.5 -0.2,1 -0.3,1.3 -0.2,0.3 -0.4,0.5 -0.8,0.6 -0.2,0 -0.3,0.1 -0.6,0.1 -0.2,0 -0.5,0 -0.8,0 -0.2,0 -0.4,0.1 -0.5,0.1 -0.1,0.1 -0.1,0.2 -0.1,0.3 0,0.1 0.1,0.2 0.2,0.3 0.1,0 0.2,0.1 0.4,0.1 0.1,0 0.1,0 0.2,0 0.4,0 0.8,0 1.3,0 0.5,0 1,0 1.4,0 0.5,0 0.9,0 1.3,0 0.3,0 0.6,0 0.8,0 0,0 0.1,0 0.1,0 l 0,0 c 0,0 0.1,0 0.1,0 0.4,0 0.8,0 1.4,0 0.6,0 1.4,0 2.2,0.1 0.5,0 1,0 1.5,0 0.3,0 0.7,0 1,0 0.2,0 0.4,0 0.5,-0.1 0.1,-0.1 0.2,-0.2 0.2,-0.3 0,-0.1 0,-0.2 -0.1,-0.3 -0.1,-0.1 -0.3,-0.1 -0.5,-0.1 -0.2,0 -0.4,0 -0.6,0 -0.2,0 -0.5,0 -0.7,0 -0.2,0 -0.4,0 -0.6,-0.1 -0.4,-0.1 -0.7,-0.2 -0.9,-0.3 -0.2,-0.2 -0.3,-0.4 -0.4,-0.7 -0.1,-0.3 -0.2,-0.6 -0.2,-0.9 -0.1,-0.5 -0.1,-1.2 -0.1,-2 0,-0.8 -0.1,-1.7 -0.1,-2.7 0,-1 0,-2.1 0,-3.2 l 0,-15 5.5,0.1 c 0.1,0 0.2,0 0.3,0 0.6,0 1.1,0.1 1.5,0.1 0.5,0.1 0.9,0.2 1.2,0.3 0.3,0.2 0.5,0.4 0.7,0.7 0.2,0.3 0.3,0.5 0.4,0.7 0.1,0.2 0.2,0.4 0.2,0.5 0,0.2 0.1,0.3 0.2,0.4 0,0 0.1,0.1 0.1,0.1 0,0 0.1,0 0.2,0 0.1,0 0.2,-0.1 0.3,-0.2 0.1,-0.1 0.1,-0.3 0.1,-0.5 0.1,-0.3 0.1,-0.5 0,-0.8 z"
         id="path48"
         inkscape:connector-curvature="0"
         style="fill:#6f6f6f" /><path
         class="st2"
         d="m 217.8,123.6 c -0.1,-0.1 -0.2,-0.1 -0.4,-0.1 0,0 0,0 0,0 l 0,0 c -0.2,0 -0.4,0 -0.6,0 -0.2,0 -0.5,0 -0.7,0 -0.2,0 -0.3,0 -0.4,0 -0.1,0 -0.1,0 -0.2,0 0,0 0,0 0,0 -0.1,0 -0.2,0 -0.2,0 0,0 0,0 0,0 0,0 0,0 0,0 -0.2,-0.1 -0.4,-0.1 -0.6,-0.2 -0.2,-0.1 -0.4,-0.3 -0.4,-0.6 -0.1,-0.2 -0.2,-0.5 -0.2,-0.9 -0.1,-0.5 -0.1,-1.2 -0.1,-2 0,-0.8 0,-1.7 0,-2.8 0,-1 0,-2.1 0,-3.3 l 0,-9.4 c 0,-0.8 0,-1.4 0,-2 0,-0.1 0,-0.2 0,-0.4 0,-0.4 0,-0.7 0,-1 0,0 0,0 0,0 0,-0.2 0,-0.4 0,-0.5 0,0 0,-0.1 0,-0.1 l 0,0 c 0,0 0,0 0,0 0,-0.1 0,-0.1 0,-0.2 0,-0.1 0,-0.2 0,-0.3 0,0 0,-0.1 0,-0.1 0,0 0,0 0,0 0,-0.1 0,-0.3 0,-0.3 0,-0.6 0.1,-1.1 0.4,-1.4 0,0 0.1,-0.1 0.1,-0.1 0.1,-0.1 0.2,-0.2 0.3,-0.3 0,0 0,0 0,0 0,0 0,0 0.1,0 0,0 0,0 0,0 0,0 0,0 0.1,0 0,0 0,0 0.1,0 0,0 0,0 0,0 0.1,0 0.1,0 0.2,-0.1 0,0 0.1,0 0.1,0 0.2,-0.1 0.4,-0.1 0.6,-0.1 0.1,0 0.2,0 0.3,0 0,0 0,0 0,0 0.1,0 0.1,0 0.2,0 0.1,0 0.2,0 0.3,0 0,0 0,0 0,0 0.2,0 0.5,0 0.6,-0.2 0,-0.1 0,-0.1 0,-0.2 0,0 0,0 0,0 0,0 0,0 0,0 0,0 0,-0.1 0,-0.1 0,0 0,0 0,-0.1 0,0 0,0 -0.1,-0.1 0,0 -0.1,0 -0.1,-0.1 -0.1,0 -0.4,-0.1 -0.7,-0.1 l 0,0 0,0 c -0.1,0 -0.3,0 -0.4,0 -0.2,0 -0.5,0 -0.8,0 -0.4,0 -0.7,0 -1.1,0 -0.1,0 -0.2,0 -0.3,0 -0.5,0 -0.9,0 -1.3,0 -0.2,0 -0.4,0 -0.5,0 -0.2,0 -0.3,0 -0.4,0 0,0 -0.1,0 -0.1,0 0,0 -0.1,0 -0.1,0 l 0,0 c 0,0 -0.1,0 -0.1,0 0,0 -0.1,0 -0.1,0 -0.1,0 -0.3,0 -0.4,0 -0.2,0 -0.3,0 -0.5,0 -0.4,0 -0.8,0 -1.3,0 -0.1,0 -0.2,0 -0.3,0 -0.4,0 -0.7,0 -1.1,0 -0.3,0 -0.5,0 -0.8,0 -0.1,0 -0.3,0 -0.4,0 l 0,0 0,0 c -0.2,0 -0.3,0 -0.5,0 -0.1,0 -0.1,0 -0.2,0 -0.1,0 -0.1,0.1 -0.2,0.1 0,0 0,0 0,0.1 -0.1,0.2 0,0.4 0.2,0.5 0.1,0 0.2,0.1 0.3,0.1 0,0 0,0 0.1,0 0,0 0,0 0,0 0,0 0,0 0,0 0,0 0,0 0,0 0.1,0 0.2,0 0.3,0 0.1,0 0.1,0 0.2,0 0.1,0 0.2,0 0.3,0 0.2,0 0.5,0.1 0.7,0.1 0.1,0 0.1,0 0.2,0.1 0,0 0,0 0,0 0,0 0,0 0.1,0 0,0 0,0 0.1,0 0,0 0,0 0,0 0,0 0,0 0.1,0 0,0 0,0 0,0 0.1,0.1 0.2,0.1 0.3,0.2 0.2,0.1 0.3,0.3 0.4,0.6 0.1,0.3 0.2,0.6 0.2,1 0,0.2 0,0.5 0,0.7 0,0.1 0,0.2 0,0.4 0,0.1 0,0.2 0,0.3 0,0.1 0,0.1 0,0.2 0,0.4 0,0.8 0,1.3 l 0,5.9 c 0,0.1 0,0.2 -0.1,0.2 -0.1,0 -0.1,0.1 -0.1,0.1 l -14.4,0 c -0.1,0 -0.1,0 -0.2,-0.1 0,0 0,0 -0.1,-0.1 0,0 0,-0.1 0,-0.1 l 0,-4.3 c 0,-0.9 0,-1.7 0,-2.3 0,-0.6 0,-1 0,-1.4 0,-0.4 0,-0.7 0.1,-1 0,-0.6 0.2,-1.1 0.4,-1.4 0.2,-0.3 0.5,-0.4 0.9,-0.5 0.2,-0.1 0.4,-0.1 0.6,-0.1 0.1,0 0.1,0 0.2,0 0,0 0.1,0 0.1,0 0.1,0 0.1,0 0.2,0 0.1,0 0.2,0 0.3,0 0,0 0,0 0,0 0,0 0,0 0,0 0,0 0,0 0,0 0,0 0.1,0 0.1,0 0.2,0 0.4,-0.1 0.5,-0.2 0,-0.1 0,-0.1 0,-0.2 0,0 0,0 0,0 0,0 0,0 0,0 0,0 0,0 0,0 0,0 0,-0.1 0,-0.1 0,0 0,0 0,-0.1 0,0 -0.1,-0.1 -0.2,-0.1 -0.1,0 -0.4,-0.1 -0.7,-0.1 l 0,0 0,0 c -0.1,0 -0.3,0 -0.4,0 -0.2,0 -0.5,0 -0.8,0 -0.4,0 -0.7,0 -1.1,0 -0.1,0 -0.2,0 -0.3,0 -0.5,0 -0.9,0 -1.3,0 -0.2,0 -0.4,0 -0.5,0 -0.2,0 -0.3,0 -0.4,0 0,0 -0.1,0 -0.1,0 0,0 -0.1,0 -0.1,0 l 0,0 c 0,0 -0.1,0 -0.1,0 0,0 -0.1,0 -0.1,0 -0.1,0 -0.3,0 -0.4,0 -0.2,0 -0.3,0 -0.5,0 -0.4,0 -0.8,0 -1.3,0 -0.1,0 -0.2,0 -0.3,0 -0.4,0 -0.7,0 -1.1,0 -0.3,0 -0.5,0 -0.8,0 -0.1,0 -0.3,0 -0.4,0 l 0,0 0,0 c -0.2,0 -0.3,0 -0.5,0 -0.1,0 -0.1,0 -0.2,0 -0.1,0 -0.1,0.1 -0.2,0.1 0,0 0,0 0,0.1 0,0 0,0.1 0,0.1 0,0 0,0 0,0 0,0 0,0 0,0 0,0.1 0,0.1 0,0.2 0,0.1 0.1,0.1 0.2,0.2 0.1,0 0.2,0.1 0.3,0.1 0,0 0,0 0.1,0 0,0 0,0 0,0 0,0 0,0 0,0 0,0 0,0 0,0 0.1,0 0.2,0 0.3,0 0.1,0 0.1,0 0.2,0 0.1,0 0.2,0 0.3,0 0.2,0 0.5,0.1 0.7,0.1 0.1,0 0.1,0 0.2,0.1 0,0 0,0 0,0 0,0 0,0 0.1,0 0,0 0,0 0.1,0 0,0 0,0 0,0 0,0 0,0 0.1,0 0,0 0,0 0,0 0.1,0.1 0.2,0.1 0.3,0.2 0.2,0.1 0.3,0.3 0.4,0.6 0.1,0.3 0.2,0.6 0.2,1 0,0.2 0,0.5 0,0.7 0,0.1 0,0.2 0,0.4 0,0.1 0,0.2 0,0.3 0,0.1 0,0.1 0,0.2 0,0.4 0,0.8 0,1.3 l 0,11.4 c 0,1.2 0,2.3 0,3.3 0,1 0,1.9 0,2.7 0,0.8 -0.1,1.5 -0.1,2 -0.1,0.5 -0.2,1 -0.3,1.2 -0.2,0.3 -0.4,0.5 -0.8,0.5 -0.2,0 -0.4,0.1 -0.6,0.1 -0.2,0 -0.5,0 -0.8,0 -0.2,0 -0.4,0.1 -0.5,0.1 -0.1,0.1 -0.1,0.2 -0.1,0.3 0,0.1 0.1,0.2 0.2,0.3 0.1,0.1 0.3,0.1 0.5,0.1 0,0 0,0 0,0 0.4,0 0.8,0 1.3,0 0.5,0 1,0 1.4,0 0.5,0 0.9,0 1.3,0 0.4,0 0.7,0 0.9,0 0,0 0,0 0.1,0 0.4,0 0.9,0 1.5,0 0.6,0 1.4,0 2.2,0.1 0.2,0 0.3,0 0.5,0 0.1,0 0.1,0 0.2,0 0.2,0 0.4,0 0.6,0 0.3,0 0.7,0 1,0 0,0 0.1,0 0.1,0 0,0 0,0 0,0 0,0 0,0 0.1,0 0.2,0 0.4,0 0.5,-0.1 0.1,-0.1 0.2,-0.2 0.2,-0.3 0,-0.1 0,-0.2 -0.1,-0.3 -0.1,-0.1 -0.2,-0.1 -0.5,-0.1 -0.2,0 -0.4,0 -0.6,0 -0.2,0 -0.5,0 -0.7,0 -0.2,0 -0.4,0 -0.6,-0.1 -0.2,0 -0.4,-0.1 -0.5,-0.1 -0.1,0 -0.2,-0.1 -0.3,-0.2 -0.2,-0.1 -0.4,-0.3 -0.4,-0.6 -0.1,-0.2 -0.2,-0.5 -0.2,-0.9 -0.1,-0.5 -0.1,-1.2 -0.1,-2 0,-0.3 0,-0.5 0,-0.8 0,-0.6 0,-1.3 0,-2 0,-1 0,-2.1 0,-3.2 l 0,-2.8 c 0,-0.1 0,-0.1 0,-0.1 0,0 0,0 0.1,-0.1 0.1,0 0.1,0 0.2,0 l 14.4,0 c 0.1,0 0.1,0 0.1,0.1 0,0 0.1,0.1 0.1,0.2 l 0,2.7 c 0,0.7 0,1.5 0,2.1 0,0.4 0,0.8 0,1.2 0,0 0,0.1 0,0.1 0,0.5 0,1 0,1.4 0,0.4 0,0.9 0,1.3 0,0.8 -0.1,1.5 -0.1,2 -0.1,0.5 -0.2,1 -0.3,1.2 -0.2,0.3 -0.4,0.5 -0.8,0.5 -0.1,0 -0.1,0 -0.2,0 -0.1,0 -0.3,0 -0.4,0.1 0,0 0,0 0,0 -0.2,0 -0.5,0 -0.7,0 -0.2,0 -0.4,0.1 -0.5,0.1 -0.1,0.1 -0.1,0.2 -0.1,0.3 0,0.1 0.1,0.2 0.2,0.3 0,0 0.1,0 0.1,0 0.1,0 0.2,0.1 0.4,0.1 0,0 0,0 0,0 0.4,0 0.8,0 1.3,0 0.5,0 1,0 1.4,0 0.5,0 0.9,0 1.3,0 0.4,0 0.7,0 0.9,0 0,0 0,0 0,0 0.4,0 0.8,0 1.5,0 0.6,0 1.4,0 2.2,0.1 0.2,0 0.4,0 0.6,0 0.6,0 1.3,0 1.9,0 0,0 0,0 0,0 0.2,0 0.4,0 0.5,-0.1 0,0 0,0 0.1,0 0.1,-0.1 0.1,-0.1 0.1,-0.2 -1.1,-0.1 -1.1,-0.2 -1.2,-0.3 -0.1,-0.1 0.1,0.1 0,0 -0.1,-0.1 0.1,0.1 0,0 -0.1,-0.1 0.1,0.1 0,0 -0.1,-0.1 0.1,0.1 0,0 z"
         id="path50"
         inkscape:connector-curvature="0"
         style="fill:#6f6f6f" /><path
         class="st2"
         d="m 311.4,123.8 c 0,0 0,-0.1 0,0 0,-0.1 0,-0.1 0,0 0,-0.1 0,-0.1 0,0 0,-0.1 0,-0.1 0,0 0,-0.1 0,-0.1 0,-0.1 l 0,0 0,0 c 0,0 0,-0.1 -0.1,-0.1 -0.1,-0.1 -0.2,-0.1 -0.3,-0.1 -0.2,0 -0.4,0 -0.6,0 -0.1,0 -0.2,0 -0.3,0 -0.1,0 -0.2,0 -0.3,0 -0.6,0 -1,-0.3 -1.4,-0.5 -0.4,-0.3 -0.7,-0.6 -1,-1.1 -0.1,-0.1 -0.2,-0.3 -0.3,-0.5 0,0 0,0 0,0 -0.2,-0.3 -0.4,-0.7 -0.5,-1.2 l -10,-23.3 c -0.2,-0.4 -0.3,-0.7 -0.4,-0.9 0,0 -0.3,-0.5 -0.8,-0.5 l 0,0 0,0 c -0.3,0 -0.6,0.4 -0.7,0.5 -0.1,0.2 -0.3,0.6 -0.5,1 l -10,23.3 c -0.2,0.4 -0.3,0.8 -0.5,1.2 0,0.1 -0.1,0.1 -0.1,0.2 0,0 0,0 0,0 0,0 0,0 0,0 l 0,0 c 0,0.1 -0.1,0.1 -0.1,0.2 -0.3,0.5 -0.6,0.8 -1,1.1 -0.4,0.3 -0.8,0.5 -1.4,0.5 -0.3,0 -0.4,0 -0.6,0 -0.2,0 -0.4,0 -0.6,0 -0.2,0 -0.3,0 -0.3,0.1 0,0 0,0 0,0 0,0 0,0 0,0 0,0 0,0 0,0 0,0 0,0 0,0 0,0 0,0 0,0 0,0 0,0 0,0 0,0 0,0 0,0 0,0 0,0 0,0 0,0 0,0 0,0.1 0,0.2 0.1,0.3 0.2,0.3 0.1,0.1 0.3,0.1 0.5,0.1 0.2,0 0.4,0 0.6,0 0,0 0,0 0,0 0,0 0,0 0,0 0.2,0 0.4,0 0.6,0 0,0 0.1,0 0.1,0 0.1,0 0.2,0 0.3,0 0.1,0 0.2,0 0.3,0 0.6,0 1.2,0 1.6,-0.1 0.4,0 0.7,0 0.9,0 0.4,0 0.9,0 1.4,0 0.3,0 0.7,0 1,0 0,0 0,0 0,0 0.2,0 0.3,0 0.5,0 0.5,0 1,0 1.4,0 0.2,0 0.3,0 0.4,-0.1 0,0 0.1,-0.1 0.1,-0.1 0,0 0,0 0,0 0,0 0,0 0,0 0,0 0,0 0,0 0,0 0,0 0,-0.1 0,0 0,-0.1 0,-0.1 0,-0.1 0,-0.2 -0.1,-0.3 -0.1,-0.1 -0.2,-0.1 -0.5,-0.1 l -0.6,0 c -0.6,0 -1,-0.1 -1.2,-0.3 -0.2,-0.2 -0.3,-0.4 -0.3,-0.8 0,-0.2 0,-0.5 0.1,-1 0.1,-0.4 0.2,-0.8 0.4,-1.3 l 2,-5 c 0,-0.1 0.1,-0.2 0.1,-0.2 0,0 0.1,0 0.2,0 l 9,0 c 0.1,0 0.2,0 0.2,0 0.1,0 0.1,0.1 0.2,0.2 l 3,7.4 c 0.1,0.2 0.1,0.4 0,0.6 -0.1,0.1 -0.2,0.2 -0.3,0.3 l 0,0 -0.2,0 c -0.1,0 -0.2,0.1 -0.3,0.2 0,0 0,0.1 0,0.1 0,0.1 0,0.1 0,0.2 0,0 0.1,0.1 0.1,0.1 0.1,0.1 0.4,0.1 0.6,0.1 0.4,0 0.9,0 1.4,0 0.1,0 0.3,0 0.4,0 l 0,0 c 0.4,0 0.7,0 1.1,0 0.5,0 1,0 1.4,0 0.1,0 0.4,0 0.9,0 0.4,0 1,0 1.6,0.1 0.4,0 0.9,0 1.4,0 l 0,0 c 0.2,0 0.4,0 0.6,0 0.2,0 0.4,0 0.5,-0.1 0.1,0 0.1,-0.1 0.2,-0.2 0,0 0,0 0,-0.1 0,0.4 0,0.4 0,0.3 0,0 0,0 0,0 0,0 0,0 0,0 z m -13.3,-11 c 0,0 -0.1,0.1 -0.2,0.1 l -7.4,0 c -0.1,0 -0.1,0 -0.1,-0.1 0,0 0,-0.1 0,-0.2 l 3.7,-9.3 c 0,0 0.1,-0.2 0.1,-0.3 0,0 0,0 0,-0.1 0,0 0,0 0.1,0 0,0 0,0 0,0 0,0 0,0 0,0.1 0,0.1 0.1,0.3 0.1,0.3 l 3.6,9.4 c 0.1,0 0.1,0.1 0.1,0.1 z m 9.1,8.5 c 0,0 0,0 0,0 0,0 0,0 0,0 l 0,0 c 0,0 0,0 0,0 z"
         id="path52"
         inkscape:connector-curvature="0"
         style="fill:#6f6f6f" /><path
         class="st2"
         d="m 403.8,119.2 c 0,-0.1 -0.1,-0.1 -0.2,-0.1 -0.1,0 -0.2,0.1 -0.3,0.1 -0.1,0.1 -0.1,0.2 -0.1,0.3 -0.1,0.4 -0.2,0.7 -0.3,1.1 -0.2,0.4 -0.3,0.7 -0.6,1 -0.3,0.4 -0.7,0.6 -1.2,0.8 -0.5,0.2 -1,0.3 -1.6,0.3 -0.6,0 -1.2,0.1 -1.9,0 -1,0 -1.8,0 -2.5,-0.1 -0.7,-0.1 -1.2,-0.2 -1.7,-0.3 -0.4,-0.1 -0.7,-0.3 -0.9,-0.5 -0.2,-0.2 -0.4,-0.6 -0.5,-1.2 -0.1,-0.6 -0.2,-1.5 -0.2,-2.7 0,-1.1 0,-2.6 0,-4.4 l 0,-11.5 c 0,-0.5 0,-1 0,-1.4 0,-0.4 0,-0.7 0,-0.9 0,-0.3 0,-0.5 0,-0.7 0,-0.3 0.1,-0.6 0.1,-0.9 0,-0.1 0,-0.1 0.1,-0.2 0.1,-0.3 0.2,-0.5 0.4,-0.7 0.2,-0.2 0.5,-0.3 0.9,-0.3 0.2,0 0.5,0 0.7,-0.1 0.2,0 0.4,0 0.6,0 0.1,0 0.1,0 0.2,-0.1 0.1,-0.1 0.1,-0.1 0.1,-0.2 0,-0.1 0,-0.2 -0.2,-0.2 -0.1,0 -0.2,-0.1 -0.4,-0.1 -0.2,0 -0.3,0 -0.5,0 -0.2,0 -0.5,0 -0.7,0 -0.5,0 -0.9,0 -1.4,0 -0.4,0 -0.8,0 -1.1,0 0,0 0,0 0,0 -0.3,0 -0.5,0 -0.5,0 0,0 0,0 0,0 -0.1,0 -0.3,0 -0.5,0 0,0 0,0 0,0 -0.3,0 -0.7,0 -1.1,0 -0.5,0 -0.9,0 -1.4,0 -0.2,0 -0.4,0 -0.6,0 -0.2,0 -0.4,0 -0.5,0 0,0 0,0 0,0 -0.2,0 -0.3,0 -0.4,0.1 -0.1,0 -0.2,0.1 -0.2,0.2 0,0.1 0,0.1 0.1,0.2 0.1,0 0.1,0.1 0.2,0.1 0.1,0 0.3,0 0.6,0 0.2,0 0.5,0 0.7,0.1 0.4,0.1 0.7,0.2 0.9,0.3 0.2,0.2 0.3,0.4 0.4,0.7 0,0.1 0,0.1 0.1,0.2 0.1,0.2 0.1,0.5 0.1,0.9 0,0.2 0,0.5 0,0.7 0,0.3 0,0.6 0,0.9 0,0.4 0,0.8 0,1.4 0,0.5 0,1.2 0,2 l 0,9.4 c 0,1.2 0,2.3 0,3.3 0,1 0,1.9 -0.1,2.7 0,0.8 -0.1,1.4 -0.2,2 0,0.4 -0.1,0.7 -0.2,0.9 -0.1,0.3 -0.2,0.5 -0.3,0.7 -0.1,0.2 -0.3,0.3 -0.6,0.3 -0.2,0 -0.4,0.1 -0.6,0.1 -0.2,0 -0.4,0.1 -0.6,0.1 -0.1,0 -0.2,0 -0.2,0.1 0,0.1 -0.1,0.1 -0.1,0.2 0,0.1 0.1,0.2 0.2,0.2 0,0 0,0 0.1,0 0.1,0 0.2,0 0.4,0 0.3,0 0.7,0 1,0 0.4,0 0.8,0 1.2,-0.1 0.4,0 0.7,0 1,0 0.1,0 0.3,0 0.4,0 0.1,0 0.2,0 0.2,0 0,0 0,0 0,0 0,0 0,0 0,0 0,0 0.1,0 0.2,0 0.5,0 1,0 1.6,0 0.7,0 1.5,0 2.3,0.1 0,0 0,0 0,0 0.9,0 1.9,0.1 3,0.1 1.1,0 2.3,0 3.7,0 0.5,0 0.9,0 1.2,0 0.3,0 0.5,-0.1 0.7,-0.1 0.2,-0.1 0.3,-0.2 0.3,-0.3 0.1,-0.1 0.1,-0.3 0.2,-0.5 0.1,-0.3 0.2,-0.6 0.2,-1 0.1,-0.4 0.1,-0.8 0.2,-1.1 0,-0.4 0.1,-0.7 0.1,-1 0,-0.3 0,-0.5 0,-0.6 0,-0.1 0,-0.2 0,-0.3 -0.1,-0.1 0,0.1 0,0 z"
         id="path54"
         inkscape:connector-curvature="0"
         style="fill:#6f6f6f" /><path
         class="st2"
         d="m 426.4,119.2 c 0,-0.1 -0.1,-0.1 -0.2,-0.1 -0.1,0 -0.2,0.1 -0.3,0.1 -0.1,0.1 -0.1,0.2 -0.1,0.3 -0.1,0.4 -0.2,0.7 -0.3,1.1 -0.2,0.4 -0.3,0.7 -0.6,1 -0.3,0.4 -0.7,0.6 -1.2,0.8 -0.5,0.2 -1,0.3 -1.6,0.3 -0.6,0 -1.2,0.1 -1.9,0 -1,0 -1.8,0 -2.5,-0.1 -0.7,-0.1 -1.2,-0.2 -1.7,-0.3 -0.4,-0.1 -0.7,-0.3 -0.9,-0.5 -0.2,-0.2 -0.4,-0.6 -0.5,-1.2 -0.1,-0.6 -0.2,-1.5 -0.2,-2.7 0,-1.1 0,-2.6 0,-4.4 l 0,-11.5 c 0,-0.5 0,-1 0,-1.4 0,-0.4 0,-0.7 0,-0.9 0,-0.3 0,-0.5 0,-0.7 0,-0.3 0.1,-0.6 0.1,-0.9 0,-0.1 0,-0.1 0.1,-0.2 0.1,-0.3 0.2,-0.5 0.4,-0.7 0.2,-0.2 0.5,-0.3 0.9,-0.3 0.2,0 0.5,0 0.7,-0.1 0.2,0 0.4,0 0.6,0 0.1,0 0.1,0 0.2,-0.1 0.1,-0.1 0.1,-0.1 0.1,-0.2 0,-0.1 0,-0.2 -0.2,-0.2 -0.1,0 -0.2,-0.1 -0.4,-0.1 -0.2,0 -0.3,0 -0.5,0 -0.2,0 -0.5,0 -0.7,0 -0.5,0 -0.9,0 -1.4,0 -0.4,0 -0.8,0 -1.1,0 0,0 0,0 0,0 -0.3,0 -0.5,0 -0.5,0 0,0 0,0 0,0 -0.1,0 -0.3,0 -0.5,0 0,0 0,0 0,0 -0.3,0 -0.7,0 -1.1,0 -0.5,0 -0.9,0 -1.4,0 -0.2,0 -0.4,0 -0.6,0 -0.2,0 -0.4,0 -0.5,0 0,0 0,0 0,0 -0.2,0 -0.3,0 -0.4,0.1 -0.1,0 -0.2,0.1 -0.2,0.2 0,0.1 0,0.1 0.1,0.2 0.1,0 0.1,0.1 0.2,0.1 0.1,0 0.3,0 0.6,0 0.2,0 0.5,0 0.7,0.1 0.4,0.1 0.7,0.2 0.9,0.3 0.2,0.2 0.3,0.4 0.4,0.7 0,0.1 0,0.1 0.1,0.2 0.1,0.2 0.1,0.5 0.1,0.9 0,0.2 0,0.5 0,0.7 0,0.3 0,0.6 0,0.9 0,0.4 0,0.8 0,1.4 0,0.5 0,1.2 0,2 l 0,9.4 c 0,1.2 0,2.3 0,3.3 0,1 0,1.9 -0.1,2.7 0,0.8 -0.1,1.4 -0.2,2 -0.1,0.4 -0.1,0.7 -0.2,0.9 -0.1,0.3 -0.2,0.5 -0.3,0.7 -0.1,0.2 -0.3,0.3 -0.6,0.3 -0.2,0 -0.4,0.1 -0.6,0.1 -0.2,0 -0.4,0.1 -0.6,0.1 -0.1,0 -0.2,0 -0.2,0.1 -0.1,0.1 -0.1,0.1 -0.1,0.2 0,0.1 0.1,0.2 0.2,0.2 0,0 0,0 0.1,0 0.1,0 0.2,0 0.4,0 0.3,0 0.7,0 1,0 0.4,0 0.8,0 1.2,-0.1 0.4,0 0.7,0 1,0 0.1,0 0.3,0 0.4,0 0.1,0 0.2,0 0.2,0 0,0 0,0 0,0 0,0 0,0 0,0 0,0 0.1,0 0.2,0 0.5,0 1,0 1.6,0 0.7,0 1.5,0 2.3,0.1 0,0 0,0 0,0 0.9,0 1.9,0.1 3,0.1 1.1,0 2.3,0 3.7,0 0.5,0 0.9,0 1.2,0 0.3,0 0.5,-0.1 0.7,-0.1 0.2,-0.1 0.3,-0.2 0.3,-0.3 0.1,-0.1 0.1,-0.3 0.2,-0.5 0.1,-0.3 0.2,-0.6 0.2,-1 0.1,-0.4 0.1,-0.8 0.2,-1.1 0,-0.4 0.1,-0.7 0.1,-1 0,-0.3 0,-0.5 0,-0.6 0.1,-0.1 0.1,-0.2 0,-0.3 z"
         id="path56"
         inkscape:connector-curvature="0"
         style="fill:#6f6f6f" /></g></g></svg>