<svg xmlns="http://www.w3.org/2000/svg" width="179" height="179" viewBox="0 0 179 179"><g fill="#6f6f6f"><path d="M133.603 139.784v-7.4c-7.9 4.9-19.3.3-18.8-11.2.4-9.5 10.9-14.7 18.8-9.7v-7.2c-13.3-5.2-26.3 5.2-26.3 17.2-.1 13.9 12.5 23.5 26.3 18.3"/><path d="M75.303 141.184v-37.1h-7.3v20l-22.5-21.4v37.3h7.3v-20.7l22.5 21.9z"/><path d="M96.403 114.084c0 2.4-1.7 4.1-3.9 4.4h-5.6v-8.5h5.5c1.7.2 4 1.6 4 4.1m9.6 16.3c0-5.6-3.7-8.4-6.1-9.5 0 0 4.4-2.5 4.3-7.9-.3-7.2-6.9-8.9-9.3-8.9h-15.4v35.9h17.5c4.1 0 9-4.1 9-9.6m-8.1-1c0 3.2-2.8 4.8-4.5 4.8h-6.5v-9.5h6.7c1.5 0 4.3 1.6 4.3 4.7"/><path d="M67.203 59.584l15.4 35.1-31.7-21.7c-7.9-5.3-6.3-14.3-1.9-18.3 6.2-5.2 15-3.3 18.2 4.9"/><path d="M88.203 51.384l-5.6 39.3-15.9-37.3c-3.4-9.3 4.3-15.5 9.4-15.6 6-.7 13.4 3.8 12.1 13.6"/><path d="M112.403 53.184l-15.8 37.5-5-33.8c-.4-5.2 2.8-5.3 4-6.2-.2-.7-1.8-.7-1.8-.7h-3c-.3-8.8 6.6-12.7 12.1-12.2 5.9 0 12.7 7 9.5 15.4"/><path d="M128.503 72.784l-31.7 21.8 14.9-34.7c4.5-10.9 15-8.8 18.8-4.6 4.1 4.1 5.3 12.4-2 17.5"/><path d="M131.803 98.484h-36.6l29.7-20.7c7.3-4.8 15-.4 17.1 5.9 2.1 7-2.7 14.8-10.2 14.8"/><path d="M37.003 83.184c2.8-7.3 10.5-9.9 17.4-5.5l29.7 20.7h-36.1c-7.4.1-13.3-6.8-11-15.2"/></g></svg>