<svg xmlns="http://www.w3.org/2000/svg" width="179" height="179" viewBox="0 0 179 179"><g fill="#6f6f6f"><path d="M55.6 87.6c-5.1 0-5.5-3.9-5.5-5.1 0-1.4.4-3.9 3.6-5.1 3.4-1.2 4.1-1.4 6.4-2.1v-.6c0-1.1 0-1.4-.2-2.1-.4-1.3-1.7-2.2-3.4-2.2s-3.2 1-3.8 2.3l-.9-.6c.6-2.1 2.7-4.2 6.4-4.2 2.6 0 4.3.7 5.4 2.4.8 1.3.9 3 .9 4.9 0 1.6 0 3.4-.1 4.9v2.4c0 1.3.2 2.4 1.3 2.4.5 0 .5-.1.9-.4l.6.7c-1 1.3-2.1 2.4-3.9 2.4-1.5 0-2.5-.7-2.9-1.9-.9.8-2.4 1.9-4.8 1.9zm4.5-9.9c-2.5.8-3.4 1.2-4.1 1.6-1.1.5-1.6 1.6-1.6 3 0 1 .4 2.7 2.8 2.7.8 0 2-.2 3-.9v-6.4h-.1zm-42.1 8.8c0-1.9 0-3.5-.1-5.4h1.1c0 1.2.3 2.1.9 2.7.8.9 2.6 1.4 4.4 1.4 3.6 0 5.3-1.4 5.3-4.3 0-2.5-1.5-3.5-3.7-5l-.3-.2-2.3-1.5c-3.1-2.1-4.7-3.7-4.7-7.1 0-1.6.6-6.9 8.5-6.9 2 0 4.6.2 6.2.5v5.5h-1c0-1.3-.4-2.1-.9-2.6-.8-.8-2.4-1.1-4.2-1.1-4.2 0-4.7 2.1-4.7 3.8 0 2.2 1.1 3 3.6 4.6l2.9 1.9c2.4 1.6 4.7 3.2 4.7 7.2 0 6.8-6.4 7.6-9.1 7.6-2.6-.1-4.6-.4-6.6-1.1zm50.8-17.2c1 .1 2.4 0 3.8-.3 1.2-.2 1.6-.4 2.5-.8l.4.2v1.5c1-.7 2.9-1.8 5.5-1.8 3.4 0 5.6 1.6 6.2 4.5.2.7.2 2.4.2 3.4v5.5c0 3.1.1 4 .7 4.5.3.3 1 .5 1.8.5v.9c-1.2-.1-3.4-.2-4.7-.2-1.7 0-3.7.1-4.7.2v-.9c.9-.1 1.6-.4 1.9-.7.5-.5.6-1.6.7-4v-3.3c0-1.4 0-2.9-.2-4.3-.3-2.4-1.6-3.6-4-3.6-1.7 0-2.7.4-3.5.8v9.9c0 3.1.1 4 .7 4.5.3.3 1 .6 1.8.5v.9c-1.6-.1-3.4-.2-4.6-.2-2.5 0-3.3.1-4.7.2v-.9c.8 0 1.6-.3 2-.8.6-.6.6-2.3.6-5.5v-5.4c0-2.3 0-3.3-.4-3.8-.3-.4-.9-.7-2.2-.7v-.8h.2zm23.4 17.2c.8 0 1.6-.3 2-.8.6-.7.6-2.2.6-5.4v-9.3h-2.5v-1.1c1-.4 1.9-.9 2.5-1.3 0-1.7.1-3.8.3-5 .7-3.9 3.3-5.9 7.5-5.9 1.9 0 3.7.6 4.7 1.6l.1.4-1.9 2.6h-.5c-.6-1.6-1.6-2.5-3.3-2.5-.6 0-1.4.2-1.9.7-.8.8-.9 2-.9 4.4v3.6h4.2v2.3h-4.2v10.4c0 2.5.1 3.7.4 4.2.5.8 2.2.9 3 .9v1c-1.4-.1-3.5-.2-5.1-.2-2.3 0-3.9.1-5.1.2v-.8h.1zm21.7 1.2c-5.7 0-9.2-3.6-9.2-9.6 0-4.7 2.5-10.1 9.6-10.1 5.7 0 9.2 3.6 9.2 9.6 0 4.7-2.5 10.1-9.6 10.1zm.2-17.5c-1.1 0-2 .3-2.7.9-1.5 1.3-2.3 3.6-2.3 6.9 0 1.3.2 7.6 4.9 7.6 1.1 0 2-.3 2.7-.9 1.5-1.3 2.3-3.6 2.3-6.9 0-1.2-.2-7.6-4.9-7.6zm11.3-1c1.3.1 2.7-.1 4.1-.3 1.1-.2 1.8-.4 2.2-.6l.3.2v1.5c.9-.9 2.3-1.7 4.3-1.7 1.5 0 2.5.4 3.3 1.2v.6l-1.6 2.9h-.8c-.5-.9-1.4-1.7-3.1-1.7-.8 0-1.5.2-2.1.6v9.5c0 2.5.1 3.6.4 4.1.5.8 2.1.9 3 .8v1c-1.3-.1-3.5-.2-5.1-.2-1.8 0-3.6 0-5.1.2v-.9c1-.1 1.6-.3 2-.8.6-.7.6-2.2.6-5.4v-5.4c0-2.3 0-3.3-.4-3.8-.3-.4-1-.7-2.2-.7v-1.1h.2zm26.5-10.4c1.1 0 2.6-.2 4.4-.5 1-.2 1.7-.4 2-.5l.3.2c-.2 1.6-.2 5.1-.2 7.5v15.4c0 2.3 0 3.7.4 4.2.3.4 1 .7 2.2.7v1c-1.2 0-2.6.2-4 .4-1 .2-1.7.3-2.1.5l-.5-.2v-1.6c-.9.7-2.8 1.8-5.3 1.8-5.2 0-8.5-3.6-8.5-9.1 0-1.9.4-3.6 1-5.1 1.6-3.4 4.9-5.4 9-5.4 1.5 0 2.9.2 3.7.4v-4c0-2.3 0-3.6-.4-4.1-.3-.4-.6-.6-2.1-.7v-.9h.1zm-.7 26.2c1.3 0 2.2-.2 3.1-.8v-12.6c-.3-.3-1.4-1.3-3.8-1.3-3.7 0-5.4 2.5-5.4 7.7 0 2.2.6 7 6.1 7zm-103 .5c-.6.7-2 2.1-5.1 2.1-2.9 0-4.5-1-5.2-3.4-.3-.9-.3-2.7-.3-3.8 0-3 0-5.4.1-8.2v-1.3h-2.5v-.7c1-.4 1.7-.8 2.4-1.3 1.5-1.1 2.4-2.5 3.5-4.5h.8v4.2h6.4v2.3h-6.4v9.9c0 3 .5 4.6 3.3 4.6 1.3 0 2.2-.4 2.7-.7l.3.8zM138 103.2c-.3 0-.7.1-1 .3-.2.2-.3.4-.3.6 0 .3.1.6.3 1.2l1.8 4.7c.3.7.5 1.3.6 1.7l2.2-6.4c.3-.7.3-.9.3-1.2 0-.2-.1-.3-.2-.5-.2-.2-.6-.3-1-.3v-.7c.3 0 .8 0 1.1.1.2 0 .8.1 1.2.1.8 0 1.9-.1 2.4-.1v.7c-.3 0-1.1-.1-1.7 1.8l-4.6 12.3c-.7 1.8-1.5 4-4.7 4-1.3 0-2.2-.3-2.9-1v-.5l1.1-1.4h.3c.3.7 1 1.1 1.8 1.1 1.5 0 2.1-1.3 3.1-3.9l.3-.7-3.9-10c0-.1-.1-.2-.1-.4-.1-.3-.3-.7-.3-.7-.2-.5-.7-.7-1.2-.7v-.7c.7.1 2 .1 2.7.1.4 0 1.1 0 1.7-.1.3 0 .9 0 1.1-.1v.7h-.1zm-42.8-.2c.8 0 1.7-.1 2.6-.2.7-.1 1.2-.3 1.4-.4l.2.1v1c.6-.5 1.5-1.1 2.8-1.1.9 0 1.6.3 2.1.7v.4l-1 1.9h-.5c-.3-.6-.9-1.1-2-1.1-.5 0-.9.1-1.3.4v6.1c0 1.6.1 2.3.3 2.6.3.5 1.3.6 1.9.5v.7c-.8 0-2.2-.1-3.3-.1-1.2 0-2.3 0-3.3.1v-.6c.7 0 1-.2 1.3-.5.4-.4.4-1.4.4-3.5v-3.4c0-1.5 0-2.1-.2-2.4s-.6-.4-1.4-.4v-.8zm-54 11.7c-3.4 0-5.4-1.1-6.2-3.3-.4-1.2-.4-2.5-.4-3.8v-6.4c0-2-.1-2.3-.5-2.6-.2-.1-.6-.3-1.2-.4v-.7c.8.1 2.1.1 3 .1 1.4 0 2.2 0 3.1-.1v.7c-.5 0-1 .1-1.3.5-.4.4-.4 1.2-.4 3.2v5.7c0 3.4.3 5.6 4.2 5.6 3.8 0 4.1-2.3 4.1-5.7v-6.3c0-2-.1-2.3-.5-2.6-.2-.2-.7-.3-1.2-.4v-.7c.8 0 1.7.1 2.7.1.9 0 1.8 0 2.9-.1v.7c-.6 0-1 .1-1.3.5-.4.4-.4 1.2-.4 3.2v4.8c0 1.5 0 3.3-.5 4.6-.7 2.4-2.7 3.4-6.1 3.4zm23.1-.7c.7-.1 1.1-.1 1.4-.5.4-.4.4-1.4.4-3.5v-3.4c0-1.5 0-2.2-.2-2.5s-.5-.4-1.4-.5v-.7c.5.1 1.7 0 2.8-.2.5-.1 1-.3 1.3-.4l.3.3c-.1.8-.1 2.5-.1 4.8v3.5c0 1.6 0 2.3.3 2.6.2.3.8.5 1.5.6v.6c-.7 0-2-.1-3-.1-1.2 0-2.5 0-3.1.1v-.7h-.2zm3-13.8c-.9 0-1.6-.6-1.6-1.5s.6-1.5 1.6-1.5c.9 0 1.6.6 1.6 1.5s-.7 1.5-1.6 1.5zm48.2 13.8c.7-.1 1.1-.1 1.4-.5.4-.4.4-1.4.4-3.5v-3.4c0-1.5 0-2.2-.2-2.5s-.5-.4-1.4-.5v-.7c.5.1 1.8 0 2.8-.2.5-.1 1-.3 1.3-.4l.3.3c-.1.8-.1 2.5-.1 4.8v3.5c0 1.6.1 2.3.3 2.6.2.3.8.5 1.5.6v.6c-.7 0-2-.1-3-.1-1.2 0-2.5 0-3.1.1v-.7h-.2zm2.9-13.8c-.9 0-1.6-.6-1.6-1.5s.6-1.5 1.6-1.5c.9 0 1.6.6 1.6 1.5.1.9-.6 1.5-1.6 1.5zm-12.7 13.9c0-1.2-.1-2.5-.2-3.2h.8c0 .7.2 1.2.5 1.6.5.6 1.1.8 2.1.8h.1c1.3 0 2-.6 2-1.7 0-.9-.6-1.3-1.5-1.9l-1.7-1.1c-.9-.6-2-1.4-2-3 0-1.4.6-2.4 1.7-3 .7-.4 1.8-.4 2.4-.4 1 0 2.4.1 3.2.3-.1.3-.1 1.2-.1 1.4v1.6h-.8c0-.5-.1-1-.4-1.4s-1-.7-1.9-.7c-1.2 0-1.8.5-1.8 1.5 0 .8.6 1.2 1.2 1.6h.1l1.6 1c1.1.6 2.4 1.4 2.4 3.4 0 3.2-2.9 3.6-4.6 3.6-1 .2-2 0-3.1-.4zm25.4-.7c-.4.4-1.3 1.4-3.3 1.4-1.9 0-2.9-.7-3.3-2.1-.2-.6-.2-1.7-.2-2.4v-6h-1.6v-.5c.6-.2 1.1-.5 1.5-.8.9-.7 1.5-1.6 2.2-2.9h.5v2.7h4.1v1.5h-4v6.3c0 1.9.3 3 2.1 3 .8 0 1.4-.3 1.7-.5l.3.3zm-54.8-10.9c-.2 0-.8 0-1.1.1-.6 0-1.3.1-1.8.1-.9 0-2.2-.1-2.6-.1v.7c.1 0 .8-.1 1.2.7l.3.7c.1.2.1.3.2.4l3.9 9.7 1.2-.2 4.3-9.6.1-.3c.1-.1.1-.3.4-.8s.8-.7 1.2-.7v-.7c-.5 0-1.5.1-2.3.1-.4 0-.8 0-1.2-.1-.3 0-.8 0-1.1-.1v.7c.4 0 .8.2 1 .3.1.1.2.3.2.5 0 .3 0 .5-.3 1.2l-2.3 5.7c-.1-.3-.3-.8-.5-1.4l-1.7-4.3c-.2-.7-.3-.9-.3-1.2 0-.2 0-.3.2-.4.2-.2.6-.4 1-.4v-.6zm-26.4.5c.6 0 1.5 0 2.4-.2.8-.1 1-.2 1.6-.5l.2.1v1c.6-.4 1.8-1.2 3.5-1.2 2.2 0 3.6 1 4 2.9.1.5.2 1.6.2 2.1v3.5c0 2 .1 2.5.4 2.9.2.2.6.3 1.2.3v.6c-.8 0-2.1-.1-3-.1-1.1 0-2.3 0-3 .1v-.5c.6-.1 1-.2 1.2-.4.3-.3.4-1 .5-2.5v-2.1c0-.9 0-1.8-.1-2.7-.2-1.6-1-2.3-2.5-2.3-1.1 0-1.7.2-2.3.5v6.3c0 2 .1 2.5.5 2.9.2.2.7.3 1.2.3v.6c-1-.1-2.2-.1-3-.1-1.6 0-2.1 0-3 .1v-.6c.5 0 1-.2 1.3-.5.4-.4.4-1.4.4-3.5v-3.4c0-1.5 0-2.1-.2-2.4s-.6-.4-1.4-.4v-.8h-.1zm39.4 11.7c-3.6 0-5.6-2.1-5.6-5.9 0-.7.2-6.5 5.7-6.5 1.6 0 3.1.7 3.7 1.8.7 1.1.8 2.3.8 3.3v.6h-7.5c0 .6 0 1.1.1 1.5.4 2.3 1.7 3.4 4 3.4 1.3 0 2.1-.3 2.9-.7l.4.6c-1 1.2-2.7 1.9-4.5 1.9zm-3-8h4.7c0-1.4-.3-3-2.4-3-1.8-.1-2.2 1.7-2.3 3z"/></g></svg>