<svg id="svg2" xmlns="http://www.w3.org/2000/svg" viewBox="0 0 179 179"><defs><style>.cls-1{fill:#6f6f6f;}</style></defs><title>Artboard 1</title><g id="flowRoot2998"><path id="path3062" class="cls-1" d="M51.43,100.44H49.27v5.07h2.25a2.82,2.82,0,0,0,.75-.09,1.78,1.78,0,0,0,.58-.27,1.2,1.2,0,0,0,.37-.44,1.29,1.29,0,0,0,.13-.59,1.17,1.17,0,0,0-.09-.46,1.09,1.09,0,0,0-.23-.35,1.41,1.41,0,0,0-.34-.25,2.25,2.25,0,0,0-.42-.17,1.67,1.67,0,0,0,.29-.16,1.22,1.22,0,0,0,.26-.24,1.17,1.17,0,0,0,.18-.33,1.28,1.28,0,0,0,.07-.44,1.17,1.17,0,0,0-.12-.52,1.1,1.1,0,0,0-.33-.4,1.64,1.64,0,0,0-.52-.25,2.38,2.38,0,0,0-.68-.09Zm-.09,2.26h-1.5V101h1.54a1.34,1.34,0,0,1,.83.22.73.73,0,0,1,.29.61.78.78,0,0,1-.33.68A1.42,1.42,0,0,1,51.34,102.7Zm.2,2.29h-1.7v-1.79h1.6a1.82,1.82,0,0,1,1,.23.73.73,0,0,1,.34.65.78.78,0,0,1-.33.67A1.54,1.54,0,0,1,51.54,105Z"/><path id="path3064" class="cls-1" d="M58.84,105.51l-1.56-2.07a2,2,0,0,0,.55-.17,1.6,1.6,0,0,0,.44-.31,1.3,1.3,0,0,0,.29-.43,1.5,1.5,0,0,0,.1-.57,1.44,1.44,0,0,0-.13-.62,1.37,1.37,0,0,0-.37-.48,1.7,1.7,0,0,0-.58-.31,2.46,2.46,0,0,0-.76-.11H54.65v5.07h.57v-2h1.45l1.47,2ZM58.08,102a1,1,0,0,1-.1.44.94.94,0,0,1-.27.33,1.27,1.27,0,0,1-.41.21,1.79,1.79,0,0,1-.52.07H55.22V101h1.56a1.52,1.52,0,0,1,1,.26A.89.89,0,0,1,58.08,102Z"/><path id="path3066" class="cls-1" d="M64.67,103a2.74,2.74,0,0,0-.18-1,2.49,2.49,0,0,0-1.34-1.4,2.73,2.73,0,0,0-2.11,0,2.52,2.52,0,0,0-.82.58,2.62,2.62,0,0,0-.53.84,2.69,2.69,0,0,0-.19,1,2.74,2.74,0,0,0,.18,1,2.49,2.49,0,0,0,1.34,1.4,2.73,2.73,0,0,0,2.11,0,2.52,2.52,0,0,0,.82-.58,2.62,2.62,0,0,0,.53-.84A2.69,2.69,0,0,0,64.67,103Zm-.59,0a2.22,2.22,0,0,1-.15.81,2.08,2.08,0,0,1-.41.66,1.88,1.88,0,0,1-.63.44,1.94,1.94,0,0,1-.8.16,1.91,1.91,0,0,1-.8-.17,2,2,0,0,1-1-1.11,2.25,2.25,0,0,1-.15-.82,2.22,2.22,0,0,1,.15-.81,2.08,2.08,0,0,1,.41-.66,1.88,1.88,0,0,1,.63-.45,1.94,1.94,0,0,1,.8-.16,1.91,1.91,0,0,1,.8.17,2,2,0,0,1,1,1.11,2.25,2.25,0,0,1,.15.82Z"/><path id="path3068" class="cls-1" d="M68.06,100.41h-.54l-2.31,5.1h.59l.6-1.34h2.76l.59,1.34h.62Zm.88,3.25H66.63l1.16-2.58Z"/><path id="path3070" class="cls-1" d="M76,103a2.54,2.54,0,0,0-.2-1,2.36,2.36,0,0,0-.55-.8,2.57,2.57,0,0,0-.85-.53,3,3,0,0,0-1.09-.19H71.5v5.07h1.76a3,3,0,0,0,1.09-.2,2.62,2.62,0,0,0,.85-.54,2.35,2.35,0,0,0,.55-.81,2.57,2.57,0,0,0,.2-1Zm-.59,0a2.06,2.06,0,0,1-.15.79,1.87,1.87,0,0,1-1.08,1.06,2.38,2.38,0,0,1-.87.15H72.07v-4h1.19a2.33,2.33,0,0,1,.87.16,1.93,1.93,0,0,1,.66.43,1.89,1.89,0,0,1,.42.64,2.1,2.1,0,0,1,.15.79Z"/><path id="path3072" class="cls-1" d="M81.38,104.71l-.38-.37a3.13,3.13,0,0,1-.74.54,2,2,0,0,1-.9.19,1.86,1.86,0,0,1-.78-.16,2,2,0,0,1-.62-.44,2,2,0,0,1-.41-.67,2.27,2.27,0,0,1-.15-.82,2.24,2.24,0,0,1,.15-.82,2,2,0,0,1,.41-.66,2,2,0,0,1,2.29-.41,3.2,3.2,0,0,1,.7.5l.39-.42a3.82,3.82,0,0,0-.39-.33,2.34,2.34,0,0,0-.44-.25,2.59,2.59,0,0,0-.52-.16,3.09,3.09,0,0,0-.63-.06,2.53,2.53,0,0,0-1,.21,2.47,2.47,0,0,0-.81.56A2.62,2.62,0,0,0,77,102a2.83,2.83,0,0,0,0,2,2.53,2.53,0,0,0,.53.83,2.49,2.49,0,0,0,1.82.76,2.8,2.8,0,0,0,.63-.07,2.62,2.62,0,0,0,.53-.18,2.53,2.53,0,0,0,.46-.28,3.62,3.62,0,0,0,.41-.37Z"/><path id="path3074" class="cls-1" d="M84.94,100.41H84.4l-2.31,5.1h.59l.6-1.34H86l.59,1.34h.62Zm.88,3.25H83.5l1.16-2.58Z"/><path id="path3076" class="cls-1" d="M88.5,101.71a.72.72,0,0,1,.08-.33.75.75,0,0,1,.22-.26,1.13,1.13,0,0,1,.34-.17,1.43,1.43,0,0,1,.44-.07,2.17,2.17,0,0,1,.75.13,2.47,2.47,0,0,1,.71.42l.33-.44a3,3,0,0,0-.81-.47,2.77,2.77,0,0,0-1-.16,2,2,0,0,0-.67.1,1.69,1.69,0,0,0-.53.29,1.29,1.29,0,0,0-.35.44,1.26,1.26,0,0,0-.12.56,1.36,1.36,0,0,0,.1.55,1.09,1.09,0,0,0,.31.41,1.88,1.88,0,0,0,.53.3,5.26,5.26,0,0,0,.76.22,5.13,5.13,0,0,1,.65.18,1.44,1.44,0,0,1,.4.21.65.65,0,0,1,.2.26.84.84,0,0,1,.06.32.76.76,0,0,1-.31.63,1.3,1.3,0,0,1-.82.24,2.31,2.31,0,0,1-.93-.18,3,3,0,0,1-.8-.54l-.35.42a3.17,3.17,0,0,0,1,.61,3,3,0,0,0,1.11.2,2.28,2.28,0,0,0,.69-.1,1.62,1.62,0,0,0,.55-.29,1.33,1.33,0,0,0,.49-1,1.13,1.13,0,0,0-.4-.92,3,3,0,0,0-1.25-.52,5,5,0,0,1-.69-.18,1.54,1.54,0,0,1-.42-.22.64.64,0,0,1-.21-.26.87.87,0,0,1-.06-.33Z"/><path id="path3078" class="cls-1" d="M94.93,101h1.7v-.53h-4V101h1.7v4.54h.58Z"/><path id="path3080" class="cls-1" d="M97.61,100.44v5.07h.57v-5.07Z"/><path id="path3082" class="cls-1" d="M103.11,104.5l-3.19-4.06h-.54v5.07h.56v-4.15l3.27,4.15h.46v-5.07h-.56Z"/><path id="path3084" class="cls-1" d="M109.71,104.82v-2h-2.09v.51h1.54v1.26a2.4,2.4,0,0,1-.64.36,2.25,2.25,0,0,1-.82.15,2.08,2.08,0,0,1-.83-.16,1.83,1.83,0,0,1-.63-.44,2,2,0,0,1-.4-.67,2.44,2.44,0,0,1-.14-.84,2.25,2.25,0,0,1,.14-.81,2.1,2.1,0,0,1,.4-.66,1.88,1.88,0,0,1,.61-.45,1.8,1.8,0,0,1,.77-.17,2.54,2.54,0,0,1,.49,0,2.15,2.15,0,0,1,.41.12,2,2,0,0,1,.34.18,2.55,2.55,0,0,1,.3.24l.37-.43a3.55,3.55,0,0,0-.39-.29,2.36,2.36,0,0,0-.43-.21,2.53,2.53,0,0,0-.49-.13,3.61,3.61,0,0,0-.58,0,2.45,2.45,0,0,0-1.84.79,2.62,2.62,0,0,0-.52.84,2.75,2.75,0,0,0-.18,1,2.91,2.91,0,0,0,.18,1,2.38,2.38,0,0,0,1.32,1.39,2.71,2.71,0,0,0,1.07.2,2.85,2.85,0,0,0,1.16-.23A3.26,3.26,0,0,0,109.71,104.82Z"/><path id="path3086" class="cls-1" d="M113.61,101.71a.72.72,0,0,1,.08-.33.75.75,0,0,1,.22-.26,1.13,1.13,0,0,1,.34-.17,1.43,1.43,0,0,1,.44-.07,2.17,2.17,0,0,1,.75.13,2.47,2.47,0,0,1,.71.42l.33-.44a3,3,0,0,0-.81-.47,2.77,2.77,0,0,0-1-.16,2,2,0,0,0-.67.1,1.69,1.69,0,0,0-.53.29,1.29,1.29,0,0,0-.35.44,1.26,1.26,0,0,0-.12.56,1.36,1.36,0,0,0,.1.55,1.09,1.09,0,0,0,.31.41,1.88,1.88,0,0,0,.53.3,5.26,5.26,0,0,0,.76.22,5.13,5.13,0,0,1,.65.18,1.44,1.44,0,0,1,.4.21.65.65,0,0,1,.2.26.84.84,0,0,1,.06.32.76.76,0,0,1-.31.63,1.3,1.3,0,0,1-.82.24,2.31,2.31,0,0,1-.93-.18,3,3,0,0,1-.8-.54l-.35.42a3.17,3.17,0,0,0,1,.61,3,3,0,0,0,1.11.2,2.28,2.28,0,0,0,.69-.1,1.62,1.62,0,0,0,.55-.29,1.33,1.33,0,0,0,.49-1,1.13,1.13,0,0,0-.4-.92,3,3,0,0,0-1.25-.52,5,5,0,0,1-.69-.18,1.54,1.54,0,0,1-.42-.22.64.64,0,0,1-.21-.26.87.87,0,0,1-.06-.33Z"/><path id="path3088" class="cls-1" d="M119.85,103.5l2.11-3.05h-.67L119.57,103l-1.71-2.53h-.69l2.11,3.06v2h.58Z"/><path id="path3090" class="cls-1" d="M123.63,101.71a.72.72,0,0,1,.08-.33.75.75,0,0,1,.22-.26,1.13,1.13,0,0,1,.34-.17,1.43,1.43,0,0,1,.44-.07,2.17,2.17,0,0,1,.75.13,2.47,2.47,0,0,1,.71.42l.33-.44a3,3,0,0,0-.81-.47,2.77,2.77,0,0,0-1-.16,2,2,0,0,0-.67.1,1.69,1.69,0,0,0-.53.29,1.29,1.29,0,0,0-.35.44,1.26,1.26,0,0,0-.12.56,1.36,1.36,0,0,0,.1.55,1.09,1.09,0,0,0,.31.41,1.88,1.88,0,0,0,.53.3,5.26,5.26,0,0,0,.76.22,5.13,5.13,0,0,1,.65.18,1.44,1.44,0,0,1,.4.21.65.65,0,0,1,.2.26.84.84,0,0,1,.06.32.76.76,0,0,1-.31.63,1.3,1.3,0,0,1-.82.24,2.31,2.31,0,0,1-.93-.18,3,3,0,0,1-.8-.54l-.35.42a3.17,3.17,0,0,0,1,.61,3,3,0,0,0,1.11.2,2.28,2.28,0,0,0,.69-.1,1.62,1.62,0,0,0,.55-.29,1.33,1.33,0,0,0,.49-1,1.13,1.13,0,0,0-.4-.92,3,3,0,0,0-1.25-.52,5,5,0,0,1-.69-.18,1.54,1.54,0,0,1-.42-.22.64.64,0,0,1-.21-.26.87.87,0,0,1-.06-.33Z"/><path id="path3092" class="cls-1" d="M129.63,101h1.7v-.53h-4V101H129v4.54h.58Z"/><path id="path3094" class="cls-1" d="M136,100.44h-3.66v5.07H136V105h-3.13v-1.77h2.76v-.52h-2.76V101H136Z"/><path id="path3096" class="cls-1" d="M141.08,101.41v4.1h.57v-5.07h-.58l-1.85,2.76-1.85-2.76h-.58v5.07h.56v-4.1l1.85,2.71h0Z"/><path id="path3098" class="cls-1" d="M142.85,106.14l.09.25a1.09,1.09,0,0,0,.61-.32,1,1,0,0,0,.2-.67v-.65h-.67v.76h.26a.52.52,0,0,1-.09.38A.86.86,0,0,1,142.85,106.14Z"/><path id="path3100" class="cls-1" d="M147.46,100.44v5.07H148v-5.07Z"/><path id="path3102" class="cls-1" d="M153.33,104.5l-3.19-4.06h-.54v5.07h.56v-4.15l3.27,4.15h.46v-5.07h-.56Z"/><path id="path3104" class="cls-1" d="M159.42,104.71l-.38-.37a3.13,3.13,0,0,1-.74.54,2,2,0,0,1-.9.19,1.86,1.86,0,0,1-.78-.16,2,2,0,0,1-.62-.44,2,2,0,0,1-.41-.67,2.27,2.27,0,0,1-.15-.82,2.24,2.24,0,0,1,.15-.82,2,2,0,0,1,.41-.66,2,2,0,0,1,2.29-.41,3.2,3.2,0,0,1,.7.5l.39-.42a3.82,3.82,0,0,0-.39-.33,2.34,2.34,0,0,0-.44-.25,2.59,2.59,0,0,0-.52-.16,3.09,3.09,0,0,0-.63-.06,2.53,2.53,0,0,0-1,.21,2.47,2.47,0,0,0-.81.56,2.62,2.62,0,0,0-.53.84,2.83,2.83,0,0,0,0,2,2.53,2.53,0,0,0,.53.83,2.49,2.49,0,0,0,1.82.76,2.8,2.8,0,0,0,.63-.07,2.62,2.62,0,0,0,.53-.18,2.53,2.53,0,0,0,.46-.28,3.62,3.62,0,0,0,.41-.37Z"/><path id="path3106" class="cls-1" d="M161.1,105.51v-.76h-.67v.76Z"/></g><g id="flowRoot3006"><path id="path3877" class="cls-1" d="M38,78.32V72.61H17.9v5.71h6.85V95.9h6.39V78.32Z"/><path id="path3879" class="cls-1" d="M62.2,85.85V72.61H55.58V85.4c0,4.24-1.75,5.06-4.21,5.06-2.94,0-4.2-2-4.24-5.06V72.61H40.51V85.85c0,7,3.73,10.55,11,10.55,7.85,0,10.74-4.34,10.74-10.55Z"/><path id="path3881" class="cls-1" d="M87.77,95.9l-5.63-8C84,87.47,87,85.54,87,80.83c0-5.55-3.2-8.22-9.06-8.22H66.31V95.9H72.7V89h2.79L80.3,95.9Zm-7.31-14.8C80.46,83,79.07,84,77,84L72.7,84V78.32h4.57C79.62,78.32,80.46,79.43,80.46,81.09Z"/><path id="path3883" class="cls-1" d="M112,95.9V72.61h-6.39V84.43L96.17,72.61H90.05V95.9h6.39V83.28l9.88,12.62Z"/><path id="path3885" class="cls-1" d="M135.26,95.9V90.42H122.93V86.77h11.19v-5H122.93V78.09h12.33V72.61H116.65V95.9Z"/><path id="path9311" class="cls-1" d="M159.92,95.9l-5.63-8c1.85-.45,4.82-2.37,4.82-7.08,0-5.55-3.2-8.22-9.06-8.22h-11.6V95.9h6.39V89h2.79l4.81,6.85Zm-7.31-14.8c0,1.94-1.39,2.9-3.48,2.9l-4.28,0V78.32h4.57C151.77,78.32,152.61,79.43,152.61,81.09Z"/></g></svg>