<svg xmlns="http://www.w3.org/2000/svg" width="179" height="179" viewBox="0 0 179 179"><path fill="#6f6f6f" d="M67.8 73.2l-13.3 22.3v15c1.5 3.6 5.4 4.1 9.1 4.3v2.1h-25.9v-2.1c3.7-.2 8.2-.7 9.4-3.1v-15.5l-13.5-22.8c-2.3-3.9-4.6-5.1-9.1-5.5v-2.1h22.5v2.1c-4.3.2-5.6 1-6.8 2l12.5 21.7 12.3-21.6c-1.3-1-3-1.8-7.2-2.1v-2.1h19.3v2.1c-4.4.2-7.1 1.6-9.3 5.3zm26.3 44.4c-4.3 0-6.4-3-6.6-5.1-2.7 2.9-6.3 5.1-9.6 5.1-4.3 0-8-2.6-8-7.2 0-2.2.6-4.6 1.7-6.4l16-5.8v-5.9c0-3.6-1.7-7.1-5.3-7.1-2.2 0-4.3 2.6-4.4 6.7l-7.2 1.2v-.8c2.4-7.2 10.4-10 14.2-10 7.3 0 10 3.9 9.9 9.8l-.2 16.9c-.1 3.3 1.7 4.1 3.3 4.1 1.3 0 2.6-.8 4.1-2.3v2.3c-2 2-5.1 4.5-7.9 4.5zm-16.1-13.1c-.3 1.3-.6 2.4-.6 4.2 0 2.4 1.4 4.8 4 4.8 2.4 0 3.8-.8 5.9-2.5l.1-10.8c-2 .9-7.1 3.2-9.4 4.3zm24.5 12.4v-1.9c3.6-.2 4.7-1 5.3-2.4v-41.6c0-2.7-.4-3.9-5.9-4.3v-1.6l14.7-3.7.5 1.4-2.3 2.9v46.9c.8 1.6 2.3 2.2 5.6 2.4v1.8h-17.9zm37.1.6c-8.4 0-14.9-6.7-14.9-16 0-11.4 7-19.2 16.9-19.2 7.9 0 12.4 4.5 12.4 11.6v1.4l-21.7-.2c-.2.9-.2 2.3-.2 4.1 0 8.2 5.1 13.6 12 13.6 4.1 0 6.2-1.4 9.4-4.2l1.2 1.8c-4.8 4.4-8.5 7.1-15.1 7.1zm.7-32.7c-4 0-6.8 3.2-7.8 8.3l14.1-.2c0-4.2-2.6-8.1-6.3-8.1z"/></svg>