<svg xmlns="http://www.w3.org/2000/svg" width="179" height="179" viewBox="0 0 179 179"><g fill="#6f6f6f"><path d="M169 49.5h-159.5v80h160v-80h-.5zm-36.2 37.2c1 0 1.9.9 1.9 1.9 0 1.1-.8 1.9-1.9 1.9-1.1 0-1.9-.8-1.9-1.9.1-1 .9-1.9 1.9-1.9zm-100.8 20.9h-2.2l-6.8-.1h-4.6l.1-.7c2-.1 2.6-.6 2.6-2.7v-13.1c0-2.1-.5-2.7-2.6-2.7l-.1-.7 4.3.1 6.8-.1h1.8l.1 4.1-1.1.1c-.2-2.5-.7-2.8-4.7-2.8h-.8999999999999999v7.6h1.2l1.3.1c2.2 0 2.7-.5 2.7-2.6h1c-.1 1.7-.1 2.5-.1 3.4v2.9h-.9c-.1-2-.6-2.4-2.7-2.4h-1.5l-1.1.1v5.9c0 2.4.1 2.5 2.5 2.5 3.1 0 4-.7 4.3-3.4l1.1.1-.5 4.4zm10 .4c-3.7 0-6.1-2.9-6.1-7.2 0-4.5 2.5-7.4 6.5-7.4 1.1 0 2.1.2 3.8.6v3.3l-1.3.1c-.5-2.5-1-3.1-2.6-3.1-2.1 0-3.2 1.8-3.2 5.4 0 4.2 1.3 6.6 3.7 6.6 1.2 0 2.2-.5 3.3-1.7l.4 1c-1.3 1.7-2.6 2.4-4.5 2.4zm14.5 0c-4 0-6.6-2.7-6.8-6.8v-.4c0-4.7 2.5-7.4 6.9-7.4 4 0 6.9 3 6.9 7.3s-2.8 7.3-7 7.3zm22.8-.5c-.8 0-2 .1-3.5.1v-.7c1.4-.2 1.6-.5 1.6-3v-4.2c0-3.5-.6-4.7-2.4-4.7-1.1 0-2 .6-2.6 1.6-.2.4-.4 1.1-.4 1.4v5.9c0 2.5.2 2.8 1.7 3l.1.7c-1.6-.1-2.7-.1-3.5-.1-.8 0-2 .1-3.6.1l.1-.7c1.8 0 2.1-.4 2.1-3v-6.3999999999999995c0-2.6-.3-2.9-2.1-2.9l-.1-.6c2.4-.1 3-.2 5.1-.7l.1 2.5c1.6-1.7 2.8-2.4 4.5-2.4 2.7 0 4.3 1.8 4.3 4.9v6.5c0 1.8.5 2.3 2.2 2.3l.1.7c-1.7-.2-2.9-.3-3.7-.3zm3.2-38c-.1-2.4-.6-2.7-4.2-2.7h-.8v13.7c0 1.9.5 2.4 2.3 2.4v.7h-8.1v-.7c1.9-.1 2.3-.6 2.3-2.4v-13.8h-.9c-3.7 0-4.2.3-4.3 2.7h-.9l.1-3.9c3.4 0 6 .1 7.7.1 1.6 0 4.1 0 7.4-.1l.1 3.9-.7.1zm9.6 38.5c-4 0-6.6-2.7-6.8-6.8v-.4c0-4.7 2.6-7.4 6.9-7.4 4.1 0 6.9 3 6.9 7.3s-2.8 7.3-7 7.3zm4-24.5c-.7 0-1.7.1-3.1.1l.1-.6c1.3-.2 1.5-.5 1.5-2.7v-3.7c0-3.2-.6-4.2-2.2-4.2-.9 0-1.8.6-2.2 1.5-.2.3-.3.6-.4 1v5.6c0 2.3.1 2.5 1.5 2.7l.1.6c-1.4 0-2.5-.1-3.2-.1-.7 0-1.8.1-3.3.1l.1-.6c1.7 0 1.9-.3 1.9-2.7v-11.4c0-2.4-.3-2.7-1.9-2.7l-.1-.6c2.3-.1 2.8-.2 4.9-.6v7.8c1.3-1.4 2.4-2 3.9-2 2.5 0 3.8 1.5 3.8 4.4v5.1c0 2.4.3 2.7 1.9 2.7v.6c-1.4-.3-2.5-.3-3.3-.3zm10.4-12.8c1.9 0 3.3.7 4.2 2.2.6 1.1.8 1.8.8 3.6h-8c.1 3.8 1.5 6 3.8 6 1.4 0 2.5-.6 3.8-2.1l.4.7c-1.6 1.9-3.1 2.8-5.1 2.8-3.5 0-5.9-2.6-5.9-6.3 0-4.2 2.5-6.9 6-6.9zm16.6 36.8c-.8 0-1.9.1-3.5.1l.1-.7c1.5-.2 1.6-.5 1.7-3v-4.2c0-3.5-.6-4.7-2.3-4.7-1 0-2.1.6-2.5 1.6-.1.3-.3.7-.4 1.1 0 .1-.1.3-.1.3v5.9c0 2.5.2 2.8 1.6 3l.1.7c-1.5-.1-2.6-.1-3.3-.1-.7 0-1.8.1-3.3.1l.1-.7c1.5-.2 1.6-.5 1.6-3v-4.2c0-3.5-.6-4.7-2.4-4.7-1.1 0-2 .6-2.5 1.6-.2.4-.4 1.1-.4 1.4v5.9c0 2.5.2 2.8 1.6 3l.1.7c-1.5-.1-2.7-.1-3.5-.1-.8 0-2 .1-3.6.1l.1-.7c1.9 0 2.2-.4 2.2-3v-6.3999999999999995c0-2.6-.3-2.9-2.2-2.9l-.1-.6c2.5-.1 3.1-.2 5.2-.7l.1 2.5c1.6-1.7 2.8-2.4 4.5-2.4 1.9 0 3 .8 3.8 2.6 1.7-1.9 3-2.6 4.7-2.6 2.6 0 4.1 1.8 4.1 4.9v6.5c0 1.8.5 2.3 2.2 2.3l.1.7c-1.8-.2-3-.3-3.8-.3zm9.9 0c-.8 0-2.1.1-3.8.1l.1-.7c1.8 0 2.1-.4 2.1-3v-6.3999999999999995c0-2.6-.3-2.9-2.1-2.9l-.1-.6c2.5-.2 3.1-.3 5.4-.7v10.7c0 2.6.3 3 2.2 3l.1.7c-1.8-.1-3.1-.2-3.9-.2zm11 .5c-1 0-2-.2-3.8-.8l-.1-2.9 1.4-.1c.6 2.2 1.1 2.6 2.6 2.6 1.3 0 2.1-.7 2.1-1.7s-.6-1.7-2.4-2.8c-.9-.6-1.5-1-1.8-1.3-.7-.6-1.3-1.2-1.5-2-.2-.4-.3-.9-.3-1.5 0-2.5 1.7-4.2 4.4-4.2 1 0 1.5.1 3.8.6l.1 2.8-1.4.1c-.3-1.8-.9-2.5-2.2-2.5-1.3 0-2.2.7-2.2 1.7s.5 1.6 1.9 2.5c1.3.9 2.3 1.7 3 2.3.8.8 1.2 1.7 1.2 2.8-.1 2.4-2.1 4.4-4.8 4.4zm16.5-.9c-1 .5-2.3.8-3.6.8-1.2 0-2.4-.7-2.9-1.7-.4-.9-.6-1.7-.6-3.6v-7.1h-1.8v-1.3c2.2-.2 3-1.1 3.7-4h1.3v3.8h3.5l-.4 1.5h-3.1v6.8c0 3.4.5 4.2 2.4 4.2.4 0 .9-.1 1.5-.3v.9zM106.1 71.6c-1.5 0-2.3 1.2-2.5 4 2.3-.1 3-.1 5.3-.4-.4-2.5-1.3-3.6-2.8-3.6zM91.8 94.4c-2 0-3 1.7-3 5.2 0 .4 0 .8.1 1.3.3 4 1.6 6.1 3.7 6.1 2 0 3.2-2.1 3.2-5.6-.1-4.1-1.7-7-4-7zM56.2 94.4c-2 0-3.1 1.7-3.1 5.2 0 .4 0 .8.1 1.3.3 4 1.6 6.1 3.8 6.1 2 0 3.2-2.1 3.2-5.6-.1-4.1-1.7-7-4-7z"/></g></svg>