<?xml version="1.0" encoding="utf-8"?>
<!-- Generator: Adobe Illustrator 20.1.0, SVG Export Plug-In . SVG Version: 6.00 Build 0)  -->
<svg version="1.1" xmlns="http://www.w3.org/2000/svg" xmlns:xlink="http://www.w3.org/1999/xlink" x="0px" y="0px" viewBox="60 70 500 85" style="enable-background:new 60 70 500 85;" xml:space="preserve">
<style type="text/css">
	.st0{display:none;}
	.st1{display:inline;fill:#00467F;}
	.st2{fill:#6f6f6f;}
	.st3{fill-rule:evenodd;clip-rule:evenodd;fill:#6f6f6f;}
</style>
<g
		id="locked" class="st0">
		<path class="st1"
			d="M3.1,211.2c-1.9,0-3.9-0.1-6-0.3c-2.1-0.2-4.4-0.5-6.9-0.9c-1.6-0.3-3.3-1-5.4-2c-2-1.1-4.2-2.7-6.7-5.2
		c-2.5-2.4-5.1-5.9-8-10.5c-2.9-4.6-6-10.6-9.3-18.1c-3.2-7.3-6.9-16.1-11.4-26.2c-4.4-10.2-9.1-21.3-14.1-33.2
		C-69.8,103-75,90.8-80.3,78.3c-5.4-12.5-10.5-24.6-15.5-36.4c-5-11.8-9.7-22.7-13.9-32.7c-4.2-10-7.9-18.4-10.8-25.4
		c-3-6.9-5.1-11.7-6.3-14.5c-1.1-2.5-2.1-4.5-3.1-6.1c-0.9-1.6-1.9-2.7-3-3.4c-1.1-0.8-2.4-1.1-4.1-1.1c-1.7-0.1-3.4,1-5,3.1
		c-1.6,2.1-3.3,5.5-5.2,10.2l-90,209.3c-2.3,5.6-4.6,10.5-7,14.5c-2.4,4.1-5.3,7.4-8.7,9.9c-3.4,2.5-7.6,4.6-12.8,4.9
		c-2.8,0.2-3.3,0.2-5.1,0.3c-1.8,0.1-3.5,0.1-5.1,0.1c-1.4,0-2.3,0.4-3,1c-0.6,0.6-0.9,1.5-0.9,2.5c0,1.4,0.5,2.3,1.5,2.8
		c1.1,0.5,2.6,0.7,4.8,0.7c6.1,0,11.9-0.1,17.5-0.3c5.7-0.2,10.4-0.3,14.5-0.5c4-0.2,6.6-0.3,7.9-0.3c3.7,0,7.8,0.1,12.3,0.3
		c4.4,0.2,8.9,0.3,13.5,0.5c4.5,0.2,8.7,0.3,12.5,0.3c1.8,0,3.1-0.2,4-0.7c1-0.5,1.4-1.4,1.4-2.8c0.1-1-0.3-1.8-0.9-2.5
		c-0.7-0.6-2.1-1-4.2-1h-5.1c-5.2,0-8.8-0.8-10.8-2.5c-2-1.6-2.9-4-2.9-6.9c0-2,0.4-4.9,1.2-8.5c0.8-3.7,2.1-7.6,3.8-11.8l18.4-44.6
		c0.3-1,0.7-1.6,1.1-1.9c0.4-0.3,1.1-0.4,2-0.4h81c0.8,0,1.5,0.1,2.1,0.4c0.6,0.3,1,0.9,1.4,1.9l26.6,66.9c0.7,2,0.7,3.7-0.1,5
		c-0.8,1.4-1.8,2.2-3.1,2.4c-1.7,0.2-2.9,0.6-3.5,1.2c-0.6,0.6-0.9,1.4-0.8,2.4c0.1,1.1,1,1.8,2.7,2.1c1.8,0.3,4.3,0.5,7.4,0.7
		c9.7,0.3,18.8,0.5,27.3,0.5c8.5,0.1,16,0.2,22.7,0.2c6.6,0.1,12,0.1,16.1,0.1c4.2,0,7.4-0.1,9.6-0.3c2.1-0.2,3.6-0.5,4.3-1.1
		c0.7-0.5,1.1-1.2,1-2.1C7.8,212.4,6.2,211.2,3.1,211.2z M-112,115.6c-0.2,0.3-0.7,0.5-1.5,0.5H-180c-0.6,0-1-0.2-1.3-0.6
		c-0.3-0.4-0.3-1,0.1-1.8l33.3-84.1c0.2-0.7,0.4-1.3,0.7-2c0.3-0.6,0.6-1,1.2-1.1c0.4,0.1,0.7,0.5,0.9,1.1c0.3,0.7,0.5,1.4,0.7,2
		l32.5,84.5C-111.8,114.8-111.8,115.3-112,115.6z"
		/>
	</g>
<g id="Layer_1">
		<g>
			<path class="st2"
				d="M252.1,123.8C252.1,123.8,252.1,123.7,252.1,123.8C252.1,123.7,252.1,123.7,252.1,123.8
			C252.1,123.7,252.1,123.7,252.1,123.8C252.1,123.7,252.1,123.7,252.1,123.8c0-0.1,0-0.1,0-0.1l0,0l0,0c0,0,0-0.1-0.1-0.1
			c-0.1-0.1-0.2-0.1-0.3-0.1c-0.2,0-0.4,0-0.6,0c-0.1,0-0.2,0-0.3,0c-0.1,0-0.2,0-0.3,0c-0.6,0-1-0.3-1.4-0.5
			c-0.4-0.3-0.7-0.6-1-1.1c-0.1-0.1-0.2-0.3-0.3-0.5c0,0,0,0,0,0c-0.2-0.3-0.4-0.7-0.5-1.2l-10-23.3c-0.2-0.4-0.3-0.7-0.4-0.9
			c0,0-0.3-0.5-0.8-0.5h0h0c-0.3,0-0.6,0.4-0.7,0.5c-0.1,0.2-0.3,0.6-0.5,1l-10,23.3c-0.2,0.4-0.3,0.8-0.5,1.2
			c0,0.1-0.1,0.1-0.1,0.2v0c0,0,0,0,0,0l0,0c0,0.1-0.1,0.1-0.1,0.2c-0.3,0.5-0.6,0.8-1,1.1c-0.4,0.3-0.8,0.5-1.4,0.5
			c-0.3,0-0.4,0-0.6,0c-0.2,0-0.4,0-0.6,0c-0.2,0-0.3,0-0.3,0.1c0,0,0,0,0,0c0,0,0,0,0,0c0,0,0,0,0,0c0,0,0,0,0,0c0,0,0,0,0,0
			c0,0,0,0,0,0c0,0,0,0,0,0c0,0,0,0,0,0c0,0,0,0,0,0.1c0,0.2,0.1,0.3,0.2,0.3c0.1,0.1,0.3,0.1,0.5,0.1c0.2,0,0.4,0,0.6,0
			c0,0,0,0,0,0c0,0,0,0,0,0c0.2,0,0.4,0,0.6,0c0,0,0.1,0,0.1,0c0.1,0,0.2,0,0.3,0c0.1,0,0.2,0,0.3,0c0.6,0,1.2,0,1.6-0.1
			c0.4,0,0.7,0,0.9,0c0.4,0,0.9,0,1.4,0c0.3,0,0.7,0,1,0c0,0,0,0,0,0c0.2,0,0.3,0,0.5,0c0.5,0,1,0,1.4,0c0.2,0,0.3,0,0.4-0.1
			c0.1,0,0.1-0.1,0.1-0.1c0,0,0,0,0,0c0,0,0,0,0,0c0,0,0,0,0,0c0,0,0,0,0-0.1c0,0,0-0.1,0-0.1c0-0.1,0-0.2-0.1-0.3
			c-0.1-0.1-0.2-0.1-0.5-0.1H229c-0.6,0-1-0.1-1.2-0.3c-0.2-0.2-0.3-0.4-0.3-0.8c0-0.2,0-0.5,0.1-1c0.1-0.4,0.2-0.8,0.4-1.3l2-5
			c0-0.1,0.1-0.2,0.1-0.2c0,0,0.1,0,0.2,0h9c0.1,0,0.2,0,0.2,0c0.1,0,0.1,0.1,0.2,0.2l3,7.4c0.1,0.2,0.1,0.4,0,0.6
			c-0.1,0.1-0.2,0.2-0.3,0.3l0,0l-0.2,0c-0.1,0-0.2,0.1-0.3,0.2c0,0,0,0.1,0,0.1c0,0.1,0,0.1,0,0.2c0,0,0.1,0.1,0.1,0.1
			c0.1,0.1,0.4,0.1,0.6,0.1c0.4,0,0.9,0,1.4,0c0.1,0,0.3,0,0.4,0h0c0.4,0,0.7,0,1.1,0c0.5,0,1,0,1.4,0c0.1,0,0.4,0,0.9,0
			c0.4,0,1,0,1.6,0.1c0.4,0,0.9,0,1.4,0h0c0.2,0,0.4,0,0.6,0c0.2,0,0.4,0,0.5-0.1c0.1,0,0.1-0.1,0.2-0.2c0,0,0,0,0-0.1
			C252.1,123.9,252.1,123.9,252.1,123.8C252.1,123.8,252.1,123.8,252.1,123.8C252.1,123.8,252.1,123.8,252.1,123.8z M238.8,112.8
			c0,0-0.1,0.1-0.2,0.1h-7.4c-0.1,0-0.1,0-0.1-0.1c0,0,0-0.1,0-0.2l3.7-9.3c0,0,0.1-0.2,0.1-0.3c0,0,0,0,0-0.1c0,0,0,0,0.1,0
			c0,0,0,0,0,0c0,0,0,0,0,0.1c0,0.1,0.1,0.3,0.1,0.3l3.6,9.4C238.8,112.7,238.8,112.8,238.8,112.8z M247.9,121.3
			C247.9,121.3,247.9,121.3,247.9,121.3C247.9,121.3,247.9,121.3,247.9,121.3L247.9,121.3C247.9,121.3,247.9,121.3,247.9,121.3z"/>
			<path class="st3"
				d="M71.9,90.6c11.4-5.3,28.6-10,46-10v35.2c0,11.6-12.4,19.8-23,23.5c-10.6-3.7-23-11.9-23-23.5V90.6z
			 M93.5,143.5c-11.9-4.2-26-13.6-26-27.7v-28l2.6-1.2c14.3-6.6,32.1-10.4,47.8-10.4h4.4v39.6c0,14.1-14,23.5-26,27.7l-1.5,0.5
			L93.5,143.5z"/>
			<path class="st2"
				d="M98.6,89.2C98.6,89.2,98.6,89.2,98.6,89.2C98.6,89.2,98.6,89.2,98.6,89.2z"/>
			<path class="st2" d="M98.7,89.1c0,0-0.1,0-0.1,0C98.7,89.2,98.7,89.1,98.7,89.1z"/>
			<path class="st2"
				d="M98.6,89.2C98.6,89.2,98.6,89.2,98.6,89.2C98.6,89.2,98.6,89.2,98.6,89.2z"/>
			<path class="st2"
				d="M102,129.8c-0.1-0.1-0.3-0.1-0.5-0.1c-0.2,0-0.4,0-0.7,0c-0.2,0-0.5,0-0.7,0c-0.2,0-0.5,0-0.7-0.1
			c-0.4-0.1-0.7-0.2-0.9-0.3c-0.2-0.2-0.4-0.4-0.5-0.6c-0.1-0.3-0.2-0.6-0.2-0.9c-0.1-0.6-0.1-1.3-0.1-2.1c0-0.9,0-1.8,0-2.9
			c0-1.1,0-2.3,0-3.5V97.3c-0.3,0-0.7,0-1,0c-1.3,0-2.7,0.1-4,0.4c-0.1,0-0.3,0.1-0.4,0.1v21.4c0,1.3,0,2.4,0,3.5c0,1.1,0,2.1,0,2.9
			c0,0.9-0.1,1.5-0.1,2.1c-0.1,0.6-0.2,1-0.3,1.3c-0.2,0.3-0.5,0.5-0.9,0.6c-0.2,0-0.4,0.1-0.6,0.1c-0.2,0-0.5,0-0.8,0
			c-0.2,0-0.4,0.1-0.5,0.1c-0.1,0.1-0.1,0.2-0.1,0.3c0,0.1,0.1,0.2,0.2,0.3c0.1,0.1,0.3,0.1,0.6,0.1c0.4,0,0.9,0,1.4,0
			c0.5,0,1,0,1.5,0c0.5,0,1,0,1.4,0c0.4,0,0.8,0,1,0c0.4,0,0.9,0,1.6,0c0.7,0,1.5,0,2.3,0.1c0.9,0,1.7,0,2.6,0c0.2,0,0.4,0,0.6-0.1
			c0.1-0.1,0.2-0.2,0.2-0.3C102.2,129.9,102.1,129.8,102,129.8z"/>
			<path class="st2"
				d="M107.4,117.1c-0.1-0.1-0.2-0.2-0.3-0.2c-0.1,0-0.2,0-0.3,0.1c-0.1,0.1-0.1,0.2-0.1,0.4c0,0.3-0.1,0.6-0.3,1
			c-0.1,0.4-0.3,0.8-0.5,1.2c-0.2,0.4-0.5,0.8-0.8,1.1c-0.5,0.5-1.1,0.9-1.8,1.2c-0.6,0.3-1.4,0.4-2.2,0.5c-0.5,0.1-1.1,0.1-1.8,0.1
			c0,0.6,0,1.3,0,1.9c0.5,0,1,0,1.4-0.1c0.9-0.1,1.8-0.1,2.6-0.3c0.8-0.1,1.5-0.3,2.1-0.5c0.2-0.1,0.4-0.2,0.5-0.3
			c0.1-0.1,0.2-0.2,0.3-0.3c0.1-0.1,0.1-0.3,0.2-0.6c0.1-0.3,0.2-0.6,0.3-1c0.1-0.4,0.2-0.8,0.3-1.3c0.1-0.4,0.2-0.9,0.2-1.3
			c0.1-0.4,0.1-0.7,0.2-1c0-0.3,0.1-0.4,0.1-0.5C107.5,117.4,107.5,117.2,107.4,117.1z"/>
			<path class="st2"
				d="M107.3,95c-0.1-0.1-0.2-0.1-0.4-0.1c-0.7,0-1.3-0.1-2-0.2c-0.6-0.1-1.1-0.2-1.7-0.3c-0.1,0-0.3,0-0.4-0.1
			c-0.7-0.1-1.4-0.2-2.1-0.3c-0.2,0-0.4,0-0.5,0c-0.5,0-1-0.1-1.5-0.1c-0.7,0-1.3,0-1.8,0c-2.1,0-3.9,0.2-5.4,0.6
			c-1.6,0.4-2.9,0.9-4,1.5c-1.1,0.6-2.1,1.3-2.9,2.1c-0.9,0.9-1.6,1.8-2.2,2.8c-0.6,1-1.1,1.9-1.4,2.9c-0.3,1-0.6,1.9-0.7,2.7
			c-0.3,2.1-0.2,4,0.2,6.2c0.3,1.4,0.8,2.7,1.5,4c0.7,1.3,1.7,2.6,3,3.7c1.1,0.9,2.2,1.7,3.5,2.3c0.6,0.3,1.3,0.6,2.1,0.8
			c0-0.3,0-0.6,0-0.9c0-0.7,0-1.5,0-2.2c-0.3-0.2-0.6-0.4-0.9-0.6c-1.2-0.9-2.2-1.9-3.1-3.1c-0.9-1.2-1.5-2.5-2-3.9
			c-0.8-2.6-0.8-5.5-0.4-8.2c0.2-1.2,0.6-2.4,1.1-3.4c0.5-1.1,1.3-2.1,2.3-3c0.5-0.5,1.1-0.9,1.8-1.3c0.8-0.4,1.7-0.8,2.9-1
			c1.2-0.3,2.6-0.4,4.4-0.4c1.2,0,2.3,0.1,3.3,0.3c1,0.2,1.9,0.5,2.7,0.8c0.8,0.3,1.4,0.7,1.9,1.1c0.2,0.1,0.3,0.3,0.4,0.4
			c0.1,0.1,0.1,0.2,0.2,0.3c0.2,0.3,0.4,0.7,0.6,1.2c0.2,0.4,0.3,0.9,0.3,1.3c0.1,0.4,0.1,0.7,0.1,0.9c0,0,0,0.1,0,0.1
			c0,0.1,0,0.2,0,0.2c0,0,0,0,0,0l0,0c0,0,0,0,0,0.1c0,0,0,0.1,0,0.1c0,0,0,0,0,0c0,0.1,0.1,0.1,0.2,0.1c0,0,0,0,0,0
			c0.1,0,0.2-0.1,0.3-0.2c0.1-0.1,0.1-0.3,0.2-0.6c0,0,0-0.1,0-0.1c0-0.1,0-0.3,0-0.5c0-0.3,0-0.7,0-1.1c0-0.4,0-0.8,0-1.2
			c0-0.4,0-0.8,0-1.1c0-0.5,0.1-0.9,0.1-1.1c0-0.3,0-0.5,0.1-0.7c0-0.2,0-0.3,0-0.4C107.4,95.2,107.3,95.1,107.3,95z"/>
			<path class="st2"
				d="M100.8,88.2c-0.2,0-0.4-0.1-0.7-0.1c-0.4,0-0.8,0-1.2,0c-0.5,0-1,0-1.5,0c-0.5,0-0.9,0-1.4,0
			c-0.4,0-0.8,0-1,0c-0.1,0-0.1,0-0.2,0c-0.1,0-0.1,0-0.2,0c-0.3,0-0.6,0-1,0c-0.4,0-0.9,0-1.4,0c-0.5,0-1,0-1.5,0
			c-0.4,0-0.8,0-1.2,0c-0.3,0-0.5,0-0.7,0.1c-0.2,0-0.2,0.1-0.2,0.2c0,0.2,0.1,0.3,0.2,0.4c0,0,0,0,0,0c0.1,0.1,0.3,0.1,0.4,0.1
			c0.3,0,0.5,0,0.7,0c0.3,0,0.5,0.1,0.7,0.1c0.3,0.1,0.5,0.2,0.7,0.4c0.2,0.2,0.3,0.4,0.4,0.6c0.1,0.3,0.2,0.6,0.2,1.1
			c0,0.2,0,0.6,0,1c0,0.1,0,0.2,0,0.3l0,0.1c0.9-0.2,1.8-0.2,2.7-0.3c0.6,0,1.3-0.1,1.9-0.1c0.3,0,0.5,0,0.8,0c0,0,0.1,0,0.1,0
			c0-0.2,0-0.8,0-1c0-0.7,0.2-1.2,0.4-1.5c0.1-0.2,0.3-0.3,0.4-0.4c0,0,0,0,0,0c0,0,0,0,0.1,0c0,0,0.1,0,0.1,0
			c0.1,0,0.2-0.1,0.2-0.1c0.2-0.1,0.5-0.1,0.7-0.1c0.2,0,0.5,0,0.7,0c0.2,0,0.3,0,0.4-0.1c0,0,0,0,0,0c0.1-0.1,0.2-0.2,0.2-0.4
			C101,88.3,100.9,88.2,100.8,88.2z"/>
			<path class="st2"
				d="M276.8,117.2c-0.1,0-0.3,0-0.3,0.2c-0.1,0.1-0.1,0.3-0.2,0.6c0,0.2-0.1,0.5-0.3,0.8c-0.1,0.3-0.3,0.6-0.4,0.9
			c-0.2,0.3-0.4,0.6-0.6,0.8c-0.5,0.6-1.1,1-1.7,1.3c-0.6,0.3-1.3,0.5-2.2,0.6c-0.8,0.1-1.8,0.1-2.9,0.1c-1,0-2.1-0.2-3.2-0.5
			c-1.1-0.3-2.2-0.8-3.2-1.5c-1-0.7-2-1.5-2.8-2.6c-0.8-1-1.5-2.2-2-3.6c-0.5-1.4-0.7-3-0.7-4.7c0-1.2,0.1-2.4,0.3-3.6
			c0.2-1.2,0.6-2.3,1.1-3.3c0.5-1,1.2-2,2.2-2.8c0.6-0.5,1.2-0.9,1.9-1.2c0.7-0.3,1.5-0.5,2.3-0.7c0.9-0.1,1.9-0.2,3-0.2
			c1.8,0,3.3,0.2,4.5,0.6c1.3,0.4,2.2,0.9,2.9,1.6c0.5,0.5,0.8,1,1.1,1.6c0.2,0.6,0.4,1.2,0.4,1.8c0,0.2,0,0.4,0.1,0.6
			c0.1,0.1,0.2,0.2,0.3,0.2c0.2,0,0.3-0.1,0.4-0.3c0.1-0.2,0.1-0.4,0.1-0.7c0-0.2,0-0.4,0-0.8c0-0.3,0-0.7,0-1c0-0.4,0-0.8,0-1.1
			c0-0.4,0-0.7,0.1-1c0-0.4,0.1-0.8,0.1-1c0-0.3,0-0.5,0.1-0.6c0-0.2,0-0.3,0-0.4c0-0.1,0-0.2-0.1-0.3c-0.1-0.1-0.2-0.1-0.4-0.2
			c-0.6-0.1-1.2-0.2-1.8-0.3c-0.6-0.1-1.3-0.2-2-0.3c-0.6-0.1-1.1-0.1-1.7-0.2c-0.6-0.1-1.1-0.1-1.8-0.1c-0.6,0-1.3-0.1-2.1-0.1
			c-1.9,0-3.6,0.2-5.1,0.5c-1.5,0.3-2.8,0.8-4,1.3c-1.2,0.6-2.2,1.3-3.1,2.1c-0.9,0.8-1.7,1.7-2.2,2.6c-0.6,0.9-1,1.8-1.4,2.7
			c-0.3,0.9-0.6,1.8-0.7,2.6c-0.1,0.8-0.2,1.5-0.2,2.2c0,1.2,0.1,2.4,0.4,3.7c0.3,1.3,0.8,2.5,1.5,3.8c0.7,1.2,1.7,2.4,2.9,3.4
			c1.2,1,2.4,1.7,3.8,2.3c1.4,0.6,2.8,1,4.4,1.3c1.6,0.3,3.2,0.4,4.9,0.4c0.8,0,1.7,0,2.6-0.1c0.9,0,1.7-0.1,2.4-0.3
			c0.8-0.1,1.4-0.3,1.9-0.5c0.3-0.1,0.5-0.3,0.7-0.4c0.1-0.1,0.2-0.4,0.3-0.7c0.1-0.3,0.2-0.6,0.2-1c0.1-0.4,0.2-0.8,0.2-1.2
			c0.1-0.4,0.1-0.8,0.2-1.2c0.1-0.4,0.1-0.7,0.1-1c0-0.3,0-0.5,0-0.6c0-0.2,0-0.3-0.1-0.4C277,117.3,276.9,117.3,276.8,117.2z"/>
			<path class="st2"
				d="M479.4,110.4c-0.1,0-0.3-0.1-0.5-0.1c-0.3,0-0.7,0-1,0c-0.4,0-0.8,0-1.2,0c-0.4,0-0.7,0-1,0
			c-0.3,0-0.4,0-0.5,0c-0.1,0-0.2,0-0.6,0c-0.3,0-0.7,0-1.1,0c-0.5,0-0.9,0-1.4,0c-0.5,0-1,0-1.4,0c-0.2,0-0.4,0-0.5,0.1
			c-0.1,0-0.1,0.1-0.1,0.3c0,0.1,0,0.1,0.1,0.2c0.1,0.1,0.1,0.1,0.2,0.1c0.1,0,0.3,0,0.4,0c0.2,0,0.3,0,0.5,0c0.2,0,0.3,0,0.4,0
			c0.4,0.1,0.7,0.2,0.9,0.3c0.2,0.1,0.4,0.3,0.5,0.6c0.1,0.3,0.2,0.6,0.2,1.1c0,0.5,0,1.1,0,1.8v6.4c0,0.2,0,0.4-0.1,0.5
			c-0.1,0.1-0.2,0.2-0.3,0.3c-0.1,0.1-0.3,0.2-0.4,0.3c-0.3,0.2-0.7,0.3-1.2,0.4c-0.5,0.1-1,0.2-1.5,0.2c-0.5,0-1,0-1.4,0
			c-1.2,0-2.3-0.1-3.4-0.4c-1.1-0.3-2.2-0.7-3.2-1.2c-1.1-0.6-2.1-1.3-3.1-2.3c-0.3-0.3-0.7-0.8-1.2-1.4c-0.5-0.6-0.9-1.4-1.3-2.2
			c-0.4-0.9-0.8-1.9-1.1-3c-0.3-1.1-0.4-2.3-0.4-3.6c0-1.4,0.2-2.8,0.5-3.9c0.3-1.2,0.8-2.2,1.3-3.1c0.6-0.9,1.2-1.6,2-2.2
			c1-0.7,1.9-1.3,2.9-1.6c0.9-0.3,1.8-0.6,2.7-0.7c0.9-0.1,1.7-0.1,2.4-0.1c1.7,0,3.1,0.2,4.3,0.4c1.2,0.3,2.2,0.6,2.9,1.1
			c0.8,0.4,1.3,0.9,1.6,1.4c0.2,0.3,0.4,0.6,0.5,0.9c0.1,0.3,0.2,0.6,0.3,0.9c0.1,0.3,0.1,0.5,0.1,0.7c0,0.2,0,0.3,0.1,0.4
			c0,0.1,0.1,0.2,0.2,0.2c0.1,0,0.2-0.1,0.3-0.2c0.1-0.1,0.1-0.3,0.1-0.6c0-0.9,0-1.7,0-2.3c0-0.6,0-1.1,0.1-1.5
			c0-0.4,0-0.7,0.1-0.9c0-0.2,0-0.4,0-0.5c0-0.1,0-0.2-0.1-0.2c-0.1-0.1-0.2-0.1-0.4-0.1c-0.3,0-0.7,0-1.1-0.1
			c-0.4,0-0.7-0.1-1.1-0.1c-0.4-0.1-0.7-0.1-0.9-0.2c-0.2,0-0.5-0.1-0.9-0.2c-0.4-0.1-0.9-0.1-1.4-0.2c-0.5-0.1-1.1-0.1-1.7-0.2
			c-0.6-0.1-1.2-0.1-1.8-0.1c-1,0-2,0-3.2,0.1c-1.1,0.1-2.3,0.3-3.5,0.7c-1.2,0.3-2.4,0.8-3.5,1.5c-0.9,0.5-1.7,1.2-2.4,1.9
			c-0.8,0.8-1.4,1.7-2,2.7c-0.6,1-1.1,2.2-1.4,3.4c-0.3,1.3-0.5,2.6-0.5,4.1c0,1.2,0.1,2.3,0.4,3.3c0.2,1.1,0.6,2,1,2.9
			c0.4,0.9,0.9,1.7,1.5,2.5c0.5,0.7,1.1,1.3,1.7,1.8c1.1,0.9,2.2,1.6,3.4,2.1c1.2,0.5,2.3,0.9,3.5,1.2c1.1,0.3,2.2,0.4,3.2,0.5
			c1,0.1,1.9,0.1,2.6,0.1c0.6,0,1.2,0,1.9-0.1c0.7-0.1,1.4-0.1,2.1-0.3c0.7-0.1,1.4-0.3,2.2-0.5c0.7-0.2,1.4-0.5,2-0.8
			c0.2-0.1,0.3-0.2,0.3-0.3c0.1-0.1,0.1-0.3,0.1-0.5c0-0.3,0-0.7,0-1.2v-4.1c0-0.8,0-1.5,0-2.1c0-0.6,0-1.2,0-1.8
			c0-0.6,0.2-1.1,0.4-1.4c0.2-0.3,0.6-0.5,1.1-0.6c0.2,0,0.4-0.1,0.5-0.1c0.2,0,0.3,0,0.4,0c0.1,0,0.1,0,0.2-0.1
			c0.1-0.1,0.1-0.1,0.1-0.2C479.5,110.6,479.5,110.5,479.4,110.4z"/>
			<path class="st2"
				d="M447.6,119.2c-0.1,0-0.2,0-0.2,0.1c-0.1,0.1-0.1,0.2-0.1,0.5c-0.1,0.5-0.2,0.9-0.3,1.2
			c-0.1,0.3-0.3,0.6-0.6,0.8c-0.2,0.2-0.5,0.4-0.8,0.5c-0.3,0.1-0.7,0.2-1.2,0.3c-0.5,0.1-0.9,0.1-1.4,0.1c-0.5,0-0.9,0-1.2,0
			c-0.9,0-1.7,0-2.3-0.1c-0.6-0.1-1.1-0.2-1.4-0.4c-0.3-0.2-0.6-0.5-0.7-0.9c-0.1-0.4-0.2-0.9-0.2-1.5c0-0.2,0-0.4,0-0.8
			c0-0.4,0-0.8,0-1.4c0-0.5,0-1,0-1.6c0-0.5,0-1,0-1.5c0-0.4,0-0.8,0-1.1v-3.1c0-0.1,0-0.1,0.1-0.2c0-0.1,0.1-0.1,0.2-0.1
			c0.1,0,0.4,0,0.8,0c0.4,0,0.8,0,1.3,0c0.5,0,1,0,1.5,0c0.5,0,0.9,0,1.4,0c0.4,0,0.7,0,0.9,0.1c0.5,0.1,0.9,0.1,1.1,0.3
			c0.3,0.1,0.5,0.2,0.6,0.4c0.1,0.1,0.2,0.3,0.2,0.5c0.1,0.2,0.1,0.5,0.2,0.7c0,0.2,0,0.4,0,0.6c0,0.1,0,0.2,0.1,0.3
			c0,0.1,0.1,0.1,0.2,0.1c0.1,0,0.2-0.1,0.3-0.2c0.1-0.1,0.1-0.3,0.1-0.5c0-0.1,0-0.3,0-0.6c0-0.3,0-0.6,0.1-0.9
			c0-0.3,0.1-0.6,0.1-0.9c0-0.6,0.1-1.1,0.2-1.4c0.1-0.3,0.1-0.5,0.1-0.6c0-0.1,0-0.2-0.1-0.2c0-0.1-0.1-0.1-0.2-0.1
			c-0.1,0-0.1,0.1-0.2,0.1c-0.1,0.1-0.2,0.2-0.3,0.3c-0.2,0.2-0.4,0.3-0.7,0.4c-0.3,0.1-0.7,0.1-1.1,0.1c-0.2,0-0.5,0-0.9,0
			c-0.4,0-1,0-1.5,0c-0.6,0-1.1,0-1.7,0c-0.6,0-1,0-1.4,0c-0.4,0-0.7,0-0.8,0c-0.1,0-0.2,0-0.2-0.1c0-0.1,0-0.2,0-0.3v-10
			c0-0.1,0-0.2,0-0.3c0-0.1,0.1-0.1,0.2-0.1c0.1,0,0.3,0,0.7,0c0.4,0,0.8,0,1.3,0c0.5,0,1,0,1.5,0c0.5,0,0.9,0,1.3,0
			c0.4,0,0.6,0,0.8,0.1c0.7,0.1,1.2,0.2,1.6,0.3c0.4,0.1,0.6,0.2,0.8,0.3c0.2,0.1,0.3,0.3,0.4,0.5c0.1,0.2,0.1,0.5,0.2,0.7
			c0,0.2,0,0.4,0,0.6c0,0.2,0,0.3,0.1,0.4c0,0.1,0.1,0.1,0.2,0.1c0.1,0,0.2-0.1,0.2-0.1c0.1-0.1,0.1-0.2,0.1-0.3
			c0-0.1,0-0.3,0.1-0.5c0-0.2,0-0.5,0.1-0.7c0-0.3,0-0.5,0-0.7c0-0.2,0-0.4,0-0.5c0-0.5,0.1-0.9,0.2-1.2c0.1-0.3,0.1-0.4,0.1-0.6
			c0-0.1,0-0.2,0-0.2c0-0.1-0.1-0.1-0.1-0.1c-0.1,0-0.2,0-0.3,0.1c-0.1,0-0.1,0.1-0.3,0.1c-0.2,0-0.4,0.1-0.7,0.1
			c-0.3,0-0.7,0.1-1,0.1c-0.2,0-0.5,0-1,0c-0.5,0-1.1,0-1.7,0c-0.7,0-1.4,0-2.1,0c-0.7,0-1.4,0-2.1,0c-0.6,0-1.2,0-1.6,0
			c-0.4,0-0.7,0-0.7,0c-0.1,0-0.2,0-0.5,0c-0.3,0-0.7,0-1.1,0c-0.4,0-0.9,0-1.4,0c-0.5,0-1,0-1.4,0c-0.2,0-0.4,0-0.5,0.1
			c-0.1,0-0.1,0.1-0.1,0.2c0,0.1,0,0.1,0.1,0.2c0.1,0.1,0.1,0.1,0.2,0.1c0.1,0,0.3,0,0.4,0c0.2,0,0.3,0,0.5,0c0.2,0,0.3,0,0.4,0
			c0.4,0.1,0.7,0.2,1,0.3c0.2,0.2,0.4,0.4,0.4,0.7c0.1,0.3,0.1,0.6,0.2,1.1c0,0.2,0,0.5,0,0.7c0,0.3,0,0.6,0,0.9c0,0.4,0,0.8,0,1.4
			c0,0.5,0,1.2,0,2c0,0.8,0,1.8,0,2.9v6.5c0,1.2,0,2.3,0,3.3c0,1,0,1.9-0.1,2.7c0,0.8-0.1,1.4-0.2,2c-0.1,0.4-0.1,0.7-0.2,1
			c-0.1,0.3-0.2,0.5-0.3,0.7c-0.1,0.2-0.3,0.3-0.6,0.3c-0.2,0-0.4,0.1-0.6,0.1c-0.2,0-0.4,0.1-0.6,0.1c-0.1,0-0.2,0-0.2,0.1
			c0,0.1-0.1,0.1-0.1,0.2c0,0.1,0.1,0.2,0.2,0.2c0.1,0.1,0.3,0.1,0.4,0.1c0.3,0,0.7,0,1.1,0c0.4,0,0.8,0,1.2-0.1c0.4,0,0.8,0,1.1,0
			c0.3,0,0.5,0,0.6,0c0.3,0,0.7,0,1.2,0c0.5,0,1.2,0,2,0.1c0.8,0,1.7,0.1,2.8,0.1c1.1,0,2.4,0.1,3.8,0.1c0.5,0,0.9,0,1.2,0
			c0.3,0,0.5-0.1,0.6-0.2c0.1-0.1,0.3-0.4,0.3-0.7c0.1-0.2,0.1-0.5,0.2-0.8c0.1-0.4,0.1-0.7,0.2-1.1c0.1-0.4,0.1-0.7,0.1-1
			c0-0.3,0-0.5,0-0.6c0-0.1,0-0.3,0-0.4C447.7,119.3,447.7,119.3,447.6,119.2z"/>
			<path class="st2"
				d="M499.2,119.2c-0.1,0-0.2,0-0.2,0.1c-0.1,0.1-0.1,0.2-0.1,0.5c-0.1,0.5-0.2,0.9-0.3,1.2
			c-0.1,0.3-0.3,0.6-0.6,0.8c-0.2,0.2-0.5,0.4-0.8,0.5c-0.3,0.1-0.7,0.2-1.2,0.3c-0.5,0.1-0.9,0.1-1.4,0.1c-0.5,0-0.9,0-1.2,0
			c-0.9,0-1.7,0-2.3-0.1c-0.6-0.1-1.1-0.2-1.4-0.4c-0.3-0.2-0.6-0.5-0.7-0.9c-0.1-0.4-0.2-0.9-0.2-1.5c0-0.2,0-0.4,0-0.8
			c0-0.4,0-0.8,0-1.4c0-0.5,0-1,0-1.6c0-0.5,0-1,0-1.5c0-0.4,0-0.8,0-1.1v-3.1c0-0.1,0-0.1,0.1-0.2c0-0.1,0.1-0.1,0.2-0.1
			c0.1,0,0.4,0,0.8,0c0.4,0,0.8,0,1.3,0c0.5,0,1,0,1.5,0c0.5,0,0.9,0,1.4,0c0.4,0,0.7,0,0.9,0.1c0.5,0.1,0.9,0.1,1.1,0.3
			c0.3,0.1,0.5,0.2,0.6,0.4c0.1,0.1,0.2,0.3,0.2,0.5c0.1,0.2,0.1,0.5,0.2,0.7c0,0.2,0,0.4,0,0.6c0,0.1,0,0.2,0.1,0.3
			c0,0.1,0.1,0.1,0.2,0.1c0.1,0,0.2-0.1,0.3-0.2c0.1-0.1,0.1-0.3,0.1-0.5c0-0.1,0-0.3,0-0.6c0-0.3,0-0.6,0.1-0.9
			c0-0.3,0.1-0.6,0.1-0.9c0-0.6,0.1-1.1,0.2-1.4c0.1-0.3,0.1-0.5,0.1-0.6c0-0.1,0-0.2-0.1-0.2c0-0.1-0.1-0.1-0.2-0.1
			c-0.1,0-0.1,0.1-0.2,0.1c-0.1,0.1-0.2,0.2-0.3,0.3c-0.2,0.2-0.4,0.3-0.7,0.4c-0.3,0.1-0.7,0.1-1.1,0.1c-0.2,0-0.5,0-0.9,0
			c-0.4,0-1,0-1.5,0c-0.6,0-1.1,0-1.7,0c-0.6,0-1,0-1.4,0c-0.4,0-0.7,0-0.8,0c-0.1,0-0.2,0-0.2-0.1c0-0.1,0-0.2,0-0.3v-10
			c0-0.1,0-0.2,0-0.3c0-0.1,0.1-0.1,0.2-0.1c0.1,0,0.3,0,0.7,0c0.4,0,0.8,0,1.3,0c0.5,0,1,0,1.5,0c0.5,0,0.9,0,1.3,0
			c0.4,0,0.6,0,0.8,0.1c0.7,0.1,1.2,0.2,1.6,0.3c0.4,0.1,0.6,0.2,0.8,0.3c0.2,0.1,0.3,0.3,0.4,0.5c0.1,0.2,0.1,0.5,0.2,0.7
			c0,0.2,0,0.4,0,0.6c0,0.2,0,0.3,0.1,0.4c0,0.1,0.1,0.1,0.2,0.1c0.1,0,0.2-0.1,0.2-0.1c0.1-0.1,0.1-0.2,0.1-0.3
			c0-0.1,0-0.3,0.1-0.5c0-0.2,0-0.5,0.1-0.7c0-0.3,0-0.5,0-0.7c0-0.2,0-0.4,0-0.5c0-0.5,0.1-0.9,0.2-1.2c0.1-0.3,0.1-0.4,0.1-0.6
			c0-0.1,0-0.2,0-0.2c0-0.1-0.1-0.1-0.1-0.1c-0.1,0-0.2,0-0.3,0.1c-0.1,0.1-0.1,0.1-0.3,0.1c-0.2,0-0.4,0.1-0.7,0.1
			c-0.3,0-0.7,0.1-1,0.1c-0.2,0-0.5,0-1,0c-0.5,0-1.1,0-1.7,0c-0.7,0-1.4,0-2.1,0c-0.7,0-1.4,0-2.1,0c-0.6,0-1.2,0-1.6,0
			c-0.4,0-0.7,0-0.7,0c-0.1,0-0.2,0-0.5,0c-0.3,0-0.7,0-1.1,0c-0.4,0-0.9,0-1.4,0c-0.5,0-1,0-1.4,0c-0.2,0-0.4,0-0.5,0.1
			c-0.1,0-0.1,0.1-0.1,0.2c0,0.1,0,0.1,0.1,0.2c0.1,0.1,0.1,0.1,0.2,0.1c0.1,0,0.3,0,0.4,0c0.2,0,0.3,0,0.5,0c0.2,0,0.3,0,0.4,0
			c0.4,0.1,0.7,0.2,1,0.3c0.2,0.2,0.4,0.4,0.4,0.7c0.1,0.3,0.1,0.6,0.2,1.1c0,0.2,0,0.5,0,0.7c0,0.3,0,0.6,0,0.9c0,0.4,0,0.8,0,1.4
			c0,0.5,0,1.2,0,2c0,0.8,0,1.8,0,2.9v6.5c0,1.2,0,2.3,0,3.3c0,1,0,1.9-0.1,2.7c0,0.8-0.1,1.4-0.2,2c-0.1,0.4-0.1,0.7-0.2,1
			c-0.1,0.3-0.2,0.5-0.3,0.7c-0.1,0.2-0.3,0.3-0.6,0.3c-0.2,0-0.4,0.1-0.6,0.1c-0.2,0-0.4,0.1-0.6,0.1c-0.1,0-0.2,0-0.2,0.1
			c0,0.1-0.1,0.1-0.1,0.2c0,0.1,0.1,0.2,0.2,0.2c0.1,0.1,0.3,0.1,0.4,0.1c0.3,0,0.7,0,1.1,0c0.4,0,0.8,0,1.2-0.1c0.4,0,0.8,0,1.1,0
			c0.3,0,0.5,0,0.6,0c0.3,0,0.7,0,1.2,0c0.5,0,1.2,0,2,0.1c0.8,0,1.7,0.1,2.8,0.1c1.1,0,2.4,0.1,3.8,0.1c0.5,0,0.9,0,1.2,0
			c0.3,0,0.5-0.1,0.6-0.2c0.1-0.1,0.3-0.4,0.3-0.7c0.1-0.2,0.1-0.5,0.2-0.8c0.1-0.4,0.1-0.7,0.2-1.1c0.1-0.4,0.1-0.7,0.1-1
			c0-0.3,0-0.5,0-0.6c0-0.1,0-0.3,0-0.4C499.4,119.3,499.4,119.3,499.2,119.2z"/>
			<path class="st2"
				d="M378.3,99.5c-1.4-1.2-3-2.1-4.8-2.7c-1.8-0.6-3.8-1-6-1c-1.8,0-3.4,0.2-4.8,0.7c-1.4,0.4-2.7,1-3.8,1.8
			c-1.1,0.7-2.1,1.6-2.9,2.6c-0.8,1-1.5,2-2,3.1c-0.5,1.1-0.9,2.2-1.2,3.3c-0.3,1.1-0.4,2.1-0.4,3.1c0,1.1,0.1,2.2,0.4,3.4
			c0.3,1.1,0.6,2.3,1.2,3.3c0.5,1.1,1.2,2.1,2,3c0.8,0.9,1.8,1.8,2.9,2.5c1.1,0.7,2.4,1.3,3.8,1.7c1.4,0.4,3,0.6,4.7,0.6
			c1.8,0,3.6-0.3,5.1-0.8c1.6-0.5,3-1.2,4.2-2.2c1.3-0.9,2.3-2,3.2-3.3c0.9-1.3,1.6-2.6,2-4.1c0.5-1.5,0.7-3.1,0.7-4.7
			c0-2.2-0.4-4.1-1.2-5.8C380.7,102.1,379.7,100.7,378.3,99.5z M378.2,115.3c-0.3,1.3-0.8,2.4-1.4,3.4c-0.6,0.9-1.2,1.7-2,2.3
			c-0.7,0.6-1.5,1.1-2.3,1.4c-0.8,0.3-1.5,0.6-2.3,0.7c-0.7,0.1-1.4,0.2-2,0.2c-1.7,0-3.3-0.3-4.8-1c-1.5-0.6-2.7-1.6-3.8-2.8
			c-1.1-1.2-1.9-2.7-2.5-4.4c-0.6-1.7-0.9-3.7-0.9-5.8c0-2,0.3-3.8,0.8-5.3c0.5-1.5,1.3-2.8,2.3-3.8c1-1,2.1-1.8,3.5-2.3
			c1.3-0.5,2.8-0.7,4.4-0.7c1.2,0,2.4,0.2,3.5,0.6c1.1,0.4,2.2,0.9,3.1,1.7c1,0.7,1.8,1.6,2.5,2.7c0.7,1.1,1.3,2.3,1.7,3.8
			c0.4,1.4,0.6,3,0.6,4.8C378.7,112.5,378.5,114,378.2,115.3z"/>
			<path class="st2"
				d="M348.3,117.5c-0.1,0-0.2,0-0.3,0.1c-0.1,0.1-0.1,0.2-0.1,0.4c0,0.2-0.1,0.5-0.2,0.9c-0.1,0.4-0.3,0.8-0.5,1.1
			c-0.2,0.4-0.4,0.7-0.7,1c-0.5,0.5-1.1,0.9-1.7,1.1c-0.6,0.2-1.3,0.4-2.1,0.5c-0.8,0.1-1.6,0.1-2.6,0.1c-1.6,0-3.2-0.2-4.6-0.7
			c-1.4-0.5-2.7-1.1-3.8-2c-1.1-0.8-2.1-1.8-2.9-2.9c-0.8-1.1-1.4-2.3-1.9-3.7c-0.4-1.3-0.6-2.7-0.6-4.1c0-1.2,0.1-2.4,0.3-3.6
			c0.2-1.1,0.5-2.2,1-3.2c0.5-1,1.2-2,2.1-2.8c0.4-0.4,1-0.8,1.7-1.2c0.7-0.4,1.6-0.7,2.8-1c1.1-0.2,2.5-0.4,4.1-0.4
			c1.1,0,2.2,0.1,3.2,0.3c1,0.2,1.8,0.4,2.6,0.7c0.7,0.3,1.3,0.7,1.8,1c0.3,0.3,0.6,0.6,0.9,1c0.2,0.4,0.4,0.8,0.6,1.3
			c0.1,0.5,0.2,0.9,0.2,1.4c0,0.3,0,0.5,0.1,0.6c0,0.1,0.1,0.2,0.2,0.2c0.1,0,0.2-0.1,0.3-0.2c0.1-0.1,0.1-0.3,0.2-0.6
			c0-0.1,0-0.3,0-0.6c0-0.3,0-0.6,0-1c0-0.4,0-0.7,0-1.1c0-0.4,0-0.7,0-1c0-0.4,0.1-0.8,0.1-1.1c0-0.3,0-0.5,0.1-0.6
			c0-0.2,0-0.3,0-0.4c0-0.1,0-0.2-0.1-0.3c-0.1-0.1-0.2-0.1-0.4-0.1c-0.6,0-1.3-0.1-1.9-0.2c-0.6-0.1-1.3-0.2-2-0.4
			c-0.6-0.1-1.3-0.2-1.9-0.2c-0.7-0.1-1.3-0.1-1.9-0.1c-0.6,0-1.2,0-1.7,0c-2,0-3.7,0.2-5.1,0.5c-1.5,0.3-2.7,0.8-3.8,1.4
			c-1.1,0.6-2,1.3-2.7,2c-0.8,0.8-1.5,1.7-2.1,2.6c-0.6,0.9-1,1.8-1.3,2.7c-0.3,0.9-0.5,1.8-0.7,2.6c-0.1,0.8-0.2,1.5-0.2,2.2
			c0,1.2,0.1,2.4,0.4,3.7c0.3,1.3,0.7,2.5,1.4,3.8c0.7,1.2,1.6,2.4,2.9,3.5c1,0.9,2.1,1.6,3.3,2.2c1.2,0.6,2.6,1,4.1,1.3
			c1.5,0.3,3.2,0.5,5.2,0.5c0.8,0,1.7,0,2.5-0.1c0.9,0,1.7-0.1,2.4-0.3c0.8-0.1,1.4-0.3,1.9-0.5c0.2-0.1,0.4-0.2,0.5-0.2
			c0.1-0.1,0.2-0.2,0.3-0.3c0.1-0.1,0.1-0.3,0.2-0.5c0.1-0.3,0.2-0.6,0.2-1c0.1-0.4,0.2-0.8,0.2-1.2c0.1-0.4,0.2-0.8,0.2-1.2
			c0.1-0.4,0.1-0.7,0.2-1c0-0.3,0.1-0.4,0.1-0.5c0-0.1,0-0.3-0.1-0.4C348.5,117.6,348.4,117.6,348.3,117.5z"/>
			<path class="st2"
				d="M390,124.1c0.1,0,0.2,0,0.2,0C390.1,124.1,390.1,124.1,390,124.1C390,124.1,390,124.1,390,124.1z"/>
			<path class="st2"
				d="M389.8,124.1c0.1,0,0.2,0,0.2,0c0,0,0,0,0,0C389.9,124.1,389.9,124.1,389.8,124.1z"/>
			<path class="st2"
				d="M152.6,96.9c0.1-0.1,0.1-0.2,0.1-0.3c0,0,0-0.1,0-0.1c0,0,0,0,0-0.1c0,0-0.1-0.1-0.2-0.1
			c-0.1,0-0.4-0.1-0.7-0.1l0,0l0,0c-0.1,0-0.3,0-0.4,0c-0.2,0-0.5,0-0.8,0c-0.4,0-0.7,0-1.1,0c-0.1,0-0.2,0-0.3,0
			c-0.5,0-0.9,0-1.3,0c-0.2,0-0.4,0-0.5,0c-0.2,0-0.3,0-0.4,0c0,0-0.1,0-0.1,0c0,0-0.1,0-0.1,0l0,0c0,0-0.1,0-0.1,0c0,0-0.1,0-0.1,0
			c-0.1,0-0.3,0-0.4,0c-0.2,0-0.3,0-0.5,0c-0.4,0-0.8,0-1.3,0c-0.1,0-0.2,0-0.3,0c-0.4,0-0.7,0-1.1,0c-0.3,0-0.5,0-0.8,0
			c-0.1,0-0.3,0-0.4,0l0,0l0,0c-0.3,0-0.5,0-0.7,0.1c-0.1,0-0.1,0.1-0.2,0.1c0,0,0,0,0,0.1c0,0,0,0.1,0,0.1c0,0,0,0,0,0c0,0,0,0,0,0
			c0,0.1,0,0.1,0,0.2c0,0,0,0,0,0c0,0,0,0,0,0c0,0,0,0,0,0l0,0c0,0,0,0,0,0c0,0,0,0,0.1,0c0,0,0,0,0,0c0.1,0,0.2,0.1,0.3,0.1
			c0,0,0,0,0.1,0c0,0,0,0,0,0c0,0,0,0,0,0c0,0,0,0,0,0c0.1,0,0.2,0,0.3,0c0.1,0,0.1,0,0.2,0c0.1,0,0.2,0,0.3,0
			c0.2,0,0.5,0.1,0.7,0.1c0.1,0,0.1,0,0.2,0.1c0,0,0,0,0,0c0,0,0,0,0.1,0c0,0,0,0,0.1,0c0,0,0,0,0,0c0,0,0,0,0.1,0c0,0,0,0,0,0
			c0.1,0.1,0.2,0.1,0.3,0.2c0.2,0.1,0.3,0.3,0.4,0.6c0.1,0.3,0.2,0.6,0.2,1c0,0.2,0,0.5,0,0.7c0,0.1,0,0.2,0,0.4c0,0.1,0,0.2,0,0.3
			c0,0.1,0,0.1,0,0.2c0,0.4,0,0.8,0,1.3v11.4c0,1.2,0,2.3,0,3.3c0,1,0,1.9,0,2.7c0,0.8-0.1,1.5-0.1,2c-0.1,0.5-0.2,1-0.3,1.2
			c-0.2,0.3-0.4,0.5-0.8,0.5c-0.2,0-0.4,0.1-0.6,0.1c-0.2,0-0.5,0-0.8,0c-0.2,0-0.4,0.1-0.5,0.1c-0.1,0.1-0.1,0.2-0.1,0.3
			c0,0.1,0.1,0.2,0.2,0.3c0.1,0.1,0.3,0.1,0.6,0.1c0.4,0,0.8,0,1.3,0c0.5,0,1,0,1.4,0c0.5,0,0.9,0,1.3,0c0.4,0,0.7,0,0.9,0
			c0.4,0,0.9,0,1.5,0c0.6,0,1.4,0,2.2,0.1c0.8,0,1.6,0,2.5,0c0.2,0,0.4,0,0.5-0.1c0.1-0.1,0.2-0.2,0.2-0.3c0-0.1,0-0.2-0.1-0.3
			c-0.1-0.1-0.2-0.1-0.5-0.1c-0.2,0-0.4,0-0.6,0c-0.2,0-0.5,0-0.7,0c-0.2,0-0.4,0-0.6-0.1c-0.4-0.1-0.7-0.2-0.9-0.3
			c-0.2-0.1-0.4-0.3-0.4-0.6c-0.1-0.2-0.2-0.5-0.2-0.9c-0.1-0.5-0.1-1.2-0.1-2c0-0.8,0-1.7,0-2.8c0-1,0-2.1,0-3.3v-9.4
			c0-0.8,0-1.4,0-2c0-0.5,0-1,0-1.3c0-0.2,0-0.4,0-0.6c0,0,0-0.1,0-0.1c0,0,0,0,0,0c0-0.1,0-0.1,0-0.2c0-0.1,0-0.2,0-0.3
			c0,0,0-0.1,0-0.1c0-0.1,0-0.3,0-0.3c0-0.6,0.1-1.1,0.4-1.4c0.1-0.2,0.2-0.3,0.4-0.4c0,0,0,0,0,0c0,0,0,0,0.1,0c0,0,0,0,0,0
			c0,0,0,0,0.1,0c0,0,0,0,0.1,0c0,0,0,0,0,0c0.1,0,0.1,0,0.2-0.1c0.2-0.1,0.4-0.1,0.7-0.1c0.1,0,0.2,0,0.3,0c0.1,0,0.1,0,0.2,0
			c0.1,0,0.2,0,0.3,0c0,0,0,0,0,0c0,0,0,0,0,0c0,0,0,0,0,0c0,0,0.1,0,0.1,0C152.3,97,152.4,97,152.6,96.9
			C152.5,96.9,152.6,96.9,152.6,96.9"/>
			<path class="st2"
				d="M182.2,100.3c-0.1-0.3-0.1-0.7-0.2-1.1c0-0.3-0.1-0.5-0.1-0.8c0-0.1-0.1-0.3-0.1-0.4c-0.1-0.4-0.1-0.7-0.2-1
			c-0.1-0.3-0.1-0.5-0.1-0.5c0-0.2-0.1-0.3-0.1-0.4c0,0,0-0.1-0.1-0.1c-0.1-0.1-0.2-0.2-0.3-0.2c-0.1,0-0.3,0.1-0.6,0.2
			c-0.2,0.1-0.6,0.2-1.1,0.3c-0.6,0.1-1.2,0.1-1.9,0.1c-0.7,0-1.3,0-2,0h-13.1c-0.6,0-1.3,0-2,0c-0.7,0-1.3-0.1-1.9-0.1
			c-0.5-0.1-0.8-0.2-1.1-0.3c-0.2-0.1-0.4-0.2-0.6-0.2c-0.1,0-0.2,0.1-0.3,0.2c0,0,0,0.1-0.1,0.1c0,0.1-0.1,0.2-0.1,0.4
			c0,0.1-0.1,0.2-0.1,0.5c-0.1,0.3-0.1,0.6-0.2,1c0,0.1-0.1,0.3-0.1,0.4c-0.1,0.3-0.1,0.5-0.1,0.8c-0.1,0.4-0.1,0.8-0.2,1.1
			c-0.1,0.3-0.1,0.5-0.1,0.7c0,0.2,0,0.3,0.1,0.5c0.1,0.1,0.1,0.2,0.3,0.2c0.1,0,0.1,0,0.2,0c0,0,0.1-0.1,0.1-0.1
			c0.1-0.1,0.1-0.2,0.2-0.4c0-0.1,0.1-0.3,0.2-0.5c0.1-0.2,0.2-0.5,0.4-0.7c0.2-0.3,0.4-0.5,0.7-0.7c0.3-0.2,0.7-0.3,1.2-0.3
			c0.4-0.1,0.9-0.1,1.5-0.1c0.1,0,0.2,0,0.3,0l5.5-0.1l0.2,0v15c0,1.1,0,2.2,0,3.2c0,1,0,1.9,0,2.7c0,0.8-0.1,1.5-0.1,2
			c-0.1,0.5-0.2,1-0.3,1.3c-0.2,0.3-0.4,0.5-0.8,0.6c-0.2,0-0.3,0.1-0.6,0.1c-0.2,0-0.5,0-0.8,0c-0.2,0-0.4,0.1-0.5,0.1
			c-0.1,0.1-0.1,0.2-0.1,0.3c0,0.1,0.1,0.2,0.2,0.3c0.1,0,0.2,0.1,0.4,0.1c0.1,0,0.1,0,0.2,0c0.4,0,0.8,0,1.3,0c0.5,0,1,0,1.4,0
			c0.5,0,0.9,0,1.3,0c0.3,0,0.6,0,0.8,0c0,0,0.1,0,0.1,0h0c0,0,0.1,0,0.1,0c0.4,0,0.8,0,1.4,0c0.6,0,1.4,0,2.2,0.1c0.5,0,1,0,1.5,0
			c0.3,0,0.7,0,1,0c0.2,0,0.4,0,0.5-0.1c0.1-0.1,0.2-0.2,0.2-0.3c0-0.1,0-0.2-0.1-0.3c-0.1-0.1-0.3-0.1-0.5-0.1c-0.2,0-0.4,0-0.6,0
			c-0.2,0-0.5,0-0.7,0c-0.2,0-0.4,0-0.6-0.1c-0.4-0.1-0.7-0.2-0.9-0.3c-0.2-0.2-0.3-0.4-0.4-0.7c-0.1-0.3-0.2-0.6-0.2-0.9
			c-0.1-0.5-0.1-1.2-0.1-2c0-0.8-0.1-1.7-0.1-2.7c0-1,0-2.1,0-3.2v-15l5.5,0.1c0.1,0,0.2,0,0.3,0c0.6,0,1.1,0.1,1.5,0.1
			c0.5,0.1,0.9,0.2,1.2,0.3c0.3,0.2,0.5,0.4,0.7,0.7c0.2,0.3,0.3,0.5,0.4,0.7c0.1,0.2,0.2,0.4,0.2,0.5c0,0.2,0.1,0.3,0.2,0.4
			c0,0,0.1,0.1,0.1,0.1c0,0,0.1,0,0.2,0c0.1,0,0.2-0.1,0.3-0.2c0.1-0.1,0.1-0.3,0.1-0.5C182.3,100.8,182.3,100.6,182.2,100.3z"/>
			<path class="st2"
				d="M217.8,123.6c-0.1-0.1-0.2-0.1-0.4-0.1c0,0,0,0,0,0h0c-0.2,0-0.4,0-0.6,0c-0.2,0-0.5,0-0.7,0
			c-0.2,0-0.3,0-0.4,0c-0.1,0-0.1,0-0.2,0c0,0,0,0,0,0c-0.1,0-0.2,0-0.2,0c0,0,0,0,0,0c0,0,0,0,0,0c-0.2-0.1-0.4-0.1-0.6-0.2
			c-0.2-0.1-0.4-0.3-0.4-0.6c-0.1-0.2-0.2-0.5-0.2-0.9c-0.1-0.5-0.1-1.2-0.1-2c0-0.8,0-1.7,0-2.8c0-1,0-2.1,0-3.3v-9.4
			c0-0.8,0-1.4,0-2c0-0.1,0-0.2,0-0.4c0-0.4,0-0.7,0-1c0,0,0,0,0,0c0-0.2,0-0.4,0-0.5c0,0,0-0.1,0-0.1h0c0,0,0,0,0,0
			c0-0.1,0-0.1,0-0.2c0-0.1,0-0.2,0-0.3c0,0,0-0.1,0-0.1c0,0,0,0,0,0c0-0.1,0-0.3,0-0.3c0-0.6,0.1-1.1,0.4-1.4c0,0,0.1-0.1,0.1-0.1
			c0.1-0.1,0.2-0.2,0.3-0.3c0,0,0,0,0,0c0,0,0,0,0.1,0c0,0,0,0,0,0c0,0,0,0,0.1,0c0,0,0,0,0.1,0c0,0,0,0,0,0c0.1,0,0.1,0,0.2-0.1
			c0,0,0.1,0,0.1,0c0.2-0.1,0.4-0.1,0.6-0.1c0.1,0,0.2,0,0.3,0c0,0,0,0,0,0c0.1,0,0.1,0,0.2,0c0.1,0,0.2,0,0.3,0c0,0,0,0,0,0
			c0.2,0,0.5,0,0.6-0.2c0-0.1,0-0.1,0-0.2c0,0,0,0,0,0c0,0,0,0,0,0c0,0,0-0.1,0-0.1c0,0,0,0,0-0.1c0,0,0,0-0.1-0.1
			c0,0-0.1,0-0.1-0.1c-0.1,0-0.4-0.1-0.7-0.1l0,0l0,0c-0.1,0-0.3,0-0.4,0c-0.2,0-0.5,0-0.8,0c-0.4,0-0.7,0-1.1,0c-0.1,0-0.2,0-0.3,0
			c-0.5,0-0.9,0-1.3,0c-0.2,0-0.4,0-0.5,0c-0.2,0-0.3,0-0.4,0c0,0-0.1,0-0.1,0c0,0-0.1,0-0.1,0l0,0c0,0-0.1,0-0.1,0c0,0-0.1,0-0.1,0
			c-0.1,0-0.3,0-0.4,0c-0.2,0-0.3,0-0.5,0c-0.4,0-0.8,0-1.3,0c-0.1,0-0.2,0-0.3,0c-0.4,0-0.7,0-1.1,0c-0.3,0-0.5,0-0.8,0
			c-0.1,0-0.3,0-0.4,0l0,0l0,0c-0.2,0-0.3,0-0.5,0c-0.1,0-0.1,0-0.2,0c-0.1,0-0.1,0.1-0.2,0.1c0,0,0,0,0,0.1c-0.1,0.2,0,0.4,0.2,0.5
			c0.1,0,0.2,0.1,0.3,0.1c0,0,0,0,0.1,0c0,0,0,0,0,0c0,0,0,0,0,0c0,0,0,0,0,0c0.1,0,0.2,0,0.3,0c0.1,0,0.1,0,0.2,0
			c0.1,0,0.2,0,0.3,0c0.2,0,0.5,0.1,0.7,0.1c0.1,0,0.1,0,0.2,0.1c0,0,0,0,0,0c0,0,0,0,0.1,0c0,0,0,0,0.1,0c0,0,0,0,0,0
			c0,0,0,0,0.1,0c0,0,0,0,0,0c0.1,0.1,0.2,0.1,0.3,0.2c0.2,0.1,0.3,0.3,0.4,0.6c0.1,0.3,0.2,0.6,0.2,1c0,0.2,0,0.5,0,0.7
			c0,0.1,0,0.2,0,0.4c0,0.1,0,0.2,0,0.3c0,0.1,0,0.1,0,0.2c0,0.4,0,0.8,0,1.3v5.9c0,0.1,0,0.2-0.1,0.2c-0.1,0-0.1,0.1-0.1,0.1h-14.4
			c-0.1,0-0.1,0-0.2-0.1c0,0,0,0-0.1-0.1c0,0,0-0.1,0-0.1v-4.3c0-0.9,0-1.7,0-2.3c0-0.6,0-1,0-1.4c0-0.4,0-0.7,0.1-1
			c0-0.6,0.2-1.1,0.4-1.4c0.2-0.3,0.5-0.4,0.9-0.5c0.2-0.1,0.4-0.1,0.6-0.1c0.1,0,0.1,0,0.2,0c0,0,0.1,0,0.1,0c0.1,0,0.1,0,0.2,0
			c0.1,0,0.2,0,0.3,0c0,0,0,0,0,0c0,0,0,0,0,0c0,0,0,0,0,0c0,0,0.1,0,0.1,0c0.2,0,0.4-0.1,0.5-0.2c0-0.1,0-0.1,0-0.2c0,0,0,0,0,0
			c0,0,0,0,0,0c0,0,0,0,0,0c0,0,0-0.1,0-0.1c0,0,0,0,0-0.1c0,0-0.1-0.1-0.2-0.1c-0.1,0-0.4-0.1-0.7-0.1l0,0h0c-0.1,0-0.3,0-0.4,0
			c-0.2,0-0.5,0-0.8,0c-0.4,0-0.7,0-1.1,0c-0.1,0-0.2,0-0.3,0c-0.5,0-0.9,0-1.3,0c-0.2,0-0.4,0-0.5,0c-0.2,0-0.3,0-0.4,0
			c0,0-0.1,0-0.1,0c0,0-0.1,0-0.1,0l0,0c0,0-0.1,0-0.1,0c0,0-0.1,0-0.1,0c-0.1,0-0.3,0-0.4,0c-0.2,0-0.3,0-0.5,0c-0.4,0-0.8,0-1.3,0
			c-0.1,0-0.2,0-0.3,0c-0.4,0-0.7,0-1.1,0c-0.3,0-0.5,0-0.8,0c-0.1,0-0.3,0-0.4,0l0,0l0,0c-0.2,0-0.3,0-0.5,0c-0.1,0-0.1,0-0.2,0
			c-0.1,0-0.1,0.1-0.2,0.1c0,0,0,0,0,0.1c0,0,0,0.1,0,0.1c0,0,0,0,0,0c0,0,0,0,0,0c0,0.1,0,0.1,0,0.2c0,0.1,0.1,0.1,0.2,0.2
			c0.1,0,0.2,0.1,0.3,0.1c0,0,0,0,0.1,0c0,0,0,0,0,0c0,0,0,0,0,0c0,0,0,0,0,0c0.1,0,0.2,0,0.3,0c0.1,0,0.1,0,0.2,0
			c0.1,0,0.2,0,0.3,0c0.2,0,0.5,0.1,0.7,0.1c0.1,0,0.1,0,0.2,0.1c0,0,0,0,0,0c0,0,0,0,0.1,0c0,0,0,0,0.1,0c0,0,0,0,0,0
			c0,0,0,0,0.1,0c0,0,0,0,0,0c0.1,0.1,0.2,0.1,0.3,0.2c0.2,0.1,0.3,0.3,0.4,0.6c0.1,0.3,0.2,0.6,0.2,1c0,0.2,0,0.5,0,0.7
			c0,0.1,0,0.2,0,0.4c0,0.1,0,0.2,0,0.3c0,0.1,0,0.1,0,0.2c0,0.4,0,0.8,0,1.3v11.4c0,1.2,0,2.3,0,3.3c0,1,0,1.9,0,2.7
			c0,0.8-0.1,1.5-0.1,2c-0.1,0.5-0.2,1-0.3,1.2c-0.2,0.3-0.4,0.5-0.8,0.5c-0.2,0-0.4,0.1-0.6,0.1c-0.2,0-0.5,0-0.8,0
			c-0.2,0-0.4,0.1-0.5,0.1c-0.1,0.1-0.1,0.2-0.1,0.3c0,0.1,0.1,0.2,0.2,0.3c0.1,0.1,0.3,0.1,0.5,0.1c0,0,0,0,0,0c0.4,0,0.8,0,1.3,0
			c0.5,0,1,0,1.4,0c0.5,0,0.9,0,1.3,0c0.4,0,0.7,0,0.9,0c0,0,0,0,0.1,0c0.4,0,0.9,0,1.5,0c0.6,0,1.4,0,2.2,0.1c0.2,0,0.3,0,0.5,0
			c0.1,0,0.1,0,0.2,0c0.2,0,0.4,0,0.6,0c0.3,0,0.7,0,1,0c0,0,0.1,0,0.1,0c0,0,0,0,0,0c0,0,0,0,0.1,0c0.2,0,0.4,0,0.5-0.1
			c0.1-0.1,0.2-0.2,0.2-0.3c0-0.1,0-0.2-0.1-0.3c-0.1-0.1-0.2-0.1-0.5-0.1c-0.2,0-0.4,0-0.6,0c-0.2,0-0.5,0-0.7,0
			c-0.2,0-0.4,0-0.6-0.1c-0.2,0-0.4-0.1-0.5-0.1c-0.1,0-0.2-0.1-0.3-0.2c-0.2-0.1-0.4-0.3-0.4-0.6c-0.1-0.2-0.2-0.5-0.2-0.9
			c-0.1-0.5-0.1-1.2-0.1-2c0-0.3,0-0.5,0-0.8c0-0.6,0-1.3,0-2c0-1,0-2.1,0-3.2v-2.8c0-0.1,0-0.1,0-0.1c0,0,0,0,0.1-0.1
			c0.1,0,0.1,0,0.2,0h14.4c0.1,0,0.1,0,0.1,0.1c0,0,0.1,0.1,0.1,0.2v2.7c0,0.7,0,1.5,0,2.1c0,0.4,0,0.8,0,1.2c0,0,0,0.1,0,0.1
			c0,0.5,0,1,0,1.4c0,0.4,0,0.9,0,1.3c0,0.8-0.1,1.5-0.1,2c-0.1,0.5-0.2,1-0.3,1.2c-0.2,0.3-0.4,0.5-0.8,0.5c-0.1,0-0.1,0-0.2,0
			c-0.1,0-0.3,0-0.4,0.1c0,0,0,0,0,0c-0.2,0-0.5,0-0.7,0c-0.2,0-0.4,0.1-0.5,0.1c-0.1,0.1-0.1,0.2-0.1,0.3c0,0.1,0.1,0.2,0.2,0.3
			c0,0,0.1,0,0.1,0c0.1,0,0.2,0.1,0.4,0.1c0,0,0,0,0,0c0.4,0,0.8,0,1.3,0c0.5,0,1,0,1.4,0c0.5,0,0.9,0,1.3,0c0.4,0,0.7,0,0.9,0
			c0,0,0,0,0,0c0.4,0,0.8,0,1.5,0c0.6,0,1.4,0,2.2,0.1c0.2,0,0.4,0,0.6,0c0.6,0,1.3,0,1.9,0c0,0,0,0,0,0c0.2,0,0.4,0,0.5-0.1
			c0,0,0,0,0.1,0c0.1-0.1,0.1-0.1,0.1-0.2C217.9,123.8,217.9,123.7,217.8,123.6C217.7,123.5,217.9,123.7,217.8,123.6
			C217.7,123.5,217.9,123.7,217.8,123.6C217.7,123.5,217.9,123.7,217.8,123.6C217.7,123.5,217.9,123.7,217.8,123.6z"/>
			<path class="st2"
				d="M311.4,123.8C311.4,123.8,311.4,123.7,311.4,123.8C311.4,123.7,311.4,123.7,311.4,123.8
			C311.4,123.7,311.4,123.7,311.4,123.8C311.4,123.7,311.4,123.7,311.4,123.8c0-0.1,0-0.1,0-0.1h0l0,0c0,0,0-0.1-0.1-0.1
			c-0.1-0.1-0.2-0.1-0.3-0.1c-0.2,0-0.4,0-0.6,0c-0.1,0-0.2,0-0.3,0c-0.1,0-0.2,0-0.3,0c-0.6,0-1-0.3-1.4-0.5
			c-0.4-0.3-0.7-0.6-1-1.1c-0.1-0.1-0.2-0.3-0.3-0.5c0,0,0,0,0,0c-0.2-0.3-0.4-0.7-0.5-1.2l-10-23.3c-0.2-0.4-0.3-0.7-0.4-0.9
			c0,0-0.3-0.5-0.8-0.5h0h0c-0.3,0-0.6,0.4-0.7,0.5c-0.1,0.2-0.3,0.6-0.5,1l-10,23.3c-0.2,0.4-0.3,0.8-0.5,1.2
			c0,0.1-0.1,0.1-0.1,0.2c0,0,0,0,0,0c0,0,0,0,0,0l0,0c0,0.1-0.1,0.1-0.1,0.2c-0.3,0.5-0.6,0.8-1,1.1c-0.4,0.3-0.8,0.5-1.4,0.5
			c-0.3,0-0.4,0-0.6,0c-0.2,0-0.4,0-0.6,0c-0.2,0-0.3,0-0.3,0.1c0,0,0,0,0,0c0,0,0,0,0,0c0,0,0,0,0,0c0,0,0,0,0,0c0,0,0,0,0,0
			c0,0,0,0,0,0c0,0,0,0,0,0c0,0,0,0,0,0c0,0,0,0,0,0.1c0,0.2,0.1,0.3,0.2,0.3c0.1,0.1,0.3,0.1,0.5,0.1c0.2,0,0.4,0,0.6,0
			c0,0,0,0,0,0c0,0,0,0,0,0c0.2,0,0.4,0,0.6,0c0,0,0.1,0,0.1,0c0.1,0,0.2,0,0.3,0c0.1,0,0.2,0,0.3,0c0.6,0,1.2,0,1.6-0.1
			c0.4,0,0.7,0,0.9,0c0.4,0,0.9,0,1.4,0c0.3,0,0.7,0,1,0c0,0,0,0,0,0c0.2,0,0.3,0,0.5,0c0.5,0,1,0,1.4,0c0.2,0,0.3,0,0.4-0.1
			c0,0,0.1-0.1,0.1-0.1c0,0,0,0,0,0c0,0,0,0,0,0c0,0,0,0,0,0c0,0,0,0,0-0.1c0,0,0-0.1,0-0.1c0-0.1,0-0.2-0.1-0.3
			c-0.1-0.1-0.2-0.1-0.5-0.1h-0.6c-0.6,0-1-0.1-1.2-0.3c-0.2-0.2-0.3-0.4-0.3-0.8c0-0.2,0-0.5,0.1-1c0.1-0.4,0.2-0.8,0.4-1.3l2-5
			c0-0.1,0.1-0.2,0.1-0.2c0,0,0.1,0,0.2,0h9c0.1,0,0.2,0,0.2,0c0.1,0,0.1,0.1,0.2,0.2l3,7.4c0.1,0.2,0.1,0.4,0,0.6
			c-0.1,0.1-0.2,0.2-0.3,0.3h0l-0.2,0c-0.1,0-0.2,0.1-0.3,0.2c0,0,0,0.1,0,0.1c0,0.1,0,0.1,0,0.2c0,0,0.1,0.1,0.1,0.1
			c0.1,0.1,0.4,0.1,0.6,0.1c0.4,0,0.9,0,1.4,0c0.1,0,0.3,0,0.4,0h0c0.4,0,0.7,0,1.1,0c0.5,0,1,0,1.4,0c0.1,0,0.4,0,0.9,0
			c0.4,0,1,0,1.6,0.1c0.4,0,0.9,0,1.4,0h0c0.2,0,0.4,0,0.6,0c0.2,0,0.4,0,0.5-0.1c0.1,0,0.1-0.1,0.2-0.2c0,0,0,0,0-0.1
			C311.4,123.9,311.4,123.9,311.4,123.8C311.4,123.8,311.4,123.8,311.4,123.8C311.4,123.8,311.4,123.8,311.4,123.8z M298.1,112.8
			c0,0-0.1,0.1-0.2,0.1h-7.4c-0.1,0-0.1,0-0.1-0.1c0,0,0-0.1,0-0.2l3.7-9.3c0,0,0.1-0.2,0.1-0.3c0,0,0,0,0-0.1c0,0,0,0,0.1,0
			c0,0,0,0,0,0c0,0,0,0,0,0.1c0,0.1,0.1,0.3,0.1,0.3l3.6,9.4C298.1,112.7,298.1,112.8,298.1,112.8z M307.2,121.3
			C307.2,121.3,307.2,121.3,307.2,121.3C307.2,121.3,307.2,121.3,307.2,121.3L307.2,121.3C307.2,121.3,307.2,121.3,307.2,121.3z"/>
			<path class="st2"
				d="M403.8,119.2c0-0.1-0.1-0.1-0.2-0.1c-0.1,0-0.2,0.1-0.3,0.1c-0.1,0.1-0.1,0.2-0.1,0.3
			c-0.1,0.4-0.2,0.7-0.3,1.1c-0.2,0.4-0.3,0.7-0.6,1c-0.3,0.4-0.7,0.6-1.2,0.8c-0.5,0.2-1,0.3-1.6,0.3c-0.6,0-1.2,0.1-1.9,0
			c-1,0-1.8,0-2.5-0.1c-0.7-0.1-1.2-0.2-1.7-0.3c-0.4-0.1-0.7-0.3-0.9-0.5c-0.2-0.2-0.4-0.6-0.5-1.2c-0.1-0.6-0.2-1.5-0.2-2.7
			c0-1.1,0-2.6,0-4.4V102c0-0.5,0-1,0-1.4c0-0.4,0-0.7,0-0.9c0-0.3,0-0.5,0-0.7c0-0.3,0.1-0.6,0.1-0.9c0-0.1,0-0.1,0.1-0.2
			c0.1-0.3,0.2-0.5,0.4-0.7c0.2-0.2,0.5-0.3,0.9-0.3c0.2,0,0.5,0,0.7-0.1c0.2,0,0.4,0,0.6,0c0.1,0,0.1,0,0.2-0.1
			c0.1-0.1,0.1-0.1,0.1-0.2c0-0.1,0-0.2-0.2-0.2c-0.1,0-0.2-0.1-0.4-0.1c-0.2,0-0.3,0-0.5,0c-0.2,0-0.5,0-0.7,0c-0.5,0-0.9,0-1.4,0
			c-0.4,0-0.8,0-1.1,0c0,0,0,0,0,0c-0.3,0-0.5,0-0.5,0c0,0,0,0,0,0c-0.1,0-0.3,0-0.5,0c0,0,0,0,0,0c-0.3,0-0.7,0-1.1,0
			c-0.5,0-0.9,0-1.4,0c-0.2,0-0.4,0-0.6,0c-0.2,0-0.4,0-0.5,0c0,0,0,0,0,0c-0.2,0-0.3,0-0.4,0.1c-0.1,0-0.2,0.1-0.2,0.2
			c0,0.1,0,0.1,0.1,0.2c0.1,0,0.1,0.1,0.2,0.1c0.1,0,0.3,0,0.6,0c0.2,0,0.5,0,0.7,0.1c0.4,0.1,0.7,0.2,0.9,0.3
			c0.2,0.2,0.3,0.4,0.4,0.7c0,0.1,0,0.1,0.1,0.2c0.1,0.2,0.1,0.5,0.1,0.9c0,0.2,0,0.5,0,0.7c0,0.3,0,0.6,0,0.9c0,0.4,0,0.8,0,1.4
			c0,0.5,0,1.2,0,2v9.4c0,1.2,0,2.3,0,3.3c0,1,0,1.9-0.1,2.7c0,0.8-0.1,1.4-0.2,2c0,0.4-0.1,0.7-0.2,0.9c-0.1,0.3-0.2,0.5-0.3,0.7
			c-0.1,0.2-0.3,0.3-0.6,0.3c-0.2,0-0.4,0.1-0.6,0.1c-0.2,0-0.4,0.1-0.6,0.1c-0.1,0-0.2,0-0.2,0.1c0,0.1-0.1,0.1-0.1,0.2
			c0,0.1,0.1,0.2,0.2,0.2c0,0,0,0,0.1,0c0.1,0,0.2,0,0.4,0c0.3,0,0.7,0,1,0c0.4,0,0.8,0,1.2-0.1c0.4,0,0.7,0,1,0c0.1,0,0.3,0,0.4,0
			c0.1,0,0.2,0,0.2,0c0,0,0,0,0,0c0,0,0,0,0,0c0,0,0.1,0,0.2,0c0.5,0,1,0,1.6,0c0.7,0,1.5,0,2.3,0.1c0,0,0,0,0,0
			c0.9,0,1.9,0.1,3,0.1c1.1,0,2.3,0,3.7,0c0.5,0,0.9,0,1.2,0c0.3,0,0.5-0.1,0.7-0.1c0.2-0.1,0.3-0.2,0.3-0.3
			c0.1-0.1,0.1-0.3,0.2-0.5c0.1-0.3,0.2-0.6,0.2-1c0.1-0.4,0.1-0.8,0.2-1.1c0-0.4,0.1-0.7,0.1-1c0-0.3,0-0.5,0-0.6
			C403.8,119.4,403.8,119.3,403.8,119.2C403.7,119.1,403.8,119.3,403.8,119.2z"/>
			<path class="st2"
				d="M426.4,119.2c0-0.1-0.1-0.1-0.2-0.1c-0.1,0-0.2,0.1-0.3,0.1c-0.1,0.1-0.1,0.2-0.1,0.3
			c-0.1,0.4-0.2,0.7-0.3,1.1c-0.2,0.4-0.3,0.7-0.6,1c-0.3,0.4-0.7,0.6-1.2,0.8c-0.5,0.2-1,0.3-1.6,0.3c-0.6,0-1.2,0.1-1.9,0
			c-1,0-1.8,0-2.5-0.1c-0.7-0.1-1.2-0.2-1.7-0.3c-0.4-0.1-0.7-0.3-0.9-0.5c-0.2-0.2-0.4-0.6-0.5-1.2c-0.1-0.6-0.2-1.5-0.2-2.7
			c0-1.1,0-2.6,0-4.4V102c0-0.5,0-1,0-1.4c0-0.4,0-0.7,0-0.9c0-0.3,0-0.5,0-0.7c0-0.3,0.1-0.6,0.1-0.9c0-0.1,0-0.1,0.1-0.2
			c0.1-0.3,0.2-0.5,0.4-0.7c0.2-0.2,0.5-0.3,0.9-0.3c0.2,0,0.5,0,0.7-0.1c0.2,0,0.4,0,0.6,0c0.1,0,0.1,0,0.2-0.1
			c0.1-0.1,0.1-0.1,0.1-0.2c0-0.1,0-0.2-0.2-0.2c-0.1,0-0.2-0.1-0.4-0.1c-0.2,0-0.3,0-0.5,0c-0.2,0-0.5,0-0.7,0c-0.5,0-0.9,0-1.4,0
			c-0.4,0-0.8,0-1.1,0c0,0,0,0,0,0c-0.3,0-0.5,0-0.5,0c0,0,0,0,0,0c-0.1,0-0.3,0-0.5,0c0,0,0,0,0,0c-0.3,0-0.7,0-1.1,0
			c-0.5,0-0.9,0-1.4,0c-0.2,0-0.4,0-0.6,0c-0.2,0-0.4,0-0.5,0c0,0,0,0,0,0c-0.2,0-0.3,0-0.4,0.1c-0.1,0-0.2,0.1-0.2,0.2
			c0,0.1,0,0.1,0.1,0.2c0.1,0,0.1,0.1,0.2,0.1c0.1,0,0.3,0,0.6,0c0.2,0,0.5,0,0.7,0.1c0.4,0.1,0.7,0.2,0.9,0.3
			c0.2,0.2,0.3,0.4,0.4,0.7c0,0.1,0,0.1,0.1,0.2c0.1,0.2,0.1,0.5,0.1,0.9c0,0.2,0,0.5,0,0.7c0,0.3,0,0.6,0,0.9c0,0.4,0,0.8,0,1.4
			c0,0.5,0,1.2,0,2v9.4c0,1.2,0,2.3,0,3.3c0,1,0,1.9-0.1,2.7c0,0.8-0.1,1.4-0.2,2c-0.1,0.4-0.1,0.7-0.2,0.9
			c-0.1,0.3-0.2,0.5-0.3,0.7c-0.1,0.2-0.3,0.3-0.6,0.3c-0.2,0-0.4,0.1-0.6,0.1c-0.2,0-0.4,0.1-0.6,0.1c-0.1,0-0.2,0-0.2,0.1
			c-0.1,0.1-0.1,0.1-0.1,0.2c0,0.1,0.1,0.2,0.2,0.2c0,0,0,0,0.1,0c0.1,0,0.2,0,0.4,0c0.3,0,0.7,0,1,0c0.4,0,0.8,0,1.2-0.1
			c0.4,0,0.7,0,1,0c0.1,0,0.3,0,0.4,0c0.1,0,0.2,0,0.2,0c0,0,0,0,0,0c0,0,0,0,0,0c0,0,0.1,0,0.2,0c0.5,0,1,0,1.6,0
			c0.7,0,1.5,0,2.3,0.1c0,0,0,0,0,0c0.9,0,1.9,0.1,3,0.1c1.1,0,2.3,0,3.7,0c0.5,0,0.9,0,1.2,0c0.3,0,0.5-0.1,0.7-0.1
			c0.2-0.1,0.3-0.2,0.3-0.3c0.1-0.1,0.1-0.3,0.2-0.5c0.1-0.3,0.2-0.6,0.2-1c0.1-0.4,0.1-0.8,0.2-1.1c0-0.4,0.1-0.7,0.1-1
			c0-0.3,0-0.5,0-0.6C426.5,119.4,426.5,119.3,426.4,119.2z"
			/>
		</g>
	</g>
</svg>
