<svg xmlns="http://www.w3.org/2000/svg" width="179" height="179" viewBox="0 0 179 179"><g fill="#6f6f6f"><path d="M172.7 103.6v1.5c.3.8.9 1.4 2.2 1.6.7-.1 1.1-.3 1.7-.8 1-1.5.8-2.8-.8-3.8-1.6-.5-2.7.3-3.1 1.5zM172.7 99.2v.7c.1 0 .1-.1.1-.2 0-.2 0-.4-.1-.5zM172.7 99.9v-.7c-.1-.3-.4-.3-.8.1-.8 1.5-1.8 2.9-3.2 3.9-2.9 1.4-5.6.8-8.2-.8-2.5-2-3.6-5.3-3.7-8.3 0-.8.1-1.6.1-2.5.6-3 1.5-5.3 4.2-6.6 2.1-.7 6.3-.4 6.3 2.6-.1.4-.4.9-.4 1.4 0 1.9 1.1 3.6 3.3 2.7 1.1-.7 1.4-1.8 1.3-3-1.5-3.5-5.3-5.6-9-5.8-4.2 0-7.4 1.7-9.8 5.2-1.1 1.8-1.8 3.4-2.1 5.6-.2 4.2.9 7.5 3.9 10.4 1.6 1.5 3.3 2.4 5.6 2.6.5.1.9.1 1.5.2 1.2 0 2.3-.1 3.6-.4 3.7-1 6.1-3.1 7.4-6.6zM172.7 105.1v-1.5c-.1.4-.2 1 0 1.5zM92.1 104v3.1h.9c3-.2 5.5-.8 7.6-3 1-1.2 1.8-2.5 2.5-3.9.3-.9-.3-1.3-.9-.8-.8 1.4-1.5 2.5-2.7 3.5-2.3 1.8-5 2-7.4 1.1zM92.1 92.7v1.7l11.2-.1c.8-.4-.6-3.8-.8-4.4-2.2-4.1-5.4-6.3-10-6.8h-.4v1.7c.4 0 .8.1 1.2.2 3.3.8 4.3 4.5 4.2 7.6 0 0-.1 0-.1.1h-5.3zM109.3 106.6s-1.4.3-.4-.8c.9-.3 1.8-.4 2.5-1.1.6-.9.6-1.9.8-2.8l-.2-25.4c-.2-1.6-.3-2.9-1.8-3.6-.8-.2-1.4-.1-1.6-.8.1-.2.2-.2.4-.3h12.6c.6.1.6.4.1.8-.9.2-1 .1-2.1.6l-1 3.5c0 3.6 0 21.9.1 25.5.4 2.5.7 3 3.1 3.6.6.3.4.7-.2.8h-12.3zM124.3 106.6c-.6 0-1.8-.2-.6-.8 1.7-.5 2.1-.6 2.5-2.4v-13.3c-.3-2-1.2-2.5-3.1-2.7-.5-.4-.3-.8.3-.8 2 0 3.6-.1 5.5-1 .8-.6 1.9-1.3 2.5-2.2.7-.5.6.2.6.8 0 .8-.2 2.3.1 3.1 1.3-2 2.7-3.2 5-3.8 2.4-.5 4.1-.3 6.3.7 1.8 1.1 2.7 1.9 3.5 4 .1.9.3 1.9.3 2.8v12.6c.5 1.8.8 1.9 2.6 2.5.7.5.1.7-.4.8h-10.6c-.8-.2-.9-.6-.2-.8 1.4-.4 2.3-.6 2.5-2.1v-14.6c-.2-1.8-.8-2.7-2.4-3.5-.8-.3-1.4-.3-2.3-.1-2.3.7-4.2 2.8-4.6 5.1v10c.1 1.6 0 3.7 1.6 4.5.1 0 2.5.5 1.3 1-.2 0-.4 0-.5.1l-9.9.1zM92.1 84.8v-1.7c-4.4.1-7.6 1.9-10.1 5.4-2.3 3.9-2.6 8-.6 12.1 2.1 3.8 5.1 5.8 9.3 6.5.5 0 .5 0 .8.1h.5v-3.2c-1-.4-2-.8-2.7-1.6-1.4-1.6-2.2-3.1-2.5-5.1-.1-.8-.5-2.3-.3-2.8 0-.1.1-.1.1-.1h5.5v-1.7h-5.4c-.5 0 .2-2.9.3-3.3.7-2.5 2.5-4.5 5.1-4.6zM31.8 86.1v20.5l7.4-.1c.8-.6-1-.9-1.2-.9-1.7-.8-1.4-2.8-1.6-4.5v-16c0-.5.1-1.1-.1-1.5-.6 0-1 .6-1.4.9-1 .8-2.1 1.2-3.1 1.6zM31.8 71.9v4c1.5 1.1 2.6 2.6 3.4 4.8.2.6.1 1.7.8 2 .4-.2.3-.4.3-.8v-10h-4.5zM40.4 106.6c-1.4-.6 1.2-1.1 1.6-1.3.8-.8.9-2 1-3v-12c-.2-2.2-1.3-2.6-3.2-2.9-.8-.4-.1-.8.4-.8 2.8 0 5.3-1 7.5-2.9.4-.2.4-.4.8-.4.7.7 0 3 .3 4l.7-.9c.5-.7 1.1-1.1 1.8-1.7 1.2-.8 2.3-1.2 3.8-1.3 2.4 0 4.8.6 6.4 2.5l1.1 1.9c0-.1 0-.1.1-.1 1.5-2.6 3.4-4.1 6.4-4.4 3.6 0 6.8 1.5 7.8 5.2v15.1c.4 1.8.9 1.9 2.6 2.4.8.6.1.8-.5.8h-10.3c-.8-.1-1-.3-.4-.8 1.5-.4 2.1-.4 2.5-2.1.1-.6.2-1.2.3-1.9v-12.4c-.3-1.9-.7-2.7-2.4-3.7-3.1-.7-5.1 1.2-5.8 4.2l-.1 11.8c.1 1.1.1 2.5 1 3.3.3.2 2.9.8 1.6 1.4h-11.1c-1.3-.6 1.4-1.2 1.6-1.3 1-.8 1-2.5 1.1-3.6l-.1-12.5c-.4-3.3-3-4.2-5.8-2.8-.6.4-1 .8-1.4 1.4-.6 1-.8 1.8-.9 3v11.3c.2 1.4.2 2.6 1.5 3.3.3.1 2.5.6 1.1 1.1l-11 .1zM31.8 75.9v-4l-30 .1v10.3c.7 1 .9-.6 1-1.1.4-1.3 1-3.3 2.3-4.2 2.4-2.6 6.9-4.1 10.4-3.5v.2l.1 24.9c-.1 1.7.4 5.7-1.6 6.7-.5.2-.9.3-1.4.4-.3.2-.7.3-.4.8l13.6.1c1.3-.6-1.4-1.2-1.6-1.3-1.6-.9-1.5-3.2-1.6-4.7v-26.8c.1-.1.1-.2.1-.3 1.3-.2 2.6 0 4 .1 1.9.5 3.7 1.2 5.1 2.3zM31.8 106.6v-20.5c-.8.2-1.5.4-2.3.4l-1.7.1c-.4.1-.8.4-.2.7 2.2.2 2.8 1.8 2.9 3.8v12.4c-.4 1.8-.8 2-2.5 2.4-.7.4-.7.8.2.9l3.6-.2z"/></g></svg>